<svg xmlns="http://www.w3.org/2000/svg" width="34.051" height="40.862"><path d="M17.026 17.026a5.966 5.966 0 0 0-5.96 5.959 5.966 5.966 0 0 0 5.96 5.959 5.966 5.966 0 0 0 5.959-5.96 5.966 5.966 0 0 0-5.96-5.958Zm0 8.513a2.557 2.557 0 0 1-2.554-2.554 2.557 2.557 0 0 1 2.554-2.554 2.557 2.557 0 0 1 2.554 2.554 2.557 2.557 0 0 1-2.554 2.554ZM30.559 9.425 24.628 3.49A11.846 11.846 0 0 0 16.2 0H8.513C3.819 0 0 3.819 0 8.513v23.836c0 4.694 3.819 8.513 8.513 8.513h17.026c4.694 0 8.512-3.82 8.512-8.513V17.85a11.84 11.84 0 0 0-3.492-8.427Zm-2.407 2.41c.541.54 1 1.14 1.37 1.787h-7.39c-.94 0-1.703-.764-1.703-1.702V4.527c.647.371 1.248.83 1.79 1.37l5.931 5.936ZM12.211 37.458a5.115 5.115 0 0 1 4.815-3.405 5.115 5.115 0 0 1 4.815 3.405h-9.63Zm18.435-5.107a5.114 5.114 0 0 1-5.107 5.107h-.172c-.792-3.88-4.231-6.81-8.341-6.81-4.11 0-7.551 2.93-8.341 6.81h-.172a5.114 5.114 0 0 1-5.108-5.107V8.513a5.114 5.114 0 0 1 5.108-5.108H16.2c.277 0 .553.014.826.04v8.473a5.114 5.114 0 0 0 5.107 5.108h8.474c.026.272.04.548.04.825V32.35Z" fill="#8c7229" fill-rule="evenodd" data-name="Path 62475"/></svg>