<svg xmlns="http://www.w3.org/2000/svg" width="29.097" height="34.917" viewBox="-0.5 -0.5 29.097 34.917"><g data-name="Path 62474"><path d="M22.55 34.917H6.547A6.554 6.554 0 0 1 0 28.37V6.547A6.555 6.555 0 0 1 6.547 0H22.55a6.555 6.555 0 0 1 6.547 6.547V28.37a6.555 6.555 0 0 1-6.547 6.547ZM6.547 1.455a5.098 5.098 0 0 0-5.092 5.092V28.37a5.098 5.098 0 0 0 5.092 5.092H22.55a5.098 5.098 0 0 0 5.092-5.092V6.547a5.098 5.098 0 0 0-5.092-5.092H6.547Zm16.73 6.547a.727.727 0 0 0-.727-.728h-8.729a.727.727 0 0 0 0 1.455h8.73a.727.727 0 0 0 .727-.727Zm0 8.729a.727.727 0 0 0-.727-.727h-8.729a.727.727 0 0 0 0 1.454h8.73a.727.727 0 0 0 .727-.727Zm0 8.73a.727.727 0 0 0-.727-.728h-8.729a.727.727 0 0 0 0 1.455h8.73a.727.727 0 0 0 .727-.728ZM9.458 10.183h-2.91a.727.727 0 0 1-.728-.727v-2.91c0-.402.326-.728.728-.728h2.91c.401 0 .727.326.727.728v2.91a.727.727 0 0 1-.727.727ZM7.274 8.729H8.73V7.274H7.274V8.73Zm2.183 10.184h-2.91a.727.727 0 0 1-.728-.727v-2.91c0-.402.326-.727.728-.727h2.91c.401 0 .727.325.727.727v2.91a.727.727 0 0 1-.727.727Zm-2.183-1.455H8.73v-1.454H7.274v1.454Zm2.183 10.184h-2.91a.727.727 0 0 1-.728-.727v-2.91c0-.401.326-.727.728-.727h2.91c.401 0 .727.326.727.727v2.91a.727.727 0 0 1-.727.727Zm-2.183-1.454H8.73v-1.455H7.274v1.455Z" fill="#8c7229" fill-rule="evenodd"/><path d="M22.55 34.917H6.547A6.554 6.554 0 0 1 0 28.37V6.547A6.555 6.555 0 0 1 6.547 0H22.55a6.555 6.555 0 0 1 6.547 6.547V28.37a6.555 6.555 0 0 1-6.547 6.547ZM6.547 1.455a5.098 5.098 0 0 0-5.092 5.092V28.37a5.098 5.098 0 0 0 5.092 5.092H22.55a5.098 5.098 0 0 0 5.092-5.092V6.547a5.098 5.098 0 0 0-5.092-5.092H6.547Zm16.73 6.547a.727.727 0 0 0-.727-.728h-8.729a.727.727 0 0 0 0 1.455h8.73a.727.727 0 0 0 .727-.727Zm0 8.729a.727.727 0 0 0-.727-.727h-8.729a.727.727 0 0 0 0 1.454h8.73a.727.727 0 0 0 .727-.727Zm0 8.73a.727.727 0 0 0-.727-.728h-8.729a.727.727 0 0 0 0 1.455h8.73a.727.727 0 0 0 .727-.728ZM9.458 10.183h-2.91a.727.727 0 0 1-.728-.727v-2.91c0-.402.326-.728.728-.728h2.91c.401 0 .727.326.727.728v2.91a.727.727 0 0 1-.727.727ZM7.274 8.729H8.73V7.274H7.274V8.73Zm2.183 10.184h-2.91a.727.727 0 0 1-.728-.727v-2.91c0-.402.326-.727.728-.727h2.91c.401 0 .727.325.727.727v2.91a.727.727 0 0 1-.727.727Zm-2.183-1.455H8.73v-1.454H7.274v1.454Zm2.183 10.184h-2.91a.727.727 0 0 1-.728-.727v-2.91c0-.401.326-.727.728-.727h2.91c.401 0 .727.326.727.727v2.91a.727.727 0 0 1-.727.727Zm-2.183-1.454H8.73v-1.455H7.274v1.455Z" stroke-linejoin="round" stroke-linecap="round" stroke="#8c7229" fill="transparent"/></g></svg>