<svg xmlns="http://www.w3.org/2000/svg" width="35.587" height="35.737" viewBox="620.107 324.728 35.587 35.737"><g data-name="Group 24958"><path d="M644.378 360.465h-.05a2.793 2.793 0 0 1-2.002-.893l-4.717-4.858 2.153-2.057 4.623 4.764 9.055-9.056 2.106 2.101-9.174 9.176a2.789 2.789 0 0 1-1.994.823Zm-8.04-26.803v6.83l-4.032 4.03 2.106 2.105 4.903-4.903v-8.062h-2.978Z" fill="#8c7229" fill-rule="evenodd" data-name="Path 62472"/><path d="M637.826 324.728c-9.52.08-17.306 7.61-17.703 17.123-.397 9.512 6.734 17.665 16.214 18.538v-2.978c-8.192-.817-14.169-8.122-13.348-16.313.821-8.192 8.13-14.165 16.32-13.34 8.192.826 14.161 8.137 13.332 16.328h2.978c.041-.493.076-.986.076-1.49-.011-9.863-8.005-17.857-17.869-17.868Z" fill="#8c7229" fill-rule="evenodd" data-name="Path 62473"/></g></svg>