<svg xmlns="http://www.w3.org/2000/svg" width="33.718" height="33.718"><path d="M16.86 0C7.562 0 0 7.561 0 16.86c0 9.297 7.563 16.858 16.86 16.858 9.296 0 16.858-7.562 16.858-16.859C33.718 7.563 26.156 0 16.86 0Zm0 30.909c-7.748 0-14.05-6.303-14.05-14.05 0-7.747 6.302-14.05 14.05-14.05 7.746 0 14.049 6.303 14.049 14.05 0 7.747-6.303 14.05-14.05 14.05Zm6.694-19.817-4.857 5.767 4.857 5.768a1.405 1.405 0 1 1-2.15 1.81L16.86 19.04l-4.545 5.397a1.402 1.402 0 0 1-1.98.17 1.404 1.404 0 0 1-.17-1.98l4.858-5.768-4.857-5.767a1.405 1.405 0 1 1 2.148-1.811l4.545 5.398 4.545-5.398a1.405 1.405 0 1 1 2.148 1.811Z" fill="#b88230" fill-rule="evenodd" data-name="Path 62476"/></svg>