<svg xmlns="http://www.w3.org/2000/svg" width="40.359" height="40.359"><path d="M30.269 20.18c-5.564 0-10.09 4.525-10.09 10.089 0 5.565 4.526 10.09 10.09 10.09 5.565 0 10.09-4.525 10.09-10.09 0-5.564-4.525-10.09-10.09-10.09Zm5.045 14.534v-.24a2.522 2.522 0 0 0-2.523-2.523h-5.044a2.522 2.522 0 0 0-2.523 2.522v.24a6.7 6.7 0 0 1-1.681-4.444 6.733 6.733 0 0 1 6.726-6.726 6.733 6.733 0 0 1 6.726 6.726 6.703 6.703 0 0 1-1.681 4.445Zm-2.523-6.967a2.523 2.523 0 1 1-5.046-.002 2.523 2.523 0 0 1 5.046.002Zm-.84-24.384h-1.682V1.682a1.682 1.682 0 0 0-3.363 0v1.681H13.453V1.682a1.682 1.682 0 1 0-3.363 0v1.681H8.408C3.772 3.363 0 7.135 0 11.771v20.18c0 4.636 3.772 8.408 8.408 8.408h8.408a1.682 1.682 0 0 0 0-3.364H8.408a5.051 5.051 0 0 1-5.045-5.044V16.816h33.632a1.682 1.682 0 0 0 3.364 0v-5.045c0-4.636-3.772-8.408-8.408-8.408ZM3.363 13.453V11.77a5.051 5.051 0 0 1 5.045-5.045h23.543a5.051 5.051 0 0 1 5.044 5.045v1.682H3.363Z" fill="#8c7229" fill-rule="evenodd" data-name="Path 62471"/></svg>