<svg xmlns="http://www.w3.org/2000/svg" width="40.448" height="42.708" viewBox="1142.985 422.843 40.448 42.708"><g data-name="Group 24851"><path d="M1169.308 436.425c-4.168-6.132-9.734-9.391-12.65-7.394-.32.226-.6.506-.824.829 0 .023-6.748 13.68-6.748 13.68l-3.768 2.553a5.322 5.322 0 0 0-1.413 7.394l.17.25a5.331 5.331 0 0 0 7.36 1.413l6.052 8.915c.89 1.097 2.6 2.19 4.71.904a3.188 3.188 0 0 0 1.413-2.167 3.372 3.372 0 0 0-.523-2.543l-5.331-7.864s12.602-1.004 12.65-1.022a3.019 3.019 0 0 0 1.097-.471c1.497-1.018 2.034-3.151 1.516-6.01-.466-2.632-1.79-5.613-3.71-8.467Zm-23.863 16.384-.17-.25a3.669 3.669 0 0 1 .98-5.1l3.254-2.213 4.296 6.324-3.255 2.214a3.673 3.673 0 0 1-5.105-.975Zm16.286 8.378a1.743 1.743 0 0 1-2.892 1.945l-6.033-8.887 2.426-1.648.64-.052 5.859 8.642Zm-6.368-10.257-4.68-6.895 4.464-9.103c.433 2.557 1.7 5.595 3.725 8.576 2.025 2.98 4.38 5.28 6.593 6.626l-10.102.796Zm13.893-1.097c-2.25-.146-5.915-2.685-9.018-7.258-3.104-4.573-4.112-8.9-3.42-11.053a2.006 2.006 0 0 1 1.884-1.413c2.233 0 6.033 2.553 9.226 7.258 1.8 2.646 3.109 5.416 3.466 7.836.702 4.63-2.138 4.63-2.138 4.63Z" fill-rule="evenodd" data-name="Path 62366"/><path d="M1163.421 436.599a4.422 4.422 0 0 0-3.353.692.828.828 0 1 0 .942 1.361 2.826 2.826 0 0 1 3.174 4.677.824.824 0 0 0 .471 1.502.805.805 0 0 0 .471-.141 4.47 4.47 0 0 0-1.672-8.091Zm6.904-5.906h.08c.423 0 .776-.32.82-.74l.636-6.178a.824.824 0 1 0-1.64-.17l-.63 6.184a.824.824 0 0 0 .734.904Zm10.653-1.271a.829.829 0 0 0-1.144-.236l-5.741 3.768a.824.824 0 0 0 .47 1.512.838.838 0 0 0 .472-.132l5.74-3.768a.824.824 0 0 0 .203-1.144Zm1.757 10.06-6.678-1.202a.825.825 0 0 0-.292 1.625l6.673 1.2h.146a.824.824 0 0 0 .146-1.638Z" fill-rule="evenodd" data-name="Path 62367"/></g></svg>