<svg xmlns="http://www.w3.org/2000/svg" width="23.367" height="23.356" viewBox="-0.01 -0.01 23.367 23.356"><path d="M11.695 19.497h1.946m3.904 0h1.946m-13.635 0h1.946m3.893-5.84h1.946m3.904 0h1.946m-13.635 0h1.946M.99 8.775h23.367M4.894 24.345h15.56a3.904 3.904 0 0 0 3.903-3.903V6.84a3.904 3.904 0 0 0-3.904-3.904H4.893A3.904 3.904 0 0 0 .99 6.84v13.602a3.904 3.904 0 0 0 3.904 3.904Zm13.624-18.49V.99M6.828 5.856V.99" stroke-linejoin="round" stroke-linecap="round" stroke-width="2" stroke="#fff" fill="transparent" data-name="Path 12"/></svg>