<svg xmlns="http://www.w3.org/2000/svg" width="36.16" height="36.16" viewBox="1113.938 323.269 36.16 36.16"><path d="m1145.854 348.738.809.81 2.13-2.131-8.003-8.004-2.13 2.13.808.81-6.582 6.583-.81-.81-2.13 2.131 8.004 8.003 2.13-2.13-.81-.81 2.296-2.294 6.365 6.367 2.13-2.13-6.365-6.367 2.158-2.158Zm-10.838 2.33 6.583-6.583 2.123 2.123-6.583 6.582-2.123-2.122Zm10.562-24.785h-4.52v-3.014h-3.013v3.014h-12.054v-3.014h-3.013v3.014h-4.52a4.526 4.526 0 0 0-4.52 4.52v28.627h20.917l-3.013-3.014h-14.89v-18.08h30.133v3.111l3.013 3.014v-13.658a4.526 4.526 0 0 0-4.52-4.52Zm1.507 9.04h-30.134v-4.52c0-.83.675-1.507 1.507-1.507h27.12c.832 0 1.507.677 1.507 1.507v4.52Z" fill="#8c7229" fill-rule="evenodd" data-name="calendar-gavel-legal"/></svg>