<svg xmlns="http://www.w3.org/2000/svg" width="18.416" height="18.416" viewBox="984.331 2204.139 18.416 18.416"><g data-name="Group 85"><path d="M1000.589 2205.578h-.864v-1.439h-1.438v1.439h-9.496v-1.439h-1.439v1.439h-.863a2.16 2.16 0 0 0-2.158 2.158v12.661a2.16 2.16 0 0 0 2.158 2.158h14.1a2.16 2.16 0 0 0 2.158-2.158v-12.66a2.16 2.16 0 0 0-2.158-2.16Zm.719 14.82a.72.72 0 0 1-.72.719h-14.1a.72.72 0 0 1-.719-.72v-9.496h15.539v9.496Zm0-10.935h-15.539v-1.727a.72.72 0 0 1 .72-.72h.863v1.44h1.439v-1.44h9.496v1.44h1.438v-1.44h.864a.72.72 0 0 1 .719.72v1.727Z" fill="#19a5bd" fill-rule="evenodd" data-name="Path 110"/><path d="M987.064 2212.412h1.439v1.439h-1.439v-1.439Zm2.878 0h1.439v1.439h-1.44v-1.439Zm2.877 0h1.44v1.439h-1.44v-1.439Zm2.878 0h1.439v1.439h-1.44v-1.439Zm2.877 0h1.44v1.439h-1.44v-1.439Zm-11.51 2.878h1.439v1.438h-1.439v-1.438Zm2.878 0h1.439v1.438h-1.44v-1.438Zm2.877 0h1.44v1.438h-1.44v-1.438Zm2.878 0h1.439v1.438h-1.44v-1.438Zm-8.633 2.877h1.439v1.439h-1.439v-1.439Zm2.878 0h1.439v1.439h-1.44v-1.439Zm2.877 0h1.44v1.439h-1.44v-1.439Zm2.878 0h1.439v1.439h-1.44v-1.439Zm2.877-2.877h1.44v1.438h-1.44v-1.438Z" fill="#19a5bd" fill-rule="evenodd" data-name="Path 111"/></g></svg>