<svg xmlns="http://www.w3.org/2000/svg" width="34.459" height="43.494"><path d="M23.438.336c-.2-.21-.473-.336-.756-.336H5.715C2.585 0 0 2.574 0 5.704V37.79c0 3.13 2.584 5.705 5.715 5.705h23.029c3.13 0 5.715-2.574 5.715-5.705V12.312a1.13 1.13 0 0 0-.305-.735L23.438.337Zm.305 3.373 7.175 7.532h-4.664a2.502 2.502 0 0 1-2.511-2.5V3.709Zm5 37.684H5.716c-1.964 0-3.614-1.629-3.614-3.604V5.704c0-1.964 1.64-3.603 3.614-3.603h15.927v6.64a4.596 4.596 0 0 0 4.612 4.601h6.104V37.79c0 1.975-1.64 3.604-3.614 3.604Zm0 0" fill="#088a51" fill-rule="evenodd" data-name="Path 108"/></svg>