<svg xmlns="http://www.w3.org/2000/svg" width="17.664" height="17.656" viewBox="1500.748 17.504 17.664 17.656"><g data-name="Group 21"><g data-name="Group 20" transform="translate(1500 16.756)" clip-path="url(&quot;#a&quot;)"><path d="M8.84 14.738h1.472m2.95 0h1.472m-10.308 0h1.472m2.942-4.414h1.472m2.95 0h1.472m-10.308 0h1.472m-5.15-3.69h17.664M3.7 18.403h11.762a2.951 2.951 0 0 0 2.951-2.951V5.17a2.951 2.951 0 0 0-2.95-2.952H3.698A2.951 2.951 0 0 0 .75 5.171v10.282a2.951 2.951 0 0 0 2.95 2.951ZM14 4.426V.748M5.162 4.426V.748" stroke-linejoin="round" stroke-linecap="round" stroke-width="2" stroke="#a6692b" fill="transparent" data-name="Path 12"/></g></g><defs><clipPath id="a"><path d="M0-682.665h19.152v19.152H0v-19.152Z" data-name="Path 13" transform="translate(0 682.665)"/></clipPath></defs></svg>