<svg xmlns="http://www.w3.org/2000/svg" width="25.999" height="26" viewBox="76.5 15.5 25.999 26"><g data-name="Group 19"><path d="M100.588 35.287A12.94 12.94 0 0 0 102.5 28.5a12.94 12.94 0 0 0-1.912-6.787l-.007-.011a13 13 0 0 0-22.162 0l-.007.011a13.004 13.004 0 0 0 0 13.574l.007.012a13 13 0 0 0 22.162 0Zm-9.426 3.985c-.248.239-.533.436-.844.583a1.905 1.905 0 0 1-1.636 0 3.98 3.98 0 0 1-1.474-1.298 11.62 11.62 0 0 1-1.68-3.643 63.446 63.446 0 0 1 7.943 0c-.19.67-.428 1.325-.712 1.96a7.538 7.538 0 0 1-1.597 2.398ZM77.986 29.23h5.244c.034 1.464.193 2.921.474 4.357a65.88 65.88 0 0 0-4.29.52 11.46 11.46 0 0 1-1.428-4.877Zm1.429-6.337c1.425.221 2.855.394 4.29.52a25.751 25.751 0 0 0-.475 4.357h-5.244a11.46 11.46 0 0 1 1.429-4.877Zm8.423-5.165c.248-.239.533-.436.845-.583a1.905 1.905 0 0 1 1.635 0 3.98 3.98 0 0 1 1.474 1.298 11.62 11.62 0 0 1 1.68 3.643 63.448 63.448 0 0 1-7.943 0c.19-.67.428-1.325.712-1.96a7.538 7.538 0 0 1 1.597-2.398Zm13.176 10.042H95.77a25.798 25.798 0 0 0-.474-4.357c1.434-.126 2.863-.3 4.29-.52a11.46 11.46 0 0 1 1.428 4.877Zm-15.84 5.704a24.158 24.158 0 0 1-.483-4.244h9.618a24.153 24.153 0 0 1-.48 4.244 64.83 64.83 0 0 0-8.655 0Zm8.653-9.947a24.16 24.16 0 0 1 .482 4.243h-9.618c.035-1.426.196-2.846.481-4.244a64.7 64.7 0 0 0 8.655 0Zm1.943 5.703h5.244a11.46 11.46 0 0 1-1.429 4.877 65.247 65.247 0 0 0-4.29-.52 25.75 25.75 0 0 0 .475-4.357Zm2.94-7.681c-1.247.18-2.497.322-3.75.427a16.657 16.657 0 0 0-.87-2.453c-.322-.73-.728-1.42-1.209-2.058a11.537 11.537 0 0 1 5.829 4.084ZM81.34 20.34a11.535 11.535 0 0 1 4.779-2.876l-.082.106a13.334 13.334 0 0 0-1.993 4.405 65.47 65.47 0 0 1-3.753-.427c.322-.426.673-.83 1.05-1.208Zm-1.049 15.11a63.189 63.189 0 0 1 3.75-.427c.225.84.516 1.66.87 2.453.322.73.728 1.42 1.209 2.058a11.537 11.537 0 0 1-5.829-4.084ZM97.66 36.66a11.535 11.535 0 0 1-4.778 2.875l.082-.105a13.334 13.334 0 0 0 1.993-4.406 65.47 65.47 0 0 1 3.753.427c-.322.427-.673.83-1.05 1.209Z" fill="#fff" fill-rule="evenodd" data-name="Layer 2"/></g></svg>