<svg xmlns="http://www.w3.org/2000/svg" width="25.999" height="26" viewBox="83.104 15.5 25.999 26"><g data-name="Group 19"><path d="M107.192 35.287a12.94 12.94 0 0 0 1.911-6.787 12.94 12.94 0 0 0-1.911-6.787l-.007-.011a13 13 0 0 0-22.162 0l-.007.011a13.004 13.004 0 0 0 0 13.574l.007.012a13 13 0 0 0 22.162 0Zm-9.427 3.985c-.247.239-.533.436-.844.583a1.905 1.905 0 0 1-1.635 0 3.98 3.98 0 0 1-1.475-1.298 11.62 11.62 0 0 1-1.679-3.643 63.446 63.446 0 0 1 7.943 0c-.19.67-.428 1.325-.712 1.96a7.538 7.538 0 0 1-1.598 2.398ZM84.59 29.23h5.243c.035 1.464.193 2.921.475 4.357a65.88 65.88 0 0 0-4.29.52 11.46 11.46 0 0 1-1.428-4.877Zm1.428-6.337c1.426.221 2.856.394 4.291.52a25.751 25.751 0 0 0-.475 4.357H84.59a11.46 11.46 0 0 1 1.428-4.877Zm8.424-5.165c.248-.239.533-.436.844-.583a1.905 1.905 0 0 1 1.635 0 3.98 3.98 0 0 1 1.475 1.298 11.62 11.62 0 0 1 1.679 3.643 63.448 63.448 0 0 1-7.943 0c.19-.67.429-1.325.712-1.96a7.538 7.538 0 0 1 1.598-2.398Zm13.175 10.042h-5.243a25.798 25.798 0 0 0-.474-4.357c1.433-.126 2.863-.3 4.289-.52a11.46 11.46 0 0 1 1.428 4.877Zm-15.84 5.704a24.158 24.158 0 0 1-.482-4.244h9.618a24.153 24.153 0 0 1-.481 4.244 64.83 64.83 0 0 0-8.655 0Zm8.654-9.947a24.16 24.16 0 0 1 .482 4.243h-9.618c.034-1.426.195-2.846.48-4.244a64.7 64.7 0 0 0 8.655 0Zm1.942 5.703h5.244a11.46 11.46 0 0 1-1.428 4.877 65.247 65.247 0 0 0-4.29-.52 25.75 25.75 0 0 0 .474-4.357Zm2.94-7.681c-1.246.18-2.496.322-3.75.427a16.657 16.657 0 0 0-.87-2.453c-.322-.73-.727-1.42-1.208-2.058a11.537 11.537 0 0 1 5.828 4.084ZM87.945 20.34a11.535 11.535 0 0 1 4.778-2.876l-.083.106a13.334 13.334 0 0 0-1.993 4.405 65.47 65.47 0 0 1-3.752-.427c.321-.426.672-.83 1.05-1.208Zm-1.05 15.11a63.189 63.189 0 0 1 3.75-.427c.225.84.516 1.66.869 2.453.322.73.728 1.42 1.21 2.058a11.537 11.537 0 0 1-5.83-4.084Zm17.368 1.209a11.535 11.535 0 0 1-4.778 2.875l.083-.105a13.334 13.334 0 0 0 1.993-4.406 65.47 65.47 0 0 1 3.752.427c-.321.427-.672.83-1.05 1.209Z" fill="#231c1c" fill-rule="evenodd" data-name="Layer 2"/></g></svg>