<svg xmlns="http://www.w3.org/2000/svg" width="15.908" height="21.532" viewBox="479.392 1822.19 15.908 21.532"><g data-name="Group 77"><path d="M487.346 1822.19c-4.386 0-7.954 3.568-7.954 7.954 0 1.444.648 2.997.675 3.062.21.497.622 1.268.92 1.72l5.453 8.263c.223.339.554.533.906.533.353 0 .683-.194.907-.533l5.454-8.263c.298-.452.71-1.223.92-1.72.026-.065.673-1.618.673-3.062 0-4.386-3.568-7.954-7.954-7.954Zm6.417 10.653c-.186.445-.57 1.162-.838 1.567l-5.454 8.264c-.107.164-.142.164-.25 0l-5.453-8.264a11.758 11.758 0 0 1-.838-1.567c-.008-.02-.602-1.449-.602-2.7a7.026 7.026 0 0 1 7.018-7.017 7.026 7.026 0 0 1 7.019 7.018c0 1.252-.596 2.685-.602 2.7Z" fill="#088a51" fill-rule="evenodd" data-name="Path 106"/><path d="M487.346 1825.933a4.216 4.216 0 0 0-4.21 4.211 4.216 4.216 0 0 0 4.21 4.211 4.216 4.216 0 0 0 4.211-4.21 4.216 4.216 0 0 0-4.21-4.212Zm0 7.486a3.28 3.28 0 0 1-3.275-3.275 3.28 3.28 0 0 1 3.275-3.275 3.28 3.28 0 0 1 3.275 3.275 3.28 3.28 0 0 1-3.275 3.275Z" fill="#088a51" fill-rule="evenodd" data-name="Path 107"/></g></svg>