<svg xmlns="http://www.w3.org/2000/svg" width="43.284" height="39.23" viewBox="0.654 2.68 43.284 39.23"><g data-name="Group 40" clip-path="url(&quot;#a&quot;)"><path d="M41.463 16.946H3.127A2.474 2.474 0 0 0 .653 19.42v5.75a2.474 2.474 0 0 0 2.474 2.474h38.336a2.474 2.474 0 0 0 2.474-2.474v-5.75a2.474 2.474 0 0 0-2.474-2.474Z" stroke-linejoin="round" stroke-linecap="round" stroke="#fff" fill="transparent" data-name="Path 57"/><path d="M10.49 6.629a19.641 19.641 0 0 0-7.072 10.317" stroke-linejoin="round" stroke-linecap="round" stroke="#fff" fill="transparent" data-name="Path 58"/><path d="M41.172 16.946C38.843 8.713 31.274 2.68 22.295 2.68c-3.297 0-6.405.813-9.132 2.25" stroke-linejoin="round" stroke-linecap="round" stroke="#fff" fill="transparent" data-name="Path 59"/><path d="M34.785 37.42a19.63 19.63 0 0 0 6.387-9.776" stroke-linejoin="round" stroke-linecap="round" stroke="#fff" fill="transparent" data-name="Path 60"/><path d="M3.418 27.644c2.329 8.233 9.898 14.266 18.877 14.266 3.617 0 7.005-.979 9.913-2.686" stroke-linejoin="round" stroke-linecap="round" stroke="#fff" fill="transparent" data-name="Path 61"/><path d="m25.898 19.82-1.802 4.95-1.801-4.95-1.801 4.95-1.802-4.95" stroke-linejoin="round" stroke-linecap="round" stroke="#fff" fill="transparent" data-name="Path 62"/><path d="m16.209 19.82-1.801 4.95-1.802-4.95-1.801 4.95-1.801-4.95" stroke-linejoin="round" stroke-linecap="round" stroke="#fff" fill="transparent" data-name="Path 63"/><path d="m28.38 19.82 1.802 4.95 1.802-4.95 1.801 4.95 1.801-4.95" stroke-linejoin="round" stroke-linecap="round" stroke="#fff" fill="transparent" data-name="Path 64"/><path d="M31.262 16.946c-1.51-5.169-4.886-10.764-8.967-14.266-4.081 3.502-7.457 9.097-8.967 14.266" stroke-linejoin="round" stroke-linecap="round" stroke="#fff" fill="transparent" data-name="Path 65"/><path d="M13.328 27.644c1.51 5.169 4.886 10.764 8.967 14.266 4.081-3.502 7.457-9.097 8.967-14.266" stroke-linejoin="round" stroke-linecap="round" stroke="#fff" fill="transparent" data-name="Path 66"/><path d="M6.65 34.128H37.94" stroke-linejoin="round" stroke-linecap="round" stroke="#fff" fill="transparent" data-name="Path 67"/><path d="M6.651 10.462H37.94" stroke-linejoin="round" stroke-linecap="round" stroke="#fff" fill="transparent" data-name="Path 68"/></g><defs><clipPath id="a"><path d="M0-682.665h44.59v44.59H0v-44.59Z" data-name="Path 69" transform="translate(0 682.665)"/></clipPath></defs></svg>