<svg xmlns="http://www.w3.org/2000/svg" width="22.01" height="22.01"><path d="M18.787 14.228a10.963 10.963 0 0 0-4.182-2.623 6.36 6.36 0 0 0 2.762-5.243A6.37 6.37 0 0 0 11.005 0a6.37 6.37 0 0 0-6.362 6.362 6.36 6.36 0 0 0 2.762 5.243 10.963 10.963 0 0 0-4.182 2.623A10.933 10.933 0 0 0 0 22.01h1.72c0-5.12 4.165-9.285 9.285-9.285s9.286 4.165 9.286 9.285h1.72c0-2.94-1.146-5.703-3.224-7.782Zm-7.782-3.223a4.648 4.648 0 0 1-4.643-4.643 4.648 4.648 0 0 1 4.643-4.642 4.648 4.648 0 0 1 4.643 4.642 4.648 4.648 0 0 1-4.643 4.643Z" fill="#088a51" fill-rule="evenodd" data-name="Path 30"/></svg>