<svg xmlns="http://www.w3.org/2000/svg" width="32.895" height="32.895" viewBox="871.968 307.002 32.895 32.895"><g data-name="Group 24956"><path d="M888.416 307.002c-9.07 0-16.448 7.377-16.448 16.448 0 9.07 7.378 16.447 16.448 16.447s16.447-7.378 16.447-16.447c0-9.07-7.378-16.448-16.447-16.448Zm0 30.154c-7.558 0-13.707-6.149-13.707-13.706 0-7.558 6.149-13.707 13.707-13.707 7.557 0 13.706 6.149 13.706 13.707 0 7.557-6.149 13.706-13.706 13.706Zm6.53-19.333-4.737 5.627 4.738 5.626a1.371 1.371 0 1 1-2.097 1.767l-4.434-5.266-4.434 5.266a1.368 1.368 0 0 1-1.933.164 1.37 1.37 0 0 1-.164-1.93l4.738-5.627-4.738-5.627a1.37 1.37 0 1 1 2.095-1.767l4.434 5.266 4.434-5.266a1.37 1.37 0 1 1 2.096 1.767Z" fill="#fff" fill-rule="evenodd" data-name="Path 62476"/></g></svg>