<svg xmlns="http://www.w3.org/2000/svg" width="39.374" height="39.374" viewBox="1353.49 296.815 39.374 39.374"><g data-name="Group 24952"><path d="M1383.02 316.502c-5.429 0-9.844 4.415-9.844 9.844 0 5.428 4.415 9.843 9.844 9.843 5.428 0 9.843-4.415 9.843-9.843 0-5.429-4.415-9.844-9.843-9.844Zm4.921 14.18v-.235a2.46 2.46 0 0 0-2.46-2.46h-4.922a2.46 2.46 0 0 0-2.46 2.46v.235a6.536 6.536 0 0 1-1.641-4.336 6.569 6.569 0 0 1 6.562-6.563 6.569 6.569 0 0 1 6.562 6.563 6.54 6.54 0 0 1-1.64 4.336Zm-2.46-6.797a2.462 2.462 0 1 1-4.924-.002 2.462 2.462 0 0 1 4.924.002Zm-.82-23.788h-1.641v-1.64a1.64 1.64 0 0 0-3.281 0v1.64h-13.125v-1.64a1.64 1.64 0 0 0-3.281 0v1.64h-1.64c-4.524 0-8.203 3.68-8.203 8.202v19.687c0 4.523 3.68 8.203 8.202 8.203h8.203a1.64 1.64 0 0 0 0-3.281h-8.203a4.928 4.928 0 0 1-4.921-4.922v-14.765h32.811a1.64 1.64 0 0 0 3.281 0V308.3c0-4.523-3.68-8.202-8.203-8.202Zm-27.89 9.843v-1.64a4.928 4.928 0 0 1 4.921-4.922h22.968a4.928 4.928 0 0 1 4.922 4.921v1.641h-32.811Z" fill="#fff" fill-rule="evenodd" data-name="Path 62471"/></g></svg>