<svg xmlns="http://www.w3.org/2000/svg" width="34.719" height="34.865" viewBox="616.451 302.594 34.719 34.865"><g data-name="Group 24953"><path d="M640.13 337.459h-.049a2.725 2.725 0 0 1-1.954-.872l-4.602-4.738 2.1-2.008 4.511 4.649 8.834-8.836 2.054 2.05-8.95 8.952a2.72 2.72 0 0 1-1.945.803Zm-7.845-26.148v6.662l-3.933 3.932 2.054 2.054 4.784-4.784v-7.864h-2.905Z" fill="#fff" fill-rule="evenodd" data-name="Path 62472"/><path d="M633.737 302.594c-9.287.078-16.883 7.425-17.27 16.705-.388 9.28 6.569 17.234 15.818 18.086v-2.906c-7.992-.797-13.824-7.923-13.022-15.915.8-7.991 7.93-13.819 15.922-13.014 7.99.806 13.815 7.939 13.005 15.93h2.905c.041-.482.075-.962.075-1.453-.01-9.624-7.81-17.422-17.433-17.433Z" fill="#fff" fill-rule="evenodd" data-name="Path 62473"/></g></svg>