<svg xmlns="http://www.w3.org/2000/svg" width="28.387" height="34.064" viewBox="370.518 302.594 28.387 34.064"><g data-name="Group 24954"><g data-name="Path 62474"><path d="M392.518 336.659h-15.613a6.394 6.394 0 0 1-6.387-6.387v-21.29a6.395 6.395 0 0 1 6.387-6.388h15.613a6.395 6.395 0 0 1 6.387 6.387v21.29a6.395 6.395 0 0 1-6.387 6.388Zm-15.613-32.645a4.973 4.973 0 0 0-4.968 4.967v21.29a4.973 4.973 0 0 0 4.968 4.968h15.613a4.973 4.973 0 0 0 4.968-4.967v-21.29a4.973 4.973 0 0 0-4.968-4.968h-15.613Zm16.323 6.387a.71.71 0 0 0-.71-.71h-8.516a.71.71 0 0 0 0 1.42h8.516a.71.71 0 0 0 .71-.71Zm0 8.516a.71.71 0 0 0-.71-.71h-8.516a.71.71 0 0 0 0 1.42h8.516a.71.71 0 0 0 .71-.71Zm0 8.516a.71.71 0 0 0-.71-.71h-8.516a.71.71 0 1 0 0 1.42h8.516a.71.71 0 0 0 .71-.71Zm-13.484-14.903h-2.839a.71.71 0 0 1-.71-.71v-2.839a.71.71 0 0 1 .71-.71h2.839a.71.71 0 0 1 .71.71v2.84a.71.71 0 0 1-.71.709Zm-2.13-1.42h1.42v-1.419h-1.42v1.42Zm2.13 9.936h-2.839a.71.71 0 0 1-.71-.71v-2.838a.71.71 0 0 1 .71-.71h2.839a.71.71 0 0 1 .71.71v2.838a.71.71 0 0 1-.71.71Zm-2.13-1.42h1.42v-1.419h-1.42v1.42Zm2.13 9.936h-2.839a.71.71 0 0 1-.71-.71v-2.838a.71.71 0 0 1 .71-.71h2.839a.71.71 0 0 1 .71.71v2.838a.71.71 0 0 1-.71.71Zm-2.13-1.42h1.42v-1.419h-1.42v1.42Z" fill="#fff" fill-rule="evenodd"/><path d="M392.518 336.659h-15.613a6.394 6.394 0 0 1-6.387-6.387v-21.29a6.395 6.395 0 0 1 6.387-6.388h15.613a6.395 6.395 0 0 1 6.387 6.387v21.29a6.395 6.395 0 0 1-6.387 6.388Zm-15.613-32.645a4.973 4.973 0 0 0-4.968 4.967v21.29a4.973 4.973 0 0 0 4.968 4.968h15.613a4.973 4.973 0 0 0 4.968-4.967v-21.29a4.973 4.973 0 0 0-4.968-4.968h-15.613Zm16.323 6.387a.71.71 0 0 0-.71-.71h-8.516a.71.71 0 0 0 0 1.42h8.516a.71.71 0 0 0 .71-.71Zm0 8.516a.71.71 0 0 0-.71-.71h-8.516a.71.71 0 0 0 0 1.42h8.516a.71.71 0 0 0 .71-.71Zm0 8.516a.71.71 0 0 0-.71-.71h-8.516a.71.71 0 1 0 0 1.42h8.516a.71.71 0 0 0 .71-.71Zm-13.484-14.903h-2.839a.71.71 0 0 1-.71-.71v-2.839a.71.71 0 0 1 .71-.71h2.839a.71.71 0 0 1 .71.71v2.84a.71.71 0 0 1-.71.709Zm-2.13-1.42h1.42v-1.419h-1.42v1.42Zm2.13 9.936h-2.839a.71.71 0 0 1-.71-.71v-2.838a.71.71 0 0 1 .71-.71h2.839a.71.71 0 0 1 .71.71v2.838a.71.71 0 0 1-.71.71Zm-2.13-1.42h1.42v-1.419h-1.42v1.42Zm2.13 9.936h-2.839a.71.71 0 0 1-.71-.71v-2.838a.71.71 0 0 1 .71-.71h2.839a.71.71 0 0 1 .71.71v2.838a.71.71 0 0 1-.71.71Zm-2.13-1.42h1.42v-1.419h-1.42v1.42Z" stroke-linejoin="round" stroke-linecap="round" stroke="#fff" fill="transparent"/></g></g></svg>