<svg xmlns="http://www.w3.org/2000/svg" width="33.22" height="39.864" viewBox="128.514 303.514 33.22 39.864"><g data-name="Group 24955"><path d="M145.124 320.124a5.82 5.82 0 0 0-5.814 5.813 5.82 5.82 0 0 0 5.814 5.814 5.82 5.82 0 0 0 5.813-5.814 5.82 5.82 0 0 0-5.813-5.813Zm0 8.305a2.495 2.495 0 0 1-2.492-2.492 2.495 2.495 0 0 1 2.492-2.491 2.495 2.495 0 0 1 2.491 2.491 2.495 2.495 0 0 1-2.491 2.492Zm13.203-15.72-5.787-5.79a11.557 11.557 0 0 0-8.222-3.405h-7.5c-4.579 0-8.304 3.726-8.304 8.305v23.254c0 4.58 3.725 8.305 8.305 8.305h16.61c4.58 0 8.305-3.726 8.305-8.305V320.93a11.55 11.55 0 0 0-3.407-8.222Zm-2.348 2.35a8.271 8.271 0 0 1 1.337 1.745h-7.21a1.663 1.663 0 0 1-1.662-1.661v-7.213a8.324 8.324 0 0 1 1.746 1.338l5.787 5.79Zm-15.552 24.999a4.99 4.99 0 0 1 4.697-3.322 4.99 4.99 0 0 1 4.697 3.322h-9.394Zm17.985-4.983a4.99 4.99 0 0 1-4.983 4.983h-.168c-.772-3.786-4.127-6.644-8.137-6.644-4.01 0-7.367 2.858-8.137 6.644h-.168a4.99 4.99 0 0 1-4.983-4.983v-23.256a4.99 4.99 0 0 1 4.983-4.983h7.5c.27 0 .54.013.805.038v8.267a4.99 4.99 0 0 0 4.983 4.983h8.267c.025.266.038.535.038.806v14.143Z" fill="#fff" fill-rule="evenodd" data-name="Path 62475"/></g></svg>