<svg xmlns="http://www.w3.org/2000/svg" width="28.185" height="26" viewBox="1230.908 13 28.185 26"><g data-name="Group 22"><path d="M1237.183 28.216a.55.55 0 0 0 .458-.855 5.505 5.505 0 1 1 9.962-4.255.55.55 0 0 0 1.073-.243 6.606 6.606 0 1 0-11.953 5.106.55.55 0 0 0 .46.247Zm5.05-12.043a.55.55 0 0 0 .551-.55V13.55a.55.55 0 0 0-1.1 0v2.072c0 .304.246.55.55.55Zm-4.828.89a.55.55 0 0 0 .954-.55l-1.036-1.794a.55.55 0 1 0-.954.55l1.036 1.794Zm-4.778 2.352 1.794 1.036a.55.55 0 1 0 .55-.953l-1.794-1.036a.55.55 0 1 0-.55.953Zm1.453 4.911a.55.55 0 0 0-.55-.55h-2.072a.55.55 0 0 0 0 1.1h2.072a.55.55 0 0 0 .55-.55Zm1.093 4.077a.55.55 0 0 0-.752-.202l-1.794 1.036a.55.55 0 1 0 .55.954l1.794-1.036a.55.55 0 0 0 .202-.752Zm14.6-7.878a.548.548 0 0 0 .274-.074l1.794-1.036a.55.55 0 1 0-.55-.953l-1.794 1.035a.55.55 0 0 0 .275 1.028Zm-3.463-3.26a.55.55 0 0 0 .752-.202l1.036-1.794a.55.55 0 1 0-.953-.55l-1.036 1.794a.55.55 0 0 0 .201.752Zm9.446 12.856a5.262 5.262 0 0 0-9.623-3.853 4.163 4.163 0 0 0-5.379 2.242 5.284 5.284 0 1 0-.9 10.49h14.721a4.518 4.518 0 0 0 1.181-8.879Zm-1.181 7.778h-14.72a4.183 4.183 0 1 1 1.11-8.216.55.55 0 0 0 .675-.381 3.062 3.062 0 0 1 4.453-1.835.55.55 0 0 0 .767-.239 4.162 4.162 0 0 1 7.69 3.142.55.55 0 0 0 .453.723 3.417 3.417 0 0 1-.428 6.806Z" fill="#8f752e" fill-rule="evenodd" data-name="Path 14"/></g></svg>