<svg xmlns="http://www.w3.org/2000/svg" width="28.185" height="26" viewBox="1230.908 13 28.185 26"><g data-name="Group 22"><path d="M1237.183 28.216a.55.55 0 0 0 .459-.855 5.505 5.505 0 1 1 9.961-4.255.55.55 0 0 0 1.074-.243 6.606 6.606 0 1 0-11.953 5.106.55.55 0 0 0 .46.247Zm5.051-12.043a.55.55 0 0 0 .55-.55V13.55a.55.55 0 0 0-1.1 0v2.071c0 .304.246.55.55.55Zm-4.828.89a.55.55 0 0 0 .953-.55l-1.036-1.794a.55.55 0 1 0-.953.55l1.036 1.795Zm-4.779 2.352 1.794 1.036a.55.55 0 1 0 .55-.953l-1.793-1.036a.55.55 0 1 0-.55.953Zm1.454 4.911a.55.55 0 0 0-.55-.55h-2.072a.55.55 0 0 0 0 1.1h2.071a.55.55 0 0 0 .55-.55Zm1.092 4.077a.55.55 0 0 0-.752-.201l-1.794 1.035a.55.55 0 1 0 .55.954l1.795-1.036a.55.55 0 0 0 .201-.752Zm14.6-7.878a.548.548 0 0 0 .275-.074l1.794-1.036a.55.55 0 1 0-.55-.953l-1.795 1.035a.55.55 0 0 0 .276 1.028Zm-3.462-3.26a.55.55 0 0 0 .752-.201l1.036-1.795a.55.55 0 1 0-.954-.55l-1.036 1.794a.55.55 0 0 0 .202.752Zm9.446 12.856a5.262 5.262 0 0 0-9.624-3.853 4.163 4.163 0 0 0-5.378 2.242 5.284 5.284 0 1 0-.9 10.49h14.72a4.518 4.518 0 0 0 1.182-8.879Zm-1.182 7.778h-14.72a4.183 4.183 0 1 1 1.11-8.216.55.55 0 0 0 .676-.381 3.062 3.062 0 0 1 4.452-1.835.55.55 0 0 0 .767-.239 4.162 4.162 0 0 1 7.69 3.142.55.55 0 0 0 .453.723 3.417 3.417 0 0 1-.428 6.806Z" fill="#fff" fill-rule="evenodd" data-name="Path 14"/></g></svg>