<svg xmlns="http://www.w3.org/2000/svg" width="36.859" height="42.318" viewBox="1471.783 2200.834 36.859 42.318"><g data-name="Group 42"><path d="m1488.05 2201.165-4.052 15.108h-8.667a.44.44 0 0 0-.34.157l-3.1 3.708a.44.44 0 0 0-.102.362v4.874c0 .244.198.441.441.441h2.66v16.897c0 .245.196.44.44.44h29.765c.245 0 .44-.195.44-.44v-16.899h2.66a.44.44 0 0 0 .441-.44v-4.875a.44.44 0 0 0-.103-.362h-.003l-3.097-3.704a.44.44 0 0 0-.336-.157h-8.632l3.22-11.995a.44.44 0 0 0-.311-.538l-10.782-2.887c-.291-.077-.475.065-.542.31Zm.739.653 9.93 2.657-3.665 13.654h-10.642l4.377-16.311Zm2.611 3.415 3.345.895c.572.156.802-.702.229-.852l-3.345-.894c-.563-.152-.81.695-.229.851Zm-1.203 1.6 4.792 1.28c.585.185.825-.717.228-.85l-4.793-1.282c-.574-.155-.808.695-.228.852Zm-1.387 3.466-1.284 4.785a.44.44 0 0 0 .312.538l4.79 1.283a.44.44 0 0 0 .54-.312l1.284-4.785a.44.44 0 0 0 0-.231l.623-.612c.437-.438-.2-1.045-.617-.629l-.812.8-4.296-1.15c-.285-.077-.48.084-.54.313Zm.738.653 3.366.899-1.835 1.805-.777-.775c-.416-.433-1.056.208-.622.623l1.085 1.085a.44.44 0 0 0 .62 0l1.913-1.88-.865 3.228-3.941-1.054 1.056-3.931Zm-14.01 6.2h8.225l-.261.977h-1.218c-.59-.003-.59.886 0 .881 5.281.015 10.582 0 15.86 0 .59.005.59-.884 0-.881h-2.176l.26-.974h8.661l2.363 2.824h-34.077l2.363-2.826Zm-2.866 3.709h35.083v4.073h-35.083v-4.073Zm3.1 4.954h28.882v16.456h-28.883l.002-16.456Zm2.04 4.072a.44.44 0 0 0-.441.44v3.716c0 .245.195.44.44.44h3.72c.246 0 .442-.195.442-.44v-3.716a.44.44 0 0 0-.441-.44h-3.72Zm.441.88h2.838v2.835h-2.84l.002-2.834Zm-.44 5.313a.44.44 0 0 0-.442.44v3.716c0 .245.195.44.44.44h3.72c.246 0 .442-.195.442-.44v-3.716a.44.44 0 0 0-.441-.44h-3.72Zm.44.881h2.838v2.835h-2.84l.002-2.835Zm20.64.356c-.569.016-.569.863 0 .88h3.722c.607.019.607-.9 0-.88h-3.721Zm-2.48 2.475c-.602-.014-.602.898 0 .882h6.202c.602.016.602-.895 0-.882h-6.202Z" fill="#fff" fill-rule="evenodd" data-name="Path 36"/></g></svg>