<svg xmlns="http://www.w3.org/2000/svg" width="41.639" height="41.637" viewBox="542.885 1707.824 41.639 41.637"><g data-name="Group 89"><path d="M544.005 1743.655a6.1 6.1 0 0 1-1.116-3.754 6.099 6.099 0 0 1 1.79-4.104l2.72-2.721a16.86 16.86 0 0 1-.488-6.315.61.61 0 0 1 1.212.135 15.642 15.642 0 0 0 .284 5.172l.873-.873a2.356 2.356 0 0 1 1.676-.694c.635 0 1.231.247 1.678.694.924.925.924 2.43 0 3.354l-2.292 2.29a15.8 15.8 0 0 0 2.278 2.884 15.685 15.685 0 0 0 14.513 4.216l-.874-.874a2.356 2.356 0 0 1-.695-1.676c0-.635.247-1.23.695-1.677a2.376 2.376 0 0 1 3.354 0l2.294 2.294a15.785 15.785 0 0 0 5.275-5.337c.006-.013.011-.027.019-.039.255-.432.49-.877.702-1.332.302-.645.56-1.31.771-1.99.01-.03.021-.06.036-.087.594-1.95.803-3.97.619-6.009a.61.61 0 1 1 1.215-.11 16.864 16.864 0 0 1-.592 6.22l2.627 2.626a6.103 6.103 0 0 1 1.788 4.082 6.096 6.096 0 0 1-1.09 3.739l.062.061c.459.459.711 1.068.711 1.717 0 .648-.252 1.258-.711 1.717l-1.131 1.13a2.42 2.42 0 0 1-1.717.71 2.42 2.42 0 0 1-1.716-.71l-.055-.054a6.08 6.08 0 0 1-4.65 1.017.61.61 0 1 1 .222-1.2 4.882 4.882 0 0 0 3.549-.696l-1.285-1.285a2.412 2.412 0 0 1-.638-1.123c-.901.625-2.151.538-2.953-.265l-1.58-1.58-.003-.003-2.632-2.63a1.154 1.154 0 0 0-1.63 0 1.141 1.141 0 0 0-.336.814c0 .305.12.598.337.814l1.627 1.626.007.007 2.968 2.968c.161.161.333.311.515.449a.61.61 0 1 1-.736.972 6.133 6.133 0 0 1-.641-.559l-2.72-2.72a16.911 16.911 0 0 1-9.105-.07l-2.638 2.639a6.103 6.103 0 0 1-4.33 1.793 6.096 6.096 0 0 1-3.492-1.095l-.062.061a2.42 2.42 0 0 1-1.716.71 2.42 2.42 0 0 1-1.717-.71l-1.13-1.13a2.412 2.412 0 0 1-.712-1.717c0-.649.253-1.258.712-1.717l.054-.055Zm39.144-3.576a4.886 4.886 0 0 0-1.432-3.268l-2.195-2.194c-.289.766-.634 1.51-1.031 2.225l1.21 1.21c.437.437.678 1.018.678 1.635 0 .465-.136.91-.39 1.286.429.106.82.326 1.131.638l1.278 1.279c.527-.833.791-1.81.75-2.811Zm-5.73 5.234 1.772 1.773h.001l.445.446c.471.47 1.238.47 1.709 0l1.13-1.13a1.2 1.2 0 0 0 .355-.855 1.2 1.2 0 0 0-.354-.854l-.437-.436-.004-.005-1.778-1.778a1.204 1.204 0 0 0-1.704-.003l-1.081 1.08-.055.054a1.2 1.2 0 0 0-.353.854c-.001.32.126.628.353.854Zm-3.592-1.387c.205.206.483.321.773.32.291 0 .566-.114.772-.32l1.178-1.178.006-.006.527-.526.604-.604.004-.004 1.148-1.148c.206-.204.321-.482.32-.773 0-.291-.113-.565-.32-.771l-1-1.001c-.558.845-1.19 1.64-1.889 2.373l.314.313a.61.61 0 1 1-.863.863l-.324-.324a16.93 16.93 0 0 1-2.286 1.75l1.036 1.036Zm-22.056-11.869a1.14 1.14 0 0 0-.814-.336c-.308 0-.598.12-.815.337l-4.601 4.601c-1.64 1.64-1.88 4.213-.657 6.117l1.285-1.285c.31-.31.698-.53 1.123-.636a2.296 2.296 0 0 1-.413-1.32c0-.617.24-1.198.677-1.635l4.215-4.214a1.153 1.153 0 0 0 0-1.629Zm.29 8.825-.317.317a.61.61 0 0 1-.862-.863l.328-.328a16.978 16.978 0 0 1-1.752-2.284l-1.04 1.039c-.205.204-.32.482-.32.772 0 .292.114.566.32.773l1.181 1.18.003.003 1.131 1.131.004.003 1.148 1.15a1.095 1.095 0 0 0 1.545 0l1.009-1.009a16.9 16.9 0 0 1-2.377-1.884Zm.206 7.202a4.888 4.888 0 0 0 3.268-1.432l2.2-2.2a16.857 16.857 0 0 1-2.227-1.03l-1.215 1.215a2.316 2.316 0 0 1-2.92.288 2.416 2.416 0 0 1-.64 1.13l-1.277 1.278a4.89 4.89 0 0 0 2.811.751Zm-7.454-1.803 1.131 1.13c.47.471 1.237.472 1.708 0l2.219-2.218c.227-.226.355-.533.354-.854a1.2 1.2 0 0 0-.353-.852l-1.134-1.135a1.204 1.204 0 0 0-.852-.351c-.31 0-.619.117-.854.353l-1.783 1.783h-.001l-.435.435a1.2 1.2 0 0 0-.354.855c0 .323.126.626.354.854Zm0 0" fill="#836b2a" fill-rule="evenodd" data-name="Path 116"/><path d="M578.13 1726.085a2.355 2.355 0 0 1-1.676.694c-.635 0-1.231-.247-1.678-.694a2.375 2.375 0 0 1 0-3.354l2.302-2.302a15.726 15.726 0 0 0-2.102-2.701.659.659 0 0 1-.104-.11l-.073-.072a15.744 15.744 0 0 0-3.015-2.358.617.617 0 0 1-.091-.045 15.608 15.608 0 0 0-3.321-1.473.592.592 0 0 1-.102-.043 15.67 15.67 0 0 0-8.007-.293l.884.884c.448.448.695 1.044.695 1.676a2.373 2.373 0 0 1-4.048 1.677l-2.299-2.299a15.769 15.769 0 0 0-5.385 5.545c-.268.466-1.03 2.077-1.36 3.092a.603.603 0 0 1-.042.132v.002c-.123.405-.366.362-.558.362a.61.61 0 0 1-.43-.179l-2.893-2.89a6.101 6.101 0 0 1-1.788-4.082 6.097 6.097 0 0 1 1.09-3.74l-.061-.06a2.412 2.412 0 0 1-.711-1.718c0-.648.252-1.258.71-1.716l1.132-1.131a2.43 2.43 0 0 1 3.433 0l.054.055a6.097 6.097 0 0 1 3.756-1.116 6.103 6.103 0 0 1 4.104 1.789l2.71 2.71a16.887 16.887 0 0 1 9.132.063l2.625-2.624a6.103 6.103 0 0 1 4.082-1.788 6.099 6.099 0 0 1 3.74 1.09l.06-.062a2.431 2.431 0 0 1 3.434 0l1.13 1.13a2.41 2.41 0 0 1 .712 1.717c0 .649-.253 1.259-.712 1.717l-.055.055a6.104 6.104 0 0 1 1.117 3.754 6.1 6.1 0 0 1-1.79 4.105l-4.601 4.6Zm-27.254-11.57-.025.026-2.283 2.282c-.206.204-.321.483-.32.773 0 .292.113.566.32.772l1.003 1.003a17.007 17.007 0 0 1 1.885-2.376l-.313-.313a.61.61 0 1 1 .862-.863l.323.323a16.92 16.92 0 0 1 2.283-1.753l-1.032-1.032a1.094 1.094 0 0 0-1.545 0l-1.158 1.158Zm-6.618 2.69a4.885 4.885 0 0 0 1.431 3.267l2.21 2.21c.314-.83.774-1.762 1.023-2.234l-1.216-1.217a2.295 2.295 0 0 1-.678-1.635c0-.465.136-.908.39-1.286a2.413 2.413 0 0 1-1.132-.638l-1.278-1.278a4.882 4.882 0 0 0-.75 2.81Zm2.657-7.807c-.31 0-.618.118-.854.353l-1.131 1.131a1.2 1.2 0 0 0-.354.854c0 .323.126.626.354.854l.444.444c0 .002.003.003.004.004l1.77 1.771c.472.471 1.238.471 1.709 0l1.13-1.13a1.21 1.21 0 0 0 .001-1.709l-2.219-2.219a1.202 1.202 0 0 0-.854-.353Zm8.768 1.081c-1.64-1.64-4.213-1.88-6.117-.656l1.285 1.285c.31.31.53.698.636 1.123.901-.626 2.152-.54 2.955.264l4.214 4.214a1.153 1.153 0 0 0 1.966-.815c0-.306-.12-.595-.338-.813l-4.6-4.602Zm23.308 8.038c.206-.204.32-.482.32-.772 0-.292-.113-.566-.32-.773l-3.467-3.466a1.094 1.094 0 0 0-1.545 0l-.996.996a17.011 17.011 0 0 1 2.375 1.887l.308-.308a.61.61 0 0 1 .862.863l-.317.316c.648.71 1.234 1.475 1.751 2.286l1.029-1.03Zm-3.848-9.32a4.886 4.886 0 0 0-3.268 1.43l-2.191 2.193c.765.289 1.51.633 2.225 1.03l1.207-1.207a2.316 2.316 0 0 1 2.92-.287c.105-.425.323-.814.64-1.131l1.278-1.278a4.885 4.885 0 0 0-2.81-.75Zm7.454 1.802-1.131-1.13a1.203 1.203 0 0 0-.854-.354c-.31 0-.619.118-.854.353l-.442.442-.007.007-1.77 1.77a1.2 1.2 0 0 0-.354.854c0 .323.125.626.354.854l1.13 1.131a1.21 1.21 0 0 0 1.709 0l2.219-2.218c.227-.226.355-.534.354-.855 0-.32-.127-.628-.354-.854Zm-.072 3.505-1.284 1.285c-.31.31-.698.53-1.124.636.269.385.414.841.414 1.32 0 .617-.241 1.198-.677 1.635l-4.215 4.214a1.153 1.153 0 0 0 .815 1.965c.305.001.598-.12.813-.337l4.602-4.601c1.64-1.64 1.88-4.212.656-6.117Zm-10.602 16.287 2.993 2.653c.472.419.516 1.144.098 1.616l-1.65 1.86-.005.007-.004.004-1.582 1.785c-.226.255-.541.385-.858.385a1.14 1.14 0 0 1-.758-.288l-2.994-2.653a1.146 1.146 0 0 1-.097-1.616l3.24-3.656a1.146 1.146 0 0 1 1.617-.097Zm-.753.962-1.176 1.327 2.863 2.575 1.194-1.348-2.881-2.554Zm-.26 6.098 1.137-1.284-2.863-2.574-1.156 1.303 2.882 2.555Zm0 0" fill="#836b2a" fill-rule="evenodd" data-name="Path 117"/><path d="m557.02 1718.683 4.295 3.806c.246.218.396.525.415.853.02.327-.091.65-.31.895l-3.117 3.516a1.23 1.23 0 0 1-.928.417c-.303 0-.591-.11-.82-.312l-4.294-3.806a1.23 1.23 0 0 1-.414-.852c-.021-.328.09-.65.31-.896l3.116-3.515a1.24 1.24 0 0 1 1.748-.106Zm-3.956 4.444c0 .008.004.01.006.012l4.295 3.806c.002.002.004.006.013.005.007 0 .01-.004.012-.006l3.117-3.516a.016.016 0 0 0 .005-.013.017.017 0 0 0-.006-.013l-4.294-3.806a.018.018 0 0 0-.026.002l-3.117 3.516c-.002.002-.005.006-.005.013Zm0 0" fill="#836b2a" fill-rule="evenodd" data-name="Path 118"/></g></svg>