<svg xmlns="http://www.w3.org/2000/svg" width="29.745" height="29.745" viewBox="1104.507 2365.343 29.745 29.745"><g data-name="Group 87"><g data-name="08-Birthday"><path d="M1119.38 2380.216c.821 0 1.487-.666 1.487-1.488 0-.634-.753-1.794-1.08-2.265a.496.496 0 0 0-.814 0c-.327.47-1.08 1.63-1.08 2.265 0 .822.665 1.488 1.487 1.488Zm0-2.553c.22.326.388.686.496 1.065a.496.496 0 1 1-.992 0c.109-.379.276-.738.496-1.065Zm-4.958 2.553c.822 0 1.488-.666 1.488-1.488 0-.634-.754-1.794-1.081-2.265a.496.496 0 0 0-.813 0c-.327.47-1.08 1.63-1.08 2.265 0 .822.665 1.488 1.486 1.488Zm0-2.553c.221.326.389.686.496 1.065a.496.496 0 0 1-.991 0c.108-.379.275-.738.495-1.065Zm-1.487 6.023h-.991c-.822 0-1.488.666-1.488 1.487v6.445c0 .274.222.496.496.496h16.856a.496.496 0 0 0 .495-.496v-6.445c0-.821-.666-1.487-1.487-1.487h-.991v-2.479a.496.496 0 0 0-.496-.496h-1.983a.496.496 0 0 0-.496.496v2.479h-1.983v-2.479a.496.496 0 0 0-.496-.496h-1.983a.496.496 0 0 0-.495.496v2.479h-1.983v-2.479a.496.496 0 0 0-.496-.496h-1.983a.496.496 0 0 0-.496.496v2.479Zm14.377 7.436h-15.864v-3.47c.277 0 .396.109.64.352a1.73 1.73 0 0 0 2.686 0c.243-.243.362-.352.64-.352.277 0 .396.109.64.352a1.73 1.73 0 0 0 2.686 0c.243-.243.362-.352.64-.352.277 0 .396.109.64.352a1.73 1.73 0 0 0 2.686 0c.243-.243.362-.352.64-.352.277 0 .396.109.64.352a1.73 1.73 0 0 0 2.686 0c.243-.243.362-.352.64-.352v3.47Zm0-5.949v1.487c-.52.008-1.01.241-1.344.64-.243.243-.362.352-.64.352-.277 0-.396-.11-.639-.352a1.73 1.73 0 0 0-2.687 0c-.243.243-.362.352-.64.352-.277 0-.396-.11-.639-.352a1.73 1.73 0 0 0-2.687 0c-.243.243-.362.352-.64.352-.277 0-.396-.11-.639-.352a1.73 1.73 0 0 0-2.687 0c-.243.243-.362.352-.64.352-.277 0-.396-.11-.639-.352a1.785 1.785 0 0 0-1.343-.64v-1.487c0-.274.222-.496.496-.496h14.872c.274 0 .496.222.496.496Zm-3.47-3.47h.991v1.983h-.991v-1.983Zm-4.958 0h.992v1.983h-.992v-1.983Zm-3.966 0v1.983h-.991v-1.983h.991Zm9.42-1.487c.82 0 1.487-.666 1.487-1.488 0-.634-.754-1.794-1.081-2.265a.496.496 0 0 0-.813 0c-.327.47-1.08 1.63-1.08 2.265 0 .822.665 1.488 1.486 1.488Zm0-2.553c.22.326.388.686.495 1.065a.496.496 0 1 1-.991 0c.108-.379.275-.738.495-1.065Z" fill="#fff" fill-rule="evenodd" data-name="Path 112"/><path d="M1132.765 2367.822h-2.974v-.991a1.487 1.487 0 1 0-2.975 0v.991h-2.974v-.991a1.487 1.487 0 0 0-2.975 0v.991h-2.974v-.991a1.487 1.487 0 1 0-2.975 0v.991h-2.974v-.991a1.487 1.487 0 1 0-2.975 0v.991h-2.974c-.822 0-1.488.666-1.488 1.487v7.436a.496.496 0 0 0 .992 0v-2.478h27.762v15.368a.496.496 0 0 0 .991 0v-20.326c0-.821-.666-1.487-1.487-1.487Zm-4.957-.991a.496.496 0 1 1 .991 0v2.974a.496.496 0 0 1-.991 0v-2.974Zm-5.95 0a.496.496 0 0 1 .992 0v2.974a.496.496 0 1 1-.991 0v-2.974Zm-5.948 0a.496.496 0 0 1 .991 0v2.974a.496.496 0 0 1-.991 0v-2.974Zm-5.95 0a.496.496 0 1 1 .992 0v2.974a.496.496 0 0 1-.991 0v-2.974Zm-4.461 6.444v-3.966c0-.274.222-.496.496-.496h2.974v.992a1.487 1.487 0 0 0 2.975 0v-.992h2.974v.992a1.487 1.487 0 0 0 2.975 0v-.992h2.974v.992a1.487 1.487 0 0 0 2.975 0v-.992h2.974v.992a1.487 1.487 0 0 0 2.975 0v-.992h2.974c.274 0 .496.222.496.496v3.966h-27.762Zm28.258 17.847a.496.496 0 0 0-.496.496v1.983a.496.496 0 0 1-.496.496h-26.77a.496.496 0 0 1-.496-.496v-14.873a.496.496 0 0 0-.992 0v14.873c0 .821.666 1.487 1.488 1.487h26.77c.821 0 1.487-.666 1.487-1.487v-1.983a.496.496 0 0 0-.495-.496Z" fill="#fff" fill-rule="evenodd" data-name="Path 113"/></g></g></svg>