<svg xmlns="http://www.w3.org/2000/svg" width="20.841" height="20.841" viewBox="1121.379 2139.045 20.841 20.841"><g data-name="Group 88"><path d="M1139.955 2140.862v-.458a1.36 1.36 0 1 0-2.719 0v.453h-1.812v-.453a1.36 1.36 0 0 0-2.718 0v.453h-1.813v-.453a1.36 1.36 0 1 0-2.718 0v.453h-1.812v-.453a1.36 1.36 0 1 0-2.719 0v.458a2.31 2.31 0 0 0-2.265 2.306v14.407a2.313 2.313 0 0 0 2.31 2.31h16.22a2.313 2.313 0 0 0 2.31-2.31v-14.407a2.31 2.31 0 0 0-2.264-2.306Zm-1.813-.458a.453.453 0 1 1 .906 0v2.719a.453.453 0 0 1-.906 0v-2.719Zm-4.53 0a.453.453 0 0 1 .906 0v2.719a.453.453 0 0 1-.906 0v-2.719Zm-4.53 0a.453.453 0 0 1 .905 0v2.719a.453.453 0 1 1-.906 0v-2.719Zm-4.531 0a.453.453 0 0 1 .906 0v2.719a.453.453 0 0 1-.906 0v-2.719Zm-.907 1.364v1.355a1.36 1.36 0 0 0 2.719 0v-1.36h1.812v1.36a1.36 1.36 0 1 0 2.718 0v-1.36h1.813v1.36a1.36 1.36 0 1 0 2.718 0v-1.36h1.812v1.36a1.36 1.36 0 1 0 2.719 0v-1.355a1.404 1.404 0 0 1 1.359 1.4v2.22h-19.029v-2.22a1.404 1.404 0 0 1 1.36-1.4Zm16.265 17.212h-16.22a1.406 1.406 0 0 1-1.404-1.405v-11.28h19.029v11.28a1.406 1.406 0 0 1-1.405 1.405Z" fill="#fff" fill-rule="evenodd" data-name="Path 114"/><path d="M1137.236 2152.637a2.265 2.265 0 1 0 0 4.53 2.265 2.265 0 0 0 0-4.53Zm0 3.624a1.36 1.36 0 1 1 0-2.718 1.36 1.36 0 0 1 0 2.718Zm-5.436-3.624a2.265 2.265 0 1 0 0 4.53 2.265 2.265 0 0 0 0-4.53Zm0 3.624a1.36 1.36 0 1 1 0-2.718 1.36 1.36 0 0 1 0 2.718Zm-5.437-3.624a2.265 2.265 0 1 0 0 4.53 2.265 2.265 0 0 0 0-4.53Zm0 3.624a1.36 1.36 0 1 1 0-2.718 1.36 1.36 0 0 1 0 2.718Zm10.873-9.06a2.265 2.265 0 1 0 0 4.53 2.265 2.265 0 0 0 0-4.53Zm0 3.624a1.36 1.36 0 1 1 0-2.719 1.36 1.36 0 0 1 0 2.719Zm-5.436-3.625a2.265 2.265 0 1 0 0 4.53 2.265 2.265 0 0 0 0-4.53Zm0 3.625a1.36 1.36 0 1 1 0-2.719 1.36 1.36 0 0 1 0 2.719Zm-5.437-3.625a2.265 2.265 0 1 0 0 4.53 2.265 2.265 0 0 0 0-4.53Zm0 3.625a1.36 1.36 0 1 1 0-2.719 1.36 1.36 0 0 1 0 2.719Z" fill="#fff" fill-rule="evenodd" data-name="Path 115"/></g></svg>