<svg xmlns="http://www.w3.org/2000/svg" width="32.924" height="29.051" viewBox="1088.292 1713.093 32.924 29.051"><g data-name="Group 90"><path d="M1101.03 1736.184h-7.524a.745.745 0 1 0 0 1.49h7.523a.745.745 0 0 0 0-1.49Zm11.247 0h-7.523a.745.745 0 1 0 0 1.49h7.523a.745.745 0 0 0 0-1.49Zm0-18.622h-18.771a.745.745 0 1 0 0 1.49h18.771a.745.745 0 0 0 0-1.49Zm0 3.725h-7.523a.745.745 0 1 0 0 1.49h7.523a.745.745 0 0 0 0-1.49Zm0 3.724h-7.523a.745.745 0 1 0 0 1.49h7.523a.745.745 0 0 0 0-1.49Zm0 3.725h-7.523a.745.745 0 1 0 0 1.49h7.523a.745.745 0 0 0 0-1.49Zm0 3.724h-7.523a.745.745 0 1 0 0 1.49h7.523a.745.745 0 0 0 0-1.49Zm-11.248 0h-7.523a.745.745 0 1 0 0 1.49h7.523a.745.745 0 1 0 0-1.49Zm0-11.173h-7.523a.745.745 0 0 0-.745.744v7.524c0 .411.333.745.745.745h7.523a.745.745 0 0 0 .745-.745v-7.524a.745.745 0 0 0-.745-.744Zm-.745 7.523h-6.033v-6.034h6.033v6.034Z" fill="#836b2a" fill-rule="evenodd" data-name="Path 119"/><path d="M1119.726 1716.817h-2.235v-2.234c0-.822-.668-1.49-1.49-1.49h-26.22c-.821 0-1.49.668-1.49 1.49v23.836a3.729 3.729 0 0 0 3.725 3.725h25.475a3.729 3.729 0 0 0 3.725-3.725v-20.112c0-.821-.669-1.49-1.49-1.49Zm0 21.602a2.237 2.237 0 0 1-2.235 2.235h-25.475a2.237 2.237 0 0 1-2.235-2.235v-23.836h26.22v22.719c0 1.027.836 1.862 1.863 1.862a.745.745 0 0 0 0-1.49.373.373 0 0 1-.373-.372v-18.995h2.235v20.112Z" fill="#836b2a" fill-rule="evenodd" data-name="Path 120"/></g></svg>