<svg xmlns="http://www.w3.org/2000/svg" width="59.857" height="56" viewBox="378.957 1471.317 59.857 56"><g data-name="Group 24876"><g data-name="Group 24859"><path d="M396.903 1492.293a.933.933 0 0 0-1.787.056c-.767 2.953-1.602 7.523-1.228 12.529a.93.93 0 0 0 1.113.843l3.85-.787c.323-.073.625-.167.898-.26a.93.93 0 0 0 .62-1c-.423-3.26-1.42-5.874-2.384-8.4-.392-1.025-.76-1.992-1.082-2.98Zm25.752.056a.931.931 0 0 0-.874-.697.922.922 0 0 0-.913.641c-.322.99-.691 1.956-1.081 2.98-.964 2.527-1.96 5.14-2.384 8.4a.93.93 0 0 0 .62 1c.272.094.575.187.917.264l3.83.783a.93.93 0 0 0 1.113-.843c.373-5.005-.462-9.575-1.228-12.528Z" fill="#e1e1e3" fill-rule="evenodd" data-name="Path 62373"/></g><path d="M416.03 1498.311a.931.931 0 0 0-1.534-.863c-1.803 1.605-4.005 2.642-5.611 2.642-1.303 0-3.543-.828-5.58-2.651a.931.931 0 0 0-1.576.824c.315 1.729.508 3.335.592 4.91.017.291.168.558.408.721 1.747 1.183 3.818 1.782 6.156 1.782 2.338 0 4.409-.6 6.154-1.78a.931.931 0 0 0 .408-.726c.075-1.528.266-3.118.583-4.859Z" fill="#c8c6cc" fill-rule="evenodd" data-name="Path 62374"/><g data-name="Group 24860"><path d="M390.937 1503.337a1.044 1.044 0 0 0-1.166-.29c-5.515 2.11-7.35 7.099-10.795 23.157a.887.887 0 0 0 .207.772c.19.216.472.341.77.342h28.932c.382 0 .73-.203.897-.523a.88.88 0 0 0-.11-.981l-18.735-22.477Zm37.062-.288a1.042 1.042 0 0 0-1.165.29l-15.743 18.882a.883.883 0 0 0-.001 1.143l2.993 3.594c.188.227.48.36.788.36h22.946c.298 0 .581-.126.77-.342a.887.887 0 0 0 .207-.772c-3.444-16.058-5.28-21.046-10.795-23.155Z" fill="#57555c" fill-rule="evenodd" data-name="Path 62375"/></g><g data-name="Group 24861"><path d="M395.85 1521.73a.931.931 0 0 0-.932.932v4.656h1.863v-4.656a.931.931 0 0 0-.932-.931Zm26.071 0a.931.931 0 0 0-.931.932v4.656h1.862v-4.656a.931.931 0 0 0-.931-.931Z" fill="#3c3b41" fill-rule="evenodd" data-name="Path 62376"/></g><g data-name="Group 24862"><path d="M415.449 1501.537a.931.931 0 0 0-1.453-.82c-1.432.97-3.152 1.46-5.11 1.46-1.96 0-3.68-.49-5.112-1.46a.934.934 0 0 0-1.452.82c.027.514.045 1.039.045 1.571 0 4.181 0 6.943 1.344 10.88a.955.955 0 0 0 .146.27l4.293 5.522a.931.931 0 0 0 1.47 0l4.292-5.522a.955.955 0 0 0 .147-.271c1.344-3.936 1.344-6.698 1.344-10.879 0-.532.019-1.057.046-1.571Zm-15.082.286a.934.934 0 0 0-1.227-.76 6.84 6.84 0 0 1-.684.202l-2.589.53a.93.93 0 0 0-.547 1.485l3.482 4.478a.931.931 0 0 0 1.654-.425 5.21 5.21 0 0 0 .046-.43v-.002a24.732 24.732 0 0 0-.135-5.078Zm22.084 1.458a.93.93 0 0 0-.548-1.485l-2.57-.527a6.786 6.786 0 0 1-.704-.205.932.932 0 0 0-1.227.76 24.812 24.812 0 0 0-.136 5.08c.011.146.023.282.047.429a.93.93 0 0 0 1.654.425l3.484-4.477Z" fill="#eee" fill-rule="evenodd" data-name="Path 62377"/></g><path d="M419.96 1476.488c-2.278-4.556-6.876-5.17-11.075-5.17-4.198 0-8.797.614-11.076 5.17a.93.93 0 0 0 .834 1.347h20.484a.932.932 0 0 0 .834-1.347Z" fill="#f5f5f5" fill-rule="evenodd" data-name="Path 62378"/><path d="M408.885 1520.135a.931.931 0 0 1-.93-.931v-19.82a.931.931 0 1 1 1.861 0v19.82a.931.931 0 0 1-.93.93Z" fill="#c8c6cc" fill-rule="evenodd" data-name="Path 62379"/><g data-name="Group 24863"><path d="M435.323 1527.318h-2.075l-.171-.727c-.02-.083-2.025-8.398-3.999-13.873-1.017-2.831-2.87-4.33-4.25-5.094a6.747 6.747 0 0 0-1.027-.475l1.279-1.517c.262.12.524.251.786.39 1.661.932 3.907 2.738 5.126 6.1 2.004 5.568 4.039 13.976 4.059 14.06l.272 1.136Zm-41.353-20.178c-.343.14-.695.298-1.028.484-1.38.764-3.233 2.263-4.25 5.094-1.974 5.475-3.978 13.79-3.998 13.873l-.171.727h-2.075l.272-1.136c.02-.084 2.054-8.492 4.059-14.06 1.218-3.362 3.464-5.168 5.136-6.1.252-.139.514-.27.786-.39l1.269 1.508Z" fill="#ffc473" fill-rule="evenodd" data-name="Path 62380"/></g><path d="M408.885 1481.44c-7.696 0-9.311 3.545-9.311 6.518 0 1.645.49 3.72 1.06 6.122.363 1.532.773 3.27 1.096 5.085.037.205.15.4.305.539 2.138 1.915 4.828 3.152 6.85 3.152 2.068 0 4.692-1.193 6.849-3.113a.93.93 0 0 0 .297-.533c.325-1.828.739-3.579 1.105-5.125.57-2.404 1.06-4.48 1.06-6.127 0-2.973-1.615-6.518-9.31-6.518Z" fill="#f5e0cd" fill-rule="evenodd" data-name="Path 62381"/><path d="M423.59 1480.262c-.167-.343-.549-.565-.972-.564h-27.466c-.423 0-.805.221-.97.564-3.096 6.37-2.263 10.662-.902 14.352.381 1.03.81 2.019 1.262 3.066 1.05 2.425 2.135 4.935 2.583 7.977.23 1.538.276 3.076.142 4.697-.009.096-.016.184-.032.279a.85.85 0 0 0 .21.717l5.736 6.5c.316.36.881.464 1.336.248.454-.216.665-.69.498-1.12-1.412-3.644-1.412-6.142-1.412-10.278 0-.565-.022-1.122-.054-1.67a36.258 36.258 0 0 0-.702-5.14c-.376-1.866-.85-3.63-1.268-5.187-.615-2.29-1.145-4.267-1.145-5.694 0-1.998.876-4.656 8.451-4.656 7.576 0 8.451 2.658 8.451 4.656 0 1.43-.53 3.408-1.146 5.7-.421 1.568-.899 3.347-1.276 5.222-.378 1.823-.604 3.493-.693 5.1a28.85 28.85 0 0 0-.054 1.67c0 4.135 0 6.633-1.411 10.276a.839.839 0 0 0 .14.843c.198.245.518.39.86.39.326 0 .634-.133.834-.36l5.736-6.5a.848.848 0 0 0 .21-.717c-.018-.095-.024-.183-.032-.276a20.225 20.225 0 0 1 .141-4.701c.448-3.042 1.534-5.55 2.583-7.976.453-1.047.881-2.036 1.262-3.066 1.361-3.689 2.195-7.981-.9-14.352Z" fill="#f5f5f5" fill-rule="evenodd" data-name="Path 62382"/><g data-name="Group 24864"><path d="m395.664 1501.686-.57.11-2.502.51c-1.44.353-2.517.76-3.4 1.28l18.464 23.732h7.943l-19.935-25.632Z" fill="#ffc473" fill-rule="evenodd" data-name="Path 62383"/><path d="M396.044 1502.177c.028.037.055.065.074.093-.019-.028-.037-.046-.056-.065Zm.41.53c-.01-.018-.02-.027-.029-.046.038.056.028.047.028.047Z" fill="#ffc473" fill-rule="evenodd" data-name="Path 62384"/></g><path d="M422.611 1475.973H395.16c-1.746 0-3.167 1.253-3.167 2.794 0 1.54 1.421 2.793 3.167 2.793h27.452c1.746 0 3.168-1.253 3.168-2.793 0-1.54-1.422-2.794-3.168-2.794Z" fill="#57555c" fill-rule="evenodd" data-name="Path 62385"/><path d="M428.801 1503.585c-.9-.523-1.944-.923-3.434-1.286l-2.469-.504-.569-.11-13.182 16.95a.932.932 0 0 0 0 1.145l2.794 3.585a.933.933 0 0 0 1.469 0l15.391-19.78Z" fill="#ffc473" fill-rule="evenodd" data-name="Path 62386"/><path d="m410.27 1516.172-1.182 1.518c1.201 1.555 2.523 3.25 3.966 5.102l1.183-1.517-3.967-5.103Z" fill="#ffa91f" fill-rule="evenodd" data-name="Path 62387"/></g></svg>