<svg xmlns="http://www.w3.org/2000/svg" width="56.657" height="56.236" viewBox="181.031 1505.703 56.657 56.236"><g data-name="Group 24879"><path d="M237.689 1511.2v16.328a5.497 5.497 0 0 1-5.497 5.497h-3.006v6.927c0 1.366-1.63 2.072-2.626 1.139l-8.606-8.066h-11.733a5.497 5.497 0 0 1-5.497-5.497V1511.2a5.497 5.497 0 0 1 5.497-5.497h25.97a5.497 5.497 0 0 1 5.498 5.497Z" fill="#9abbfe" fill-rule="evenodd" data-name="Path 62396"/><path d="M217.996 1533.054v14.881a5.481 5.481 0 0 1-5.495 5.493h-11.725l-8.611 8.09c-1.002.928-2.635.222-2.635-1.15v-6.94h-3.006a5.48 5.48 0 0 1-5.492-5.493v-16.328a5.48 5.48 0 0 1 5.492-5.493h14.214v1.41a5.48 5.48 0 0 0 5.493 5.493h11.727Z" fill="#ffbc45" fill-rule="evenodd" data-name="Path 62397"/><path d="M226.628 1517.393h-14.844a1.855 1.855 0 1 1 0-3.71h14.844a1.855 1.855 0 1 1 0 3.71Zm0 7.423h-14.844a1.855 1.855 0 1 1 0-3.711h14.844a1.855 1.855 0 1 1 0 3.71Z" fill="#587fb7" fill-rule="evenodd" data-name="Path 62398"/><path d="M192.834 1541.534c-.26 0-.483-.073-.705-.149a2.514 2.514 0 0 1-.594-.405c-.185-.189-.333-.374-.408-.594a1.667 1.667 0 0 1-.148-.743c0-.483.185-.964.556-1.302.669-.703 1.893-.703 2.598 0 .185.189.334.374.409.595.111.224.148.482.148.707 0 .26-.037.518-.148.743-.074.22-.223.405-.41.594a1.891 1.891 0 0 1-1.298.554Zm7.422 0c-.26 0-.482-.073-.705-.149a2.514 2.514 0 0 1-.594-.405c-.37-.337-.556-.82-.556-1.337 0-.225.037-.483.149-.707.074-.221.222-.406.407-.595.149-.184.372-.293.594-.405.668-.261 1.522-.112 2.003.405.372.337.557.82.557 1.302 0 .518-.185 1-.557 1.337-.147.145-.37.293-.593.405-.222.076-.444.15-.705.15Zm7.423 0a1.89 1.89 0 0 1-1.3-.554c-.37-.337-.556-.82-.556-1.337 0-.483.185-.964.556-1.302.67-.703 1.93-.703 2.598 0 .186.189.334.374.409.595.111.224.149.482.149.707 0 .518-.186 1-.557 1.337a1.894 1.894 0 0 1-1.3.554Z" fill="#9b7b15" fill-rule="evenodd" data-name="Path 62399"/><path d="M192.834 1519.249h-3.711a1.855 1.855 0 1 1 0-3.711h3.71a1.856 1.856 0 0 1 0 3.711Zm37.11 33.4h-3.71a1.855 1.855 0 1 1 0-3.71h3.71a1.855 1.855 0 1 1 0 3.71Z" fill="#e07b2f" fill-rule="evenodd" data-name="Path 62400"/></g></svg>