<svg xmlns="http://www.w3.org/2000/svg" width="62.518" height="62.514" viewBox="521.945 1505.702 62.518 62.514"><g data-name="Group 24877"><path d="M538.095 1506.703h24.976l6.094 6.618v33.48a.855.855 0 0 1-.853.851h-30.217a.855.855 0 0 1-.854-.852v-39.245a.855.855 0 0 1 .854-.852Z" fill="#f4f4f4" fill-rule="evenodd" data-name="Path 62388"/><path d="m563.071 1506.703 6.094 6.618h-5.671a.427.427 0 0 1-.426-.428l.003-6.19Z" fill="#e7e7e7" fill-rule="evenodd" data-name="Path 62389"/><path d="M543.952 1516.667a3.38 3.38 0 0 1 3.38 3.38 3.38 3.38 0 0 1-3.38 3.379 3.38 3.38 0 0 1-3.38-3.38 3.38 3.38 0 0 1 3.38-3.379z" fill="#8ac9fe" fill-rule="evenodd" data-name="Rectangle 8018"/><g data-name="Group 24866"><path d="m532.008 1526.588-9 15.589a.415.415 0 0 0 .152.566l7.436 4.295 9.415-16.306-7.437-4.295a.416.416 0 0 0-.566.15Zm34.385 2.073 9.414 16.307 7.436-4.296a.415.415 0 0 0 .151-.566l-9-15.589a.416.416 0 0 0-.565-.151l-7.436 4.295Z" fill="#737373" fill-rule="evenodd" data-name="Path 62390"/><path d="M563.746 1555.304h-.008Zm-15.649-16.574 1.387-5.196c.132-.493.377-.949.716-1.33l-.589-.341c-2.68-.92-6.27-1.692-9.602-1.135l-9.409 16.31a17.071 17.071 0 0 1 3.558 4.316l.866-1.498a2.826 2.826 0 1 1 4.895 2.825 2.826 2.826 0 1 1 4.894 2.826 2.826 2.826 0 1 1 4.894 2.826 2.825 2.825 0 1 1 4.894 2.826l-1.796 3.11 4.315 2.493a3.31 3.31 0 1 0 3.308-5.734 3.31 3.31 0 1 0 3.318-5.728 3.309 3.309 0 1 0 3.3-5.736 3.319 3.319 0 0 0 4.52-1.21c.157-.27.273-.56.347-.863a3.323 3.323 0 0 0-1.558-3.655l-1.997-1.154-3.594-2.073-7.815-4.509-1.539.368c-1.435.343-2.353 3.226-4.826 6.645-.606.839-1.022 1.652-1.92.327a6.096 6.096 0 0 1-.868-2.327c-.152-.98.057-1.475.301-2.383Z" fill="#ffecc6" fill-rule="evenodd" data-name="Path 62391"/><path d="M563.549 1560.16c.249.144.435.374.523.647a3.319 3.319 0 0 1-3.644.221l-3.73-2.155a1.156 1.156 0 1 1 1.151-2.004l5.7 3.292Zm6.804-11.358c.188.109.342.269.443.461a3.32 3.32 0 0 1-3.75.306l-8.64-4.99a1.159 1.159 0 0 1 1.161-2.005l10.786 6.228Zm-38.97 7.362 3.641-6.302a2.826 2.826 0 1 1 4.895 2.826 2.826 2.826 0 1 1 4.894 2.826 2.825 2.825 0 1 1 4.894 2.826 2.826 2.826 0 1 1 4.894 2.826l-2.226 3.855a2.826 2.826 0 1 1-4.894-2.826l-.706 1.22a2.825 2.825 0 1 1-4.894-2.825l-.353.613a2.826 2.826 0 1 1-4.897-2.822l-.354.613a2.826 2.826 0 1 1-4.894-2.826Z" fill="#fbe1bd" fill-rule="evenodd" data-name="Path 62392"/><path d="M553.987 1557.597a2.837 2.837 0 0 1 .614 3.563l-2.226 3.856a2.837 2.837 0 0 1-3.393 1.25l5.005-8.669Zm-4.894-2.826a2.837 2.837 0 0 1 .614 3.563l-2.227 3.859-.705 1.222a2.837 2.837 0 0 1-3.293 1.283c.016-.161.066-.318.147-.458l5.464-9.469Zm-4.894-2.826a2.837 2.837 0 0 1 .614 3.564l-2.936 5.084-.353.613a2.84 2.84 0 0 1-3.241 1.298c0-.203.052-.402.153-.577l5.763-9.982Zm-4.898-2.828a2.836 2.836 0 0 1 .618 3.566l-3.29 5.698-.354.613a2.836 2.836 0 0 1-2.54 1.404 1.16 1.16 0 0 1-.155-1.373l5.72-9.908Z" fill="#ecd4b4" fill-rule="evenodd" data-name="Path 62393"/><path d="M566.393 1528.661c-3.482-.184-9.476.312-13.468 2.15-.537.253-.705.253-1.229.424a3.345 3.345 0 0 0-1.491.968c-.34.382-.584.838-.716 1.331l-1.386 5.196c-.245.908-.454 1.403-.302 2.38.126.828.42 1.62.865 2.329.899 1.324 1.315.511 1.92-.327 2.474-3.42 3.391-6.302 4.827-6.645l1.539-.368 7.815 4.509 3.593 2.076 1.998 1.153a3.323 3.323 0 0 1 1.558 3.655c1.275-.293 2.773-2.576 3.893-2.527l-9.416-16.304Zm.65 25.87c.188.11.342.27.444.462a3.32 3.32 0 0 1-3.75.306l-6.762-3.907a1.159 1.159 0 0 1 1.162-2.005l8.906 5.145Z" fill="#fbe1bd" fill-rule="evenodd" data-name="Path 62394"/><path d="M551.276 1520.245c0-.556.452-1.008 1.009-1.008h8.949a1.008 1.008 0 0 1 0 2.017h-8.95a1.008 1.008 0 0 1-1.008-1.009Zm0-3.578c0-.557.452-1.008 1.009-1.008h6.292a1.008 1.008 0 1 1 0 2.016h-6.292a1.008 1.008 0 0 1-1.009-1.008Zm0 7.157c0-.557.452-1.009 1.009-1.009h13.55a1.008 1.008 0 0 1 0 2.017h-13.55a1.008 1.008 0 0 1-1.009-1.008Zm-5.398-3.994-1.533 1.764c-.183.21-.446.336-.726.345h-.034c-.267 0-.524-.105-.713-.294l-.798-.798a1.01 1.01 0 0 1 1.424-1.433l.035.035.824-.944a1.008 1.008 0 1 1 1.52 1.325Zm-4.297-2.155v4.742h4.742v-4.742h-4.742Zm5.75 6.759c.557 0 1.008-.452 1.008-1.008v-6.759c0-.557-.451-1.008-1.008-1.008h-6.758c-.557 0-1.009.451-1.009 1.008v6.759c0 .556.452 1.008 1.009 1.008h6.758Zm28.845 19.158-8.406-14.561 6.05-3.494 8.406 14.559-6.05 3.494Zm-3.283 2.078.252-.223c.38-.357.784-.685 1.21-.985l-8.559-14.819c-3.195-.09-8.746.378-12.45 2.081-.319.15-.65.272-.99.363-.102.03-.215.062-.355.106a2.32 2.32 0 0 0-1.008.643c-.02.021-.037.043-.057.063-.22.259-.38.564-.468.892l-1.386 5.196-.104.378c-.18.644-.27.967-.173 1.59.1.682.337 1.336.698 1.923l.01.014.112-.158c.048-.068.097-.139.148-.208a40.76 40.76 0 0 0 2.22-3.498c1.093-1.873 1.883-3.225 3.188-3.536l1.539-.368c.25-.06.515-.022.739.107l13.4 7.738a4.306 4.306 0 0 1 2.031 2.706Zm-2.197 2.183a2.302 2.302 0 0 0-.842-3.143l-13.053-7.537-1.149.275c-.466.11-1.203 1.372-1.915 2.593-.603 1.03-1.352 2.312-2.327 3.662a8.815 8.815 0 0 0-.136.19c-.395.559-.883 1.26-1.746 1.26h-.015c-.813-.009-1.346-.657-1.676-1.143a7.036 7.036 0 0 1-1.034-2.74c-.165-1.056.016-1.7.226-2.445l.097-.352 1.386-5.195c.059-.218.134-.432.226-.639-2.198-.702-5.197-1.35-8.096-.975l-8.76 15.172a18.005 18.005 0 0 1 2.226 2.596l.043-.073a3.833 3.833 0 0 1 7.058 1.09 3.822 3.822 0 0 1 4.893 2.826l.163-.048a3.824 3.824 0 0 1 4.731 2.874 3.824 3.824 0 0 1 4.448 1.695 1.008 1.008 0 0 1 1.174-.12l4.31 2.489a2.3 2.3 0 1 0 2.301-3.986l-6.412-3.702a1.009 1.009 0 0 1 1.008-1.747l6.421 3.708a2.306 2.306 0 1 0 2.299-3.998l-8.367-4.827a1.009 1.009 0 0 1 1.009-1.747l8.36 4.827c1.1.635 2.507.258 3.142-.842Zm-9.93 17.195a2.303 2.303 0 0 1-3.142.841l-3.441-1.986 1.29-2.239a3.823 3.823 0 0 0 .51-2.034l3.938 2.269a2.31 2.31 0 0 1 .845 3.148Zm-11.747.126a1.826 1.826 0 0 1-.666-2.482l2.226-3.856a1.819 1.819 0 1 1 3.151 1.818l-1.795 3.11-.428.742a1.819 1.819 0 0 1-2.483.665Zm-3.118-2.27a1.819 1.819 0 1 1-3.152-1.817l2.935-5.08a1.818 1.818 0 1 1 3.15 1.813l-2.225 3.856-.707 1.225Zm-4.897-2.821-.352.61a1.819 1.819 0 1 1-3.15-1.818l3.288-5.694a1.819 1.819 0 1 1 3.15 1.817l-2.932 5.08Zm-5.249-2.206-.351.609a1.819 1.819 0 1 1-3.151-1.818l3.641-6.302a1.819 1.819 0 1 1 3.151 1.818l-3.287 5.693Zm-5.524-12.216-6.05-3.494 8.403-14.56 6.05 3.495-8.403 14.559Zm8.015-37.95v20.838l1.961 1.135c3.591-.505 7.256.378 9.733 1.226.043.014.085.032.126.052a4.352 4.352 0 0 1 1.326-.689c.162-.051.29-.088.406-.126.242-.061.478-.145.705-.252 3.884-1.79 9.718-2.417 13.641-2.256l2.017-1.162v-12.15h-5.09a1.008 1.008 0 0 1-1.008-1.008v-5.607l-23.817-.002Zm25.83 1.575 2.785 3.025h-2.785v-3.025Zm20.196 30.315-9.001-15.588a1.423 1.423 0 0 0-1.942-.52l-3.151 1.82v-12.092c0-.033 0-.03-.007-.044l-.007-.052c0-.017-.01-.035-.013-.053a.428.428 0 0 0-.01-.039l-.019-.054c0-.013-.009-.024-.012-.036l-.023-.05-.018-.037-.026-.047-.023-.037-.028-.041-.027-.037a.438.438 0 0 0-.032-.036.145.145 0 0 0-.018-.022l-6.094-6.617-.014-.013a.61.61 0 0 0-.04-.04l-.033-.029c-.015-.014-.03-.025-.046-.038l-.033-.024a.83.83 0 0 0-.056-.035l-.036-.019-.068-.034-.023-.01a.596.596 0 0 0-.083-.032h-.011l-.095-.025a.883.883 0 0 0-.098-.016.952.952 0 0 0-.105 0h-24.985a1.864 1.864 0 0 0-1.862 1.862v19.819l-3.151-1.822a1.426 1.426 0 0 0-1.944.52l-9.003 15.59c-.391.68-.158 1.55.52 1.943l7.357 4.25a15.844 15.844 0 0 1 2.97 3.503l-2.466 4.29a3.833 3.833 0 0 0 4.948 5.388 3.84 3.84 0 0 0 5.247 2.212 3.842 3.842 0 0 0 5.74 1.94 3.83 3.83 0 0 0 3.475 2.238 3.842 3.842 0 0 0 3.248-1.79l3.446 1.99a4.313 4.313 0 0 0 6.21-5.223 4.302 4.302 0 0 0 3.427-5.366 4.222 4.222 0 0 0-.113-.363 4.31 4.31 0 0 0 3.31-5.732 4.31 4.31 0 0 0 3.281-2.688c.623-.301 1.197-.814 1.758-1.315.391-.349 1.046-.934 1.301-.975.184.004.366-.042.526-.134l7.436-4.296a1.426 1.426 0 0 0 .516-1.944Z" fill="#242222" fill-rule="evenodd" data-name="Path 62395"/></g></g></svg>