<svg xmlns="http://www.w3.org/2000/svg" width="53.946" height="54.596"><g data-name="Group 24869"><path d="M2.863 3.501H38.97c1.208 0 2.197.989 2.197 2.197v46.035a2.204 2.204 0 0 1-2.197 2.197H2.863a2.204 2.204 0 0 1-2.197-2.197V5.697c0-1.207.988-2.196 2.197-2.196Z" fill="#fbf3f3" fill-rule="evenodd" data-name="Path 62401"/><path d="M13.527.666h14.78c.387 0 .703.316.703.703v4.264a.705.705 0 0 1-.703.703h-14.78a.705.705 0 0 1-.704-.703V1.369c0-.387.317-.703.704-.703Z" fill="#ffc66c" fill-rule="evenodd" data-name="Path 62402"/><path d="M7.49 25.237h7.611c.317 0 .575.259.575.575v7.612a.576.576 0 0 1-.575.574h-7.61a.576.576 0 0 1-.576-.574v-7.612c0-.316.259-.575.575-.575Z" fill="#2fb1d4" fill-rule="evenodd" data-name="Path 62403"/><path d="M7.49 38.024h7.611c.317 0 .575.259.575.575v7.611a.576.576 0 0 1-.575.575h-7.61a.576.576 0 0 1-.576-.575V38.6c0-.317.259-.576.575-.576Z" fill="#05e39c" fill-rule="evenodd" data-name="Path 62404"/><path d="M43.794 30.23c.697.2 1.369.478 2.002.83a.64.64 0 0 0 .755-.088l1.275-1.162a.65.65 0 0 1 .899.022l2.015 2.016a.65.65 0 0 1 .02.899L49.6 34.022a.64.64 0 0 0-.088.754c.353.633.631 1.305.83 2.002a.643.643 0 0 0 .596.472l1.722.08a.65.65 0 0 1 .62.65v2.852a.651.651 0 0 1-.62.65l-1.722.08a.642.642 0 0 0-.596.472 9.482 9.482 0 0 1-.83 2.001.64.64 0 0 0 .088.755l1.162 1.275a.65.65 0 0 1-.021.899l-2.017 2.016a.65.65 0 0 1-.898.021L46.55 47.84a.64.64 0 0 0-.755-.087 9.46 9.46 0 0 1-2.002.83.642.642 0 0 0-.471.596l-.08 1.722a.65.65 0 0 1-.65.62h-2.853a.651.651 0 0 1-.65-.62l-.08-1.722a.642.642 0 0 0-.471-.596 9.48 9.48 0 0 1-2.002-.83.64.64 0 0 0-.755.087l-1.275 1.162a.65.65 0 0 1-.899-.02l-2.016-2.017a.65.65 0 0 1-.02-.899l1.16-1.275a.64.64 0 0 0 .089-.755 9.459 9.459 0 0 1-.83-2.001.642.642 0 0 0-.596-.472l-1.723-.08a.65.65 0 0 1-.62-.65V37.98c0-.348.273-.634.62-.65l1.723-.08a.643.643 0 0 0 .596-.47 9.48 9.48 0 0 1 .83-2.003.64.64 0 0 0-.088-.754l-1.162-1.275a.65.65 0 0 1 .021-.9l2.016-2.015a.65.65 0 0 1 .9-.021l1.274 1.161a.64.64 0 0 0 .755.088 9.48 9.48 0 0 1 2.002-.83.64.64 0 0 0 .47-.596l.08-1.722a.65.65 0 0 1 .65-.62h2.852c.348 0 .634.273.65.62l.08 1.722c.016.283.2.517.474.595Z" fill="#fedf30" fill-rule="evenodd" data-name="Path 62405"/><path d="M36.695 40.034a4.504 4.504-9.25 1 1 .016.1z" fill="#edf2fa" fill-rule="evenodd" data-name="Ellipse 1127"/><path d="M14.173 15.976h6.744v5.256h-6.744v-5.256Z" fill="#ffe177" fill-rule="evenodd" data-name="Path 62406"/><path d="M20.916 12.83h6.745v8.401h-6.745v-8.4Z" fill="#05e39c" fill-rule="evenodd" data-name="Path 62407"/><path d="M27.66 9.542h6.745v11.69h-6.744V9.542Z" fill="#2fb1d4" fill-rule="evenodd" data-name="Path 62408"/><path d="M7.428 18.089h6.745v3.143H7.428v-3.143Z" fill="#ff5a5a" fill-rule="evenodd" data-name="Path 62409"/><path d="M8.094 18.755h5.413v1.81H8.094v-1.81Zm6.744-2.113h5.412v3.924h-5.412v-3.924Zm6.744-3.146h5.413v7.07h-5.413v-7.07Zm6.745-3.288h5.413v10.358h-5.413V10.208ZM7.428 21.898h26.977a.666.666 0 0 0 .666-.667V9.542a.666.666 0 0 0-.666-.666h-6.744a.666.666 0 0 0-.666.666v2.622h-6.079a.666.666 0 0 0-.666.666v2.48h-6.077a.666.666 0 0 0-.666.666v1.447H7.428a.666.666 0 0 0-.666.666v3.142c0 .368.299.666.666.666Zm33.74 21.345a3.843 3.843 0 0 1-3.84-3.838 3.844 3.844 0 0 1 3.84-3.84 3.843 3.843 0 0 1 3.838 3.84 3.843 3.843 0 0 1-3.838 3.838Zm0-9.01a5.177 5.177 0 0 0-5.171 5.172c0 2.85 2.319 5.17 5.17 5.17s5.17-2.32 5.17-5.17c0-2.851-2.319-5.171-5.17-5.171Zm11.446 6.583v-2.823l-1.708-.08a1.313 1.313 0 0 1-1.205-.953 8.788 8.788 0 0 0-.772-1.86 1.317 1.317 0 0 1 .177-1.527l1.153-1.265-1.996-1.996-1.264 1.153a1.319 1.319 0 0 1-1.527.178 8.763 8.763 0 0 0-1.86-.773 1.298 1.298 0 0 1-.954-1.204l-.08-1.709h-2.822l-.08 1.71a1.298 1.298 0 0 1-.953 1.203 8.88 8.88 0 0 0-1.86.773 1.317 1.317 0 0 1-1.528-.178l-1.264-1.153-1.996 1.996 1.153 1.265c.38.419.453 1.032.178 1.526a8.763 8.763 0 0 0-.773 1.861c-.157.553-.63.927-1.204.953l-1.709.08v2.823l1.708.079c.566.027 1.05.41 1.205.953.184.646.444 1.272.773 1.861a1.319 1.319 0 0 1-.178 1.527L32.075 46.5l1.996 1.996 1.264-1.152a1.315 1.315 0 0 1 1.527-.177 8.793 8.793 0 0 0 1.861.771 1.3 1.3 0 0 1 .953 1.205l.08 1.708h2.822l.08-1.708c.027-.565.41-1.05.953-1.205a8.817 8.817 0 0 0 1.861-.771 1.313 1.313 0 0 1 1.526.177l1.265 1.152 1.996-1.996-1.152-1.264a1.315 1.315 0 0 1-.177-1.527 8.77 8.77 0 0 0 .771-1.86c.155-.545.64-.927 1.205-.954l1.708-.079ZM38.97 53.265c.688 0 1.27-.456 1.463-1.082h-.692a1.314 1.314 0 0 1-1.315-1.255l-.08-1.711a10.261 10.261 0 0 1-2.123-.88l-1.267 1.154c-.52.474-1.32.456-1.817-.043l-2.017-2.016a1.316 1.316 0 0 1-.042-1.818l1.155-1.267a10.195 10.195 0 0 1-.88-2.121l-1.712-.08a1.315 1.315 0 0 1-1.255-1.315v-.588h-8.64a.666.666 0 0 1 0-1.332h8.64v-.932c0-.705.551-1.283 1.255-1.315l1.712-.08c.212-.738.507-1.45.88-2.122l-1.155-1.267a1.314 1.314 0 0 1 .043-1.818l2.015-2.016c.5-.5 1.297-.517 1.819-.042l1.267 1.154a10.207 10.207 0 0 1 2.122-.88l.08-1.711a1.314 1.314 0 0 1 1.315-1.256h.76V5.698c0-.844-.687-1.531-1.531-1.531h-9.295v1.466c0 .754-.615 1.37-1.37 1.37h-14.78a1.37 1.37 0 0 1-1.369-1.37V4.167H2.863c-.845 0-1.532.687-1.532 1.531v46.035c0 .845.687 1.532 1.532 1.532H38.97ZM13.489 1.369c0-.02.018-.037.038-.037h14.78a.04.04 0 0 1 .037.037v4.264a.04.04 0 0 1-.037.037h-14.78a.04.04 0 0 1-.038-.037V1.369Zm30.486 28.22.002.002-.183.639.181-.64Zm8.716 7.075-1.713-.08a10.171 10.171 0 0 0-.88-2.122l1.155-1.267a1.314 1.314 0 0 0-.042-1.818l-2.017-2.017a1.314 1.314 0 0 0-1.817-.041l-1.267 1.154a10.13 10.13 0 0 0-2.123-.88l-.078-1.711a1.315 1.315 0 0 0-1.317-1.256h-.759V5.698a2.866 2.866 0 0 0-2.862-2.863h-9.295V1.37A1.37 1.37 0 0 0 28.306 0h-14.78a1.37 1.37 0 0 0-1.369 1.37v1.465H2.863A2.866 2.866 0 0 0 0 5.698v46.035a2.866 2.866 0 0 0 2.863 2.863H38.97a2.867 2.867 0 0 0 2.827-2.413h.794c.706 0 1.283-.552 1.317-1.255l.078-1.713a10.18 10.18 0 0 0 2.123-.88l1.267 1.156c.52.474 1.32.455 1.818-.043l2.016-2.016a1.314 1.314 0 0 0 .042-1.818l-1.155-1.267c.373-.672.669-1.384.88-2.123l1.711-.078a1.315 1.315 0 0 0 1.257-1.315v-2.852c0-.705-.552-1.283-1.255-1.315ZM28.277 44.48a.666.666 0 0 1-.666.666h-7.862a.666.666 0 0 1 0-1.331h7.862c.367 0 .666.298.666.665ZM7.58 46.12v-7.43h7.28l-3.711 3.713-1.023-1.022a.664.664 0 0 0-.941 0 .666.666 0 0 0 0 .941l1.492 1.493a.66.66 0 0 0 .472.195.66.66 0 0 0 .47-.195l3.39-3.39v5.696H7.581Zm7.52-8.762c.685 0 1.241.558 1.241 1.241v7.611c0 .685-.556 1.242-1.24 1.242H7.49c-.683 0-1.24-.557-1.24-1.242V38.6c0-.684.557-1.242 1.24-1.242h7.611Zm13.176-5.664a.666.666 0 0 1-.666.665h-7.862a.666.666 0 0 1 0-1.331h7.862c.367 0 .666.298.666.666Zm6.764-4.905a.665.665 0 0 1-.666.666H19.75a.666.666 0 1 1 0-1.332h14.626c.369 0 .666.298.666.666Zm-27.46 6.544v-7.43h7.28l-3.711 3.713-1.023-1.022a.664.664 0 0 0-.941 0 .666.666 0 0 0 0 .941l1.492 1.493a.665.665 0 0 0 .942 0l3.39-3.39v5.695H7.581Zm7.52-8.761c.685 0 1.241.557 1.241 1.24v7.612c0 .684-.556 1.24-1.24 1.24H7.49c-.683 0-1.24-.556-1.24-1.24v-7.612c0-.683.557-1.24 1.24-1.24h7.611Z" fill="#222124" fill-rule="evenodd" data-name="Path 62410"/></g></svg>