<svg xmlns="http://www.w3.org/2000/svg" width="47.003" height="62.931" viewBox="1095.845 1503.224 47.003 62.931"><g data-name="Group 24883"><path d="M1123.264 1545.915a19.449 19.449 0 0 0 6.87-2.862l3.06 3.06 5.54-5.54-3.06-3.06a19.448 19.448 0 0 0 2.862-6.871h4.312v-7.834h-4.312a19.452 19.452 0 0 0-2.862-6.87l3.06-3.061-5.54-5.54-3.06 3.06a19.449 19.449 0 0 0-6.87-2.862v-4.311h-7.834v4.311a19.449 19.449 0 0 0-6.871 2.863l-3.06-3.06-5.54 5.539 3.06 3.06a19.449 19.449 0 0 0-2.862 6.871h-4.312v7.834h4.312a19.449 19.449 0 0 0 2.862 6.871l-3.06 3.06 5.54 5.54 3.06-3.06a19.449 19.449 0 0 0 6.87 2.862" stroke-linejoin="round" stroke-linecap="round" stroke-width="3" stroke="#b88230" fill="transparent" data-name="Path 62418"/><path d="M1123.264 1515.696v11.03h-7.834v-11.03c-4.55 1.622-7.834 5.93-7.834 11.03 0 5.099 3.284 9.406 7.834 11.028v28.401h7.834v-28.4c4.549-1.623 7.833-5.93 7.833-11.03s-3.284-9.407-7.833-11.029Z" stroke-linejoin="round" stroke-linecap="round" stroke-width="3" stroke="#088a51" fill="transparent" data-name="Path 62419"/></g></svg>