<svg xmlns="http://www.w3.org/2000/svg" width="64.711" height="55.247" viewBox="0 3.468 64.711 55.247"><path d="M24.357 10.622a5.452 5.452 0 0 0-5.45 5.45 5.452 5.452 0 0 0 5.45 5.45 5.452 5.452 0 0 0 5.45-5.45 5.452 5.452 0 0 0-5.45-5.45Zm0 2.044a3.407 3.407 0 0 1 3.406 3.406 3.407 3.407 0 0 1-3.406 3.406 3.408 3.408 0 0 1-3.406-3.406 3.408 3.408 0 0 1 3.406-3.406Zm-7.749 18.292c0 .564.458 1.021 1.022 1.021h13.454c.564 0 1.021-.457 1.021-1.021a7.752 7.752 0 0 0-7.748-7.75 7.752 7.752 0 0 0-7.749 7.75Zm2.135-1.022a5.71 5.71 0 0 1 5.614-4.684 5.71 5.71 0 0 1 5.614 4.684H18.743ZM1.022 8.978h46.67a1.022 1.022 0 0 0 0-2.043H1.022a1.022 1.022 0 0 0 0 2.043Zm40.97-5.51H40.17a1.022 1.022 0 0 0 0 2.043h1.821a1.022 1.022 0 0 0 0-2.043Zm-5.91 0H34.26a1.022 1.022 0 0 0 0 2.043h1.822a1.022 1.022 0 0 0 0-2.043Zm9.793 38.08c4.945 1.97 10.806.954 14.806-3.046 3.157-3.156 4.455-7.472 3.908-11.583a3.064 3.064 0 0 0-5.208-1.774l-4.805 4.805-4.038-.773-1.055-4.365c1.5-1.502 3-3.004 4.497-4.508a3.058 3.058 0 0 0-1.949-5.21 13.708 13.708 0 0 0-10.777 3.98c-3.866 3.867-4.944 9.474-3.233 14.31L22.467 48.938a5.55 5.55 0 0 0-.04 7.806l.298.305a5.551 5.551 0 0 0 7.924.005l15.226-15.506Zm.188-2.142a1.022 1.022 0 0 0-1.156.212L29.19 55.622a3.507 3.507 0 0 1-5.006-.003l-.297-.304a3.506 3.506 0 0 1 .025-4.933L39.934 34.36c.292-.291.38-.73.222-1.11-1.743-4.236-.896-9.292 2.544-12.73a11.67 11.67 0 0 1 9.174-3.388h.01a1.015 1.015 0 0 1 .649 1.729l-.002.002a3005.4 3005.4 0 0 1-4.898 4.91 1.022 1.022 0 0 0-.27.962l1.344 5.562c.094.39.407.688.8.763l5.216.998a1.02 1.02 0 0 0 .914-.281l5.189-5.189a1.023 1.023 0 0 1 1.737.594v.006c.467 3.503-.637 7.18-3.326 9.87-3.56 3.559-8.851 4.342-13.174 2.348Z" fill="#b88230" fill-rule="evenodd" data-name="Path 98"/></svg>