<svg xmlns="http://www.w3.org/2000/svg" width="58.075" height="56.745"><path d="M54.51 24.58a25.301 25.301 0 0 0-7.443-17.107C42.25 2.653 35.846 0 29.037 0 15.288 0 4.052 10.945 3.568 24.58A5.995 5.995 0 0 0 0 30.052v6.725a5.996 5.996 0 0 0 5.99 5.99 3.88 3.88 0 0 0 3.875-3.876V27.938c0-2.007-1.539-3.643-3.496-3.838C7.092 12.222 16.98 2.78 29.038 2.78c6.067 0 11.772 2.365 16.066 6.659 3.943 3.943 6.251 9.082 6.598 14.663-1.955.197-3.49 1.832-3.49 3.837V38.89c0 2.023 1.562 3.67 3.542 3.841V45.5a5.659 5.659 0 0 1-5.653 5.653h-4.187a4.164 4.164 0 0 0-3.951-2.814h-4.316a4.21 4.21 0 0 0-4.203 4.202c0 1.125.438 2.18 1.232 2.97a4.17 4.17 0 0 0 2.971 1.234h4.316c1.789 0 3.366-1.157 3.954-2.814H46.1c4.65 0 8.431-3.782 8.431-8.43v-3.263a5.994 5.994 0 0 0 3.543-5.462v-6.725c0-2.439-1.468-4.54-3.566-5.472ZM7.085 27.937V38.89c0 .605-.492 1.097-1.097 1.097a3.215 3.215 0 0 1-3.212-3.211v-6.725a3.215 3.215 0 0 1 3.212-3.211c.605 0 1.097.492 1.097 1.097Zm32.27 24.902a1.432 1.432 0 0 1-1.394 1.129h-4.316c-.38 0-.736-.148-1.008-.42a1.41 1.41 0 0 1-.417-1.005 1.428 1.428 0 0 1 1.425-1.425h4.316c.38 0 .736.148 1.007.42.269.267.417.625.417 1.005.001.101-.01.203-.03.296Zm15.941-16.063a3.215 3.215 0 0 1-3.211 3.211 1.098 1.098 0 0 1-1.098-1.097V27.938c0-.605.492-1.097 1.098-1.097a3.215 3.215 0 0 1 3.211 3.211v6.725Z" fill="#b88230" fill-rule="evenodd" data-name="Path 94"/></svg>