<svg xmlns="http://www.w3.org/2000/svg" width="58.678" height="58.678" viewBox="912.501 1500.503 58.678 58.678"><g data-name="Group 24882"><path d="M943.796 1547.446h-3.912a.98.98 0 0 1-.978-.978.98.98 0 0 1 .978-.978h3.912a.98.98 0 0 1 .978.978.98.98 0 0 1-.978.978Z" fill="#6b71f2" fill-rule="evenodd" data-name="Path 62411"/><g data-name="Group 24881"><path d="M966.289 1551.357H917.39c-2.7 0-4.89-2.19-4.89-4.89v-35.206c0-2.7 2.19-4.89 4.89-4.89h18.464a.98.98 0 0 1 .978.978.98.98 0 0 1-.978.978H917.39a2.943 2.943 0 0 0-2.934 2.934v35.207a2.943 2.943 0 0 0 2.934 2.933h48.898a2.943 2.943 0 0 0 2.934-2.933v-35.207a2.929 2.929 0 0 0-2.044-2.797.97.97 0 0 1-.636-1.223.978.978 0 0 1 1.223-.635 4.86 4.86 0 0 1 3.413 4.655v35.207c0 2.699-2.191 4.89-4.89 4.89Z" fill="#b88230" fill-rule="evenodd" data-name="Path 62412"/><path d="M966.289 1551.357H917.39c-2.7 0-4.89-2.19-4.89-4.89v-3.911a.98.98 0 0 1 .978-.978H970.2a.98.98 0 0 1 .978.978v3.912c0 2.699-2.191 4.89-4.89 4.89Zm-51.832-7.823v2.934a2.943 2.943 0 0 0 2.934 2.933h48.898a2.943 2.943 0 0 0 2.934-2.933v-2.934h-54.766Zm37.162-13.692c-8.087 0-14.67-6.582-14.67-14.67 0-8.087 6.583-14.669 14.67-14.669a.98.98 0 0 1 .978.978v5.868a.98.98 0 0 1-.978.978 6.853 6.853 0 0 0-6.845 6.846 6.853 6.853 0 0 0 6.845 6.845 6.88 6.88 0 0 0 4.851-2.004.974.974 0 0 1 1.379 0l4.147 4.146c.185.186.283.43.283.695 0 .264-.107.508-.283.694a14.614 14.614 0 0 1-10.377 4.293Zm-.978-27.344c-6.552.5-11.735 5.995-11.735 12.675 0 7.012 5.701 12.713 12.713 12.713 3.061 0 5.966-1.076 8.274-3.06l-2.777-2.778a8.808 8.808 0 0 1-5.497 1.926c-4.85 0-8.801-3.95-8.801-8.801 0-4.518 3.432-8.264 7.823-8.743v-3.932Z" fill="#b88230" fill-rule="evenodd" data-name="Path 62413"/><path d="M961.301 1525.833a1.01 1.01 0 0 1-.694-.284l-4.147-4.147a.974.974 0 0 1 0-1.379 6.846 6.846 0 0 0 2.005-4.85.98.98 0 0 1 .978-.978h5.868a.98.98 0 0 1 .978.978c0 3.912-1.526 7.589-4.293 10.376a.968.968 0 0 1-.695.284Zm-2.807-5.164 2.778 2.777a12.624 12.624 0 0 0 3.022-7.295h-3.932a8.777 8.777 0 0 1-1.868 4.518Z" fill="#b88230" fill-rule="evenodd" data-name="Path 62414"/></g><path d="M959.443 1533.754h-15.647a.98.98 0 0 1-.978-.978.98.98 0 0 1 .978-.978h15.647a.98.98 0 0 1 .978.978.98.98 0 0 1-.978.978Zm0 3.912h-15.647a.98.98 0 0 1-.978-.978.98.98 0 0 1 .978-.978h15.647a.98.98 0 0 1 .978.978.98.98 0 0 1-.978.978Z" fill="#088a51" fill-rule="evenodd" data-name="Path 62415"/><path d="M934.016 1537.666h-15.647a.98.98 0 0 1-.978-.978v-15.647a.98.98 0 0 1 .978-.978.98.98 0 0 1 .978.978v14.669h14.669a.98.98 0 0 1 .978.978.98.98 0 0 1-.978.978Z" fill="#b88230" fill-rule="evenodd" data-name="Path 62416"/><path d="M922.28 1530.82c-.254 0-.498-.098-.694-.283a.974.974 0 0 1 0-1.38l3.912-3.911a.974.974 0 0 1 1.379 0l2.24 2.24 4.195-4.196a.975.975 0 0 1 1.379 1.379l-4.89 4.89a.974.974 0 0 1-1.379 0l-2.24-2.24-3.217 3.218a.96.96 0 0 1-.694.283Zm29.232 28.361h-19.56a.977.977 0 0 1-.83-.46.965.965 0 0 1-.04-.948l1.956-3.912a.989.989 0 0 1 1.31-.44c.48.244.675.831.44 1.31l-1.251 2.494h16.39l-1.251-2.494a.971.971 0 0 1 .44-1.31.971.971 0 0 1 1.31.44l1.956 3.912a.965.965 0 0 1-.039.948.977.977 0 0 1-.831.46Zm13.799-43.03h-5.868a.98.98 0 0 1-.978-.978 6.853 6.853 0 0 0-6.846-6.846.98.98 0 0 1-.978-.978v-5.868a.98.98 0 0 1 .978-.978c8.088 0 14.67 6.582 14.67 14.67a.98.98 0 0 1-.978.978Zm-4.949-1.956h3.932c-.48-6.23-5.467-11.217-11.697-11.697v3.932a8.805 8.805 0 0 1 7.765 7.765Z" fill="#088a51" fill-rule="evenodd" data-name="Path 62417"/></g></svg>