<svg xmlns="http://www.w3.org/2000/svg" width="105.001" height="70.359" viewBox="94.999 94.82 105.001 70.359"><g data-name="svgg"><path d="M189.876 94.873c-.079.026-.131.053-.131.105a.057.057 0 0 1-.053.053c-.079-.026-.342.237-.447.447-.052.105-.105.5-.105 1v.814H191.875v-.946l-.79.026-.788.026v-.236c0-.395.079-.421.684-.447h.552l.026-.447.027-.448h-.816c-.42.027-.815.027-.894.053m-33.028 1.262c-.026.053-.026.316-.026.605v.526h1.314v-1.21h-.63c-.448 0-.632.027-.658.08m2.367.525v.605h1.367l-.026-.605-.027-.605h-1.314v.605m-45.31 1.604c-.078.053-.183.053-.262.053-.08 0-.158 0-.184.026-.027.027-.105.053-.184.053-.237 0-1.184.5-1.131.578.026.053.026.053-.026.027-.106-.053-.553.341-.474.447.027.052.027.079-.026.026-.105-.053-.368.368-.579.868-.157.394-.184 1.288-.052 1.446.052.053.052.079 0 .079-.105 0-.026.263.105.42a.467.467 0 0 1 .105.264c0 .079.08.236.158.315.105.105.158.184.131.21-.078.08.763.71 1.131.816.158.052.316.131.368.158.053.026.08.052.08.026s.052-.026.104.026c.053.053.21.079.316.079.132 0 .21.026.21.053 0 .026.08.052.184.052.106 0 .185.026.21.08.027.025.106.078.159.078.21 0 1.183.237 1.262.29.052.026.131.052.184.026.053-.027.105-.027.105.026 0 .026.184.131.395.184.21.079.394.158.394.184 0 .026.026.053.053.026.026-.026.131.027.184.08.079.078.157.13.184.13.026 0 .052.027.052.08 0 .026.053.131.106.184.289.315.341 1.236.105 1.683-.158.315-.79.788-1.131.867-.026 0-.158.053-.316.106-.289.105-1.446.131-1.604.026a1.634 1.634 0 0 0-.263-.079c-.105 0-.263-.053-.368-.079-.105-.026-.236-.053-.263-.026-.026.026-.052 0-.052-.027 0-.052-.027-.078-.053-.052-.079.026-.316-.105-.42-.21a.392.392 0 0 0-.237-.106c-.08 0-.158-.026-.184-.079-.027-.052-.158-.157-.316-.236a1.722 1.722 0 0 1-.473-.395c-.21-.21-.21-.21-.421-.105-.158.079-.184.132-.132.184.08.053.053.053 0 .053-.105 0-.289.158-.289.236 0 .027-.079.106-.158.185-.078.078-.105.105-.052.078.079-.052.079-.026.026.053-.079.105.053.394.132.29.026-.027.052 0 .052.052s.026.079.053.052c.026-.026.105.027.158.132.052.079.21.21.315.263.132.053.21.131.21.158 0 .026.027.052.08.026.052-.026.078 0 .078.026 0 .027.105.105.237.158.131.053.237.105.237.132 0 .026.184.105.394.184.21.079.42.157.447.184a.2.2 0 0 0 .105.052h.105c.474.184 2.656.237 3.13.08.158-.053.289-.106.315-.106.053 0 .29-.105.631-.263.263-.105 1.026-.736.947-.815-.026-.026.026-.079.079-.158.316-.263.657-1.604.526-1.972a.98.98 0 0 1-.053-.316c-.026-.5-.236-.946-.63-1.367-.132-.132-.237-.237-.237-.21 0 .026-.08-.027-.185-.132-.105-.105-.21-.158-.236-.131-.027.026-.08 0-.08-.027 0-.079-.71-.447-1.051-.5-.447-.105-.552-.13-.684-.183a10.622 10.622 0 0 0-.867-.21 6.212 6.212 0 0 1-.816-.211c-.052-.053-.841-.316-.946-.316-.21-.026-.842-1.025-.79-1.236 0-.026.027-.21.027-.394 0-.21.053-.368.079-.368.026 0 .053-.027.026-.053-.026-.026 0-.105.08-.158.052-.052.104-.131.104-.184 0-.052.08-.131.184-.184.106-.052.185-.131.185-.158 0-.026.052-.052.105-.052.052 0 .131-.053.184-.105a.829.829 0 0 1 .342-.158c.131-.026.341-.079.447-.132.131-.052.21-.079.236-.026.027.026.08.079.106.079.026 0 .052-.026.026-.079-.026-.026 0-.079.026-.079.053 0 .079.026.079.053 0 .026.184.052.394.079.395 0 .579.026.868.105.08.026.184.052.263.079.21.052.815.368 1.289.657.42.29.657.29.736.026.026-.078.158-.236.29-.394.289-.316.236-.447-.185-.71a3.014 3.014 0 0 1-.315-.237 1.095 1.095 0 0 0-.316-.157c-.131-.053-.315-.132-.368-.185-.053-.052-.132-.105-.184-.105-.158-.026-.21-.026-.29-.079a1.877 1.877 0 0 0-.42-.105c-.184-.026-.368-.079-.395-.131-.026-.053-.052-.053-.052.026s0 .079-.053 0c-.026-.026-1.604-.079-1.814.026m15.173-.026c-.026.026-.132.053-.237.053-.105.026-.29.079-.42.105a.798.798 0 0 1-.29.079c-.052 0-.21.052-.368.105-.131.052-.29.105-.316.105a.057.057 0 0 0-.052.053c0 .026-.079.079-.158.105-.237.079-1 .631-1.262.894-.053.079-.184.21-.29.315-.262.316-.394.474-.499.658-.053.079-.105.184-.132.21-.078.08-.21.342-.21.474 0 .052-.052.21-.131.315-.08.105-.184.447-.237.763a9.507 9.507 0 0 1-.184.868c-.053.236-.053.315.026.368.053.026.053.052.026.052-.105 0-.105.316 0 .368.053.053.053.053 0 .053-.105 0-.131.394-.026.447.026.026.08.237.105.473.027.237.08.553.132.658.131.315.184.473.29.736.052.132.157.29.21.368a.537.537 0 0 1 .131.132c-.026.079.158.42.237.447.052.026.105.079.105.131 0 .158 1 1.078 1.104 1.052.053-.026.08 0 .053.026-.026.027 0 .106.079.132.052.052.105.079.105.052 0-.026.053 0 .105.08a.399.399 0 0 0 .21.105c.053 0 .106.026.106.052s.105.105.236.158c.132.053.342.131.447.184.132.053.263.079.29.053.052-.027.079 0 .079.026 0 .052.026.052.078.026.027-.026.106-.026.158 0 .158.105 2.078.21 2.288.132.079-.027.263-.053.42-.08a.884.884 0 0 0 .421-.13c.132-.132.21-.158.132-.053-.026.026 0 .079.026.079.027 0 .08-.027.08-.08 0-.026.052-.078.104-.078a.798.798 0 0 0 .29-.08c.105-.052.236-.078.263-.104.289-.053 1.446-1 1.393-1.105-.026-.026 0-.052.027-.026.078.053.263-.131.63-.631.264-.342.395-.605.343-.605-.027 0-.027-.026.026-.053.052-.026.105-.105.105-.157 0-.053.053-.158.105-.263.053-.08.08-.158.053-.158-.026 0 .026-.132.105-.263.079-.158.158-.368.184-.473.026-.106.053-.316.105-.474.237-1.052-.131-3.366-.63-3.892-.08-.078-.106-.157-.08-.184.027-.026-.052-.131-.158-.236-.105-.105-.184-.237-.184-.29 0-.052-.052-.078-.105-.078-.052 0-.079-.027-.079-.053.053-.079-.841-.973-1.025-1.026-.08-.026-.132-.078-.132-.105 0-.026-.026-.052-.079-.026-.052.026-.079 0-.079-.026 0-.08-.63-.395-.762-.369-.053 0-.079-.026-.079-.052s-.158-.105-.368-.158a3.144 3.144 0 0 1-.473-.158c-.132-.026-2.315-.105-2.367-.026m-34.08.263c0 .131.236.789.315.894.132.158.29.552.237.5-.026-.027 0 .105.105.289s.184.394.184.42c0 .027.026.08.079.08.053 0 .053.026.026.052-.026.053.132.474.237.579.026.026.053.105.053.21s.078.237.157.316a.498.498 0 0 1 .132.21c0 .131.052.263.236.684.08.157.158.394.21.552.053.158.106.263.132.263.053 0 .158.29.132.42 0 .053.026.08.052.053.053-.026.08 0 .053.08 0 .078.026.183.079.236.052.052.105.131.105.184 0 .079.473 1.183.631 1.499.08.131.158.394.21.552.053.158.132.29.185.29.052 0 .079.052.052.13-.026.08.027.185.08.237a.29.29 0 0 1 .078.158c-.026.026.053.184.131.395.106.184.21.473.263.63.053.159.106.29.132.29.026 0 .079.079.105.184a.886.886 0 0 0 .158.316c.052.079.079.105.026.079-.079-.053-.052 0 .026.157.106.21.106.21.71.21h.579l.237-.473c.131-.263.21-.473.184-.5-.027-.026 0-.078.052-.13a.69.69 0 0 0 .132-.237c0-.08.026-.158.052-.158.027 0 .08-.158.132-.342.052-.184.158-.42.21-.526.08-.105.132-.21.132-.263 0-.053.079-.21.158-.368.078-.158.157-.316.157-.368 0-.053.053-.158.08-.263.025-.105.052-.21.025-.237-.026-.026 0-.052.027-.026.052.026.105-.053.158-.21.052-.158.131-.316.157-.395a.458.458 0 0 0 .08-.184c.026-.053.183-.447.315-.736.236-.526.394-.92.368-.973 0-.027.026-.053.053-.053.052 0 .052-.053.026-.105-.026-.053 0-.105.026-.105s.079-.106.105-.21c.027-.106.08-.211.106-.211.026 0 .105-.184.184-.395.078-.21.157-.394.184-.394.026 0 .052-.053.026-.131-.026-.08 0-.132.026-.106.027.027.08-.052.105-.157.027-.106.132-.342.21-.553.264-.552.5-1.104.5-1.183 0-.026.027-.079.027-.079l.052-.158c.027-.079.053-.157.106-.157.052-.027.052-.053.026-.08-.026-.026 0-.052.026-.052s.053-.079.053-.184.026-.21.079-.237c.026-.026.105-.105.157-.21l.08-.158h-.737c-.473 0-.736.027-.736.08 0 .052-.027.052-.08.025-.026-.026-.104.106-.157.263-.053.158-.131.342-.184.395-.053.052-.079.158-.079.236a.892.892 0 0 1-.131.369c-.08.131-.132.236-.132.263 0 .026-.053.131-.079.236a.798.798 0 0 0-.079.29c0 .052-.052.131-.105.184-.052.052-.105.105-.079.131a.712.712 0 0 1-.079.21.647.647 0 0 0-.105.29c-.026.184-.131.394-.21.447a.3.3 0 0 0-.08.184c0 .079-.052.236-.104.342-.105.263-.132.342-.132.394 0 .026-.052.132-.105.237a.857.857 0 0 0-.079.263c.026.026 0 .052-.026.052s-.08.053-.08.132c0 .079-.025.131-.052.131-.026 0-.105.158-.157.342-.053.184-.132.395-.185.447-.052.053-.078.132-.105.158 0 .026-.052.158-.105.29a4.659 4.659 0 0 0-.158.446c-.026.132-.079.21-.105.21-.026 0-.105.132-.131.264-.053.157-.106.315-.158.341a.28.28 0 0 0-.026.21c.026.053.026.106-.027.08-.026-.027-.079.026-.105.131-.026.08-.131.368-.21.605a2.018 2.018 0 0 0-.158.605c.026.447-.105.447-.21 0-.053-.184-.106-.316-.158-.316-.026 0-.053-.052-.053-.079.027-.078-.052-.289-.447-1.157-.105-.236-.21-.5-.21-.578 0-.08-.026-.132-.08-.105-.052.026-.052 0-.025-.08.026-.052 0-.104-.027-.104-.026 0-.079-.053-.079-.106 0-.052-.105-.341-.236-.657-.237-.552-.342-.815-.368-.868 0-.026-.08-.158-.132-.315-.079-.158-.131-.342-.158-.421-.026-.079-.052-.158-.105-.158-.026 0-.079-.079-.079-.131a.683.683 0 0 0-.105-.263 1.41 1.41 0 0 1-.131-.29c0-.078-.053-.21-.106-.315-.052-.105-.131-.316-.184-.447-.052-.158-.131-.263-.184-.263-.052 0-.052-.053-.026-.132.026-.079 0-.131-.053-.131-.052 0-.052-.026-.052-.053.052-.079-.105-.5-.184-.5-.053 0-.053-.026-.027-.052.053-.053-.263-.841-.368-.973a1.441 1.441 0 0 1-.105-.315c-.026-.132-.079-.237-.105-.237-.026 0-.053-.053-.053-.105 0-.08-.131-.105-.736-.105-.473.052-.657.052-.657.131m12.306-.053c-.079.08-.052 10.966 0 11.071.053.08.237.08.71.08l.658-.027.026-5.575.026-5.575h-.683c-.395 0-.71 0-.737.026m13.543 5.549v5.601h1.315l.026-5.575.026-5.575h-1.367v5.549m16.803 0v5.601h1.262v-4.365c-.026-4.339-.026-4.392-.183-4.68-.08-.159-.132-.29-.132-.29.053 0 .316.237.316.315 0 .053.105.184.236.342.132.158.237.29.237.316 0 .026.026.079.053.079.026 0 .184.21.368.42.158.21.368.474.473.553.079.079.21.263.29.394.052.132.157.21.183.184.027-.026.08 0 .08.053 0 .052.078.184.183.315.106.106.237.263.263.342.053.08.106.132.158.132.053 0 .08 0 .053.052-.027.027 0 .105.052.158.053.053.106.105.106.158 0 .079.105.184.447.552.131.132.21.263.21.29 0 .026.131.183.29.367.157.185.315.342.315.369 0 .026.105.157.236.289.106.131.21.263.21.29 0 .025.053.104.132.157.08.053.21.237.316.394.105.158.237.29.263.29.026 0 .079.052.105.131.026.079.105.21.21.316.08.105.237.263.342.394.158.21.368.447.552.684.027.052.08.105.08.131 0 .053.13.21.446.553.106.131.184.236.184.262-.026.027.237.053.579.053.42.026.605 0 .605-.053 0-.052-.027-.052-.053-.052-.026.026-.026-2.472-.026-5.522l.026-5.549h-1.315v4.181c0 3.471.027 4.234.106 4.47.052.185.078.316.026.342-.026.027-.053.027-.053-.026.027-.131 0-.236-.079-.21-.026.026-.079 0-.079-.08 0-.052-.105-.21-.21-.34-.105-.132-.21-.238-.21-.264 0-.026-.132-.184-.29-.342-.157-.158-.289-.342-.289-.368 0-.026-.052-.105-.131-.158-.08-.052-.132-.105-.105-.131.026-.026-.027-.08-.106-.132-.079-.052-.157-.131-.157-.184 0-.052-.053-.079-.106-.079-.052 0-.131-.026-.157-.078-.027-.053-.027-.053.052-.027.053.027.027 0-.052-.079-.08-.079-.132-.157-.106-.184.027-.026-.026-.079-.105-.131-.079-.053-.158-.132-.158-.184 0-.053-.026-.08-.078-.08-.053 0-.08-.052-.08-.104 0-.053-.052-.132-.104-.158-.053-.026-.08-.08-.08-.105.027-.027-.026-.08-.105-.106-.078-.026-.131-.052-.105-.078.027-.027-.131-.237-.473-.658-.053-.052-.132-.184-.184-.263-.053-.079-.105-.131-.132-.105-.026.026-.131-.105-.21-.263-.21-.368-.342-.473-.394-.42-.027.026-.027.026-.027-.027.027-.079-.079-.21-.736-1.078-.263-.342-.605-.789-.763-1-.157-.21-.368-.473-.473-.604-.105-.132-.21-.237-.21-.263 0-.026-.132-.184-.29-.368l-.289-.316H137.6v5.575m18.618-5.496c-.763.105-1.184.263-1.341.473-.053.08-.08.08-.08.027 0-.053-.052-.08-.104-.053-.053.026-.08.079-.053.105.026.053 0 .053-.079.027-.052-.027-.105-.027-.105.026 0 .052-.053.079-.105.079-.132.026-1.105.789-1.052.815.026.026-.026.079-.105.131-.08.053-.132.132-.132.21 0 .053-.052.106-.079.08-.052 0-.079.026-.079.079 0 .052-.026.078-.052.078s-.079.027-.079.08c0 .052-.079.157-.158.262-.079.105-.131.158-.079.132.053-.027.08-.027.053.052-.026.053-.079.08-.105.08-.027-.027-.105.104-.158.288-.053.185-.105.29-.132.29-.052-.027-.157.315-.157.5 0 .052-.053.13-.08.183-.13.158-.289 1.973-.183 2.21a.62.62 0 0 1 .026.315c0 .105.026.184.053.184.052 0 .052.079.026.184s-.026.184.026.184c.053 0 .263.605.21.658 0 .026.053.105.132.184.079.105.105.131.026.105-.079-.053-.079-.026 0 .079.053.079.158.236.21.368.053.131.132.237.185.263a.344.344 0 0 1 .158.21c.026.105.105.184.131.184.053 0 .079.053.079.08 0 .104.736.84 1.025.998.132.08.237.158.237.21 0 .053.026.053.053.027.026-.026.236.079.5.21.262.132.499.237.578.237.079 0 .29.053.526.132.368.131.578.131 2.104.131h1.683v-.394c0-.395 0-.395.105-.237.052.079.131.131.184.105.026-.026.052 0 .052.053 0 .052.08.131.184.184.106.052.237.131.237.158.079.131 1.026.157 11.57.184l11.098.026V98.371h-1.315v9.992h-.763c-.42 0-.762-.026-.762-.052 0-.027-.816-.027-1.815 0-2.314.052-9.966.052-10.992 0-.42-.027-.789-.027-.789 0 0 .078-.894.052-.946-.027-.027-.052-.579-.079-1.42-.052-.815 0-1.315.026-1.236.079.105.052.105.052.026.052a.488.488 0 0 1-.184-.052c-.026-.027-.473-.08-1-.08-.972-.026-1.209-.105-1.209-.446 0-.053-.026-.106-.053-.08-.078.053-.078.159-.078-4.89l-.027-4.418-1.972.026c-1.183 0-2.235.026-2.42.079m32.556 0c-.21.026-.447.079-.5.079-.079 0-.131.026-.131.052 0 .027-.08.053-.184.053a.479.479 0 0 0-.29.105.392.392 0 0 1-.236.105c-.184.027-.763.369-.763.447 0 .027-.026.053-.052.027-.027-.027-.132.052-.21.158-.08.105-.159.157-.159.131 0-.026-.131.105-.315.29-.184.183-.316.394-.316.446 0 .053-.026.08-.052.08-.08 0-.369.578-.369.762 0 .079-.026.158-.052.158s-.053.026-.079.078c0 .053-.053.237-.079.421-.079.368-.079 1.236 0 1.289.026.026.026.105.026.184-.026.079 0 .131.053.131s.053.053.026.105c-.026.053 0 .158.08.237.052.08.13.21.13.316.053.236.474.894.605.894.053 0 .08.026.053.052-.026.053.158.342.21.316a.26.26 0 0 1 .158.053c.08.026.08.078.053.078-.132 0 .841.553 1.052.605.105.027.263.08.315.105.053.027.08.053.08.027 0-.027.052-.027.13.026.185.105.632.158 1.605.184l.789.026.105-.263.105-.263.026.395c.027.578 0 .947-.079.973a.647.647 0 0 0-.105.263c-.026.131-.079.237-.105.237-.026 0-.158.105-.263.21-.131.105-.237.184-.237.184-.026-.026-.236.053-.5.131-.42.132-.551.158-.92.08-.236-.027-.526-.08-.657-.08-.132 0-.21-.026-.184-.052.026-.026-.079-.053-.184-.079-.105-.026-.316-.105-.474-.158-.131-.079-.262-.079-.289-.052-.184.21-.368 1.367-.21 1.288.026 0 .131.026.29.079.762.316 2.524.42 3.155.184.052-.026.21-.053.394-.053.105 0 .158-.052.158-.131 0-.053.026-.105.053-.079.052.053.447-.158.447-.237 0-.026.052-.078.105-.078.052 0 .131-.08.184-.158.052-.08.131-.21.21-.263.08-.053.132-.132.132-.158 0-.026.026-.158.079-.263a.798.798 0 0 0 .078-.29c0-.052.027-.078.053-.078.132 0 .158-.631.158-5.023l.026-4.417h-1.341c-.789.052-1.578.078-1.788.131m6.968 4.391c0 4.34-.026 4.865-.184 5.207-.157.263-1.052.5-1.183.316-.158-.237-.342 0-.473.526-.158.604-.132.762.079.71.078-.027.131 0 .131.026 0 .079 1.052.079 1.473 0 .21-.053.341-.105.315-.158-.026-.052-.026-.052.026-.026.132.079.763-.605.868-.92.053-.158.105-.316.158-.342.105-.132.237-3.445.132-3.366-.053.026-.027-5.47.026-5.89.052-.5 0-.553-.736-.553h-.632v4.47m-66.503-3.34c.052-.052 1.314-.052 1.472 0a.895.895 0 0 0 .263.027c.08-.026.132 0 .105.026-.026.027.027.08.106.08.236.026.236.026.683.262.237.132.474.263.526.342.053.053.132.105.184.105.053 0 .132.053.184.132a.771.771 0 0 0 .263.236c.105.08.158.132.105.132-.026 0 .053.131.158.263.342.42.368.42.368.5 0 .052.027.078.08.078.052 0 .052.027.026.053-.027.026 0 .105.078.184a.399.399 0 0 1 .106.21c0 .053.026.106.052.106.027 0 .053.052.053.131 0 .079.052.29.079.5.079.394.105 1.735.052 2.05-.026.106-.052.29-.079.422a.835.835 0 0 1-.105.289c-.105.079-.342.71-.315.789.026.052 0 .052-.027.026-.052-.026-.131.079-.236.237-.08.158-.184.289-.21.289-.027 0-.053.053-.053.105 0 .053-.027.105-.08.105-.104 0-.288.184-.21.237.027.026 0 .026-.026 0-.052-.026-.105 0-.131.053-.08.105-.684.473-1 .604-.131.053-.289.132-.341.158-.053.027-.106.053-.132.027-.026-.027-.184 0-.342.052-.184.079-.5.105-.894.079-.92-.026-.973-.026-.946-.079.026-.026-.027-.052-.106-.052s-.157-.027-.21-.027a5.29 5.29 0 0 1-.605-.263c-.052-.026-.237-.131-.394-.21-.158-.079-.316-.184-.342-.237-.026-.052-.079-.105-.132-.105-.026 0-.184-.131-.341-.29-.158-.157-.369-.394-.474-.499-.105-.105-.184-.184-.131-.158.105.053-.08-.315-.263-.526a1.138 1.138 0 0 1-.132-.315c-.026-.105-.052-.21-.079-.237-.026-.026-.052-.105-.052-.184a8.245 8.245 0 0 0-.132-.71c-.079-.29-.052-1.21.027-1.315.052-.052.052-.105 0-.184-.053-.079-.053-.079 0-.052.052.026.105-.053.131-.263.079-.395.079-.421.132-.605.026-.079.078-.158.105-.158.026 0 .052-.026.026-.052-.026-.027 0-.106.079-.158.052-.053.105-.132.105-.158 0-.237.684-1.078 1-1.236.105-.053.183-.131.183-.158 0-.026.106-.079.237-.131.132-.053.316-.132.395-.21.105-.053.341-.158.552-.211.236-.053.342-.105.315-.158-.026-.052 0-.052.053 0 .158.08.21.08.237.053m30.24.184c-.078.026-.105.053-.078.105.026.026 0 .053-.053.053-.158-.027-.131 8.046.026 8.23.08.08.106.158.08.185-.106.078-2.446.052-2.893-.027a4.144 4.144 0 0 0-.605-.079c-.08 0-.158-.052-.158-.105 0-.052-.026-.079-.053-.079-.105.027-.867-.368-.867-.447 0-.052-.027-.052-.053-.026s-.131-.053-.21-.158c-.105-.105-.21-.184-.237-.158-.053.027-.053.027-.026-.026.026-.052-.053-.184-.158-.315-.342-.369-.579-.763-.684-1.131-.052-.184-.131-.342-.158-.395-.078-.105-.157-.552-.184-.946 0-.184-.026-.342-.026-.395 0-.026 0-.21.026-.394.027-.184.053-.447.053-.631.026-.158.079-.342.131-.368.053-.027.08-.053.027-.053-.027 0-.027-.053 0-.079.052-.053.105-.21.158-.394.052-.158.105-.29.131-.29.026 0 .079-.052.105-.131.132-.342 1.052-1.368 1.236-1.368.026 0 .053-.026.026-.078-.026-.053 0-.08.053-.053.105.026.473-.158.473-.237 0-.026.053-.052.132-.026.079 0 .21 0 .29-.053.446-.184.867-.236 2.208-.21.763.026 1.341.053 1.289.079m31.213.079-.157.131v5.312l-.894-.026c-1.157-.053-1.342-.079-1.315-.132.026-.052-.447-.157-.552-.131a.057.057 0 0 1-.053-.053c0-.026-.132-.131-.316-.21-.184-.079-.315-.184-.289-.21 0-.027-.105-.185-.263-.342-.158-.158-.29-.316-.315-.342 0-.026-.053-.21-.106-.368-.052-.158-.105-.29-.131-.263-.026.026-.026-.184-.026-.421.026-.342 0-.447-.053-.42-.053.026-.053 0 0-.106a.588.588 0 0 0 .079-.263c0-.052.079-.29.184-.473.105-.184.184-.395.184-.447 0-.053.026-.08.053-.053.026.026.131-.052.184-.158.184-.263.394-.447.552-.526.131-.052.316-.184.526-.315.105-.053.184-.079.42-.132a.619.619 0 0 0 .211-.052c.42-.184 2.288-.184 2.077 0m5.18.684c-.025.105-.025.026-.025-.158s0-.29.026-.184a.748.748 0 0 1 0 .342m0 .683c-.026.08-.026.027-.026-.158 0-.184.026-.236.026-.157a.639.639 0 0 1 0 .315m-16.83 9.52c-.026.026-.052.315-.052.657 0 .736-.027.71.788.684h.579l-.605-.053-.605-.053.631-.026.632-.026-.027-.605-.026-.605-.631-.026c-.342.026-.658.026-.684.053m2.367.105c-.026.079-.026.394-.026.683l.026.526h1.262v-1.314l-.605-.027c-.578-.026-.605-.026-.657.132m.92 1.183a2.328 2.328 0 0 1-.605 0c-.157-.026-.026-.026.29-.026.341 0 .473 0 .315.026m-45.65 3.866-.237.263.237-.263c.262-.21.315-.263.262-.263-.026 0-.131.105-.262.263m47.86-.106c-.027.027-.211.027-.448.053-.237 0-.473.053-.526.105-.052.053-.131.08-.158.053-.157-.105-1.92.29-2.156.473-.053.026-.105.053-.131.026-.027-.026-.185.027-.369.106a9.831 9.831 0 0 1-.63.236c-.159.053-.29.105-.264.158.027.026-.026.079-.105.079-.21 0-1.341.552-1.341.657 0 .053-.026.053-.053.027-.026-.027-.131.026-.21.105a.734.734 0 0 1-.237.131c-.079 0-.789.5-.867.605-.027.053-.08.08-.106.053-.026-.027-.131.026-.236.131a1.49 1.49 0 0 1-.342.263c-.105.053-.158.132-.132.184.027.053 0 .08-.026.053-.052-.026-.131.026-.237.105-.078.079-.341.342-.578.552-.237.237-.552.579-.736.79-.184.21-.369.42-.395.473a.29.29 0 0 0-.079.157c0 .053-.026.08-.079.08-.052 0-.052.025-.026.078s.026.053-.026.026c-.053-.026-.132.053-.21.21-.08.159-.185.343-.29.448-.079.105-.184.236-.21.342-.026.079-.053.157-.105.157-.027 0-.106.132-.184.263-.053.158-.21.395-.29.579-.105.184-.157.368-.131.394.026.053 0 .08-.026.08-.08 0-.29.394-.237.446.026.027-.053.184-.132.368-.105.184-.21.526-.263.737-.052.21-.105.394-.131.42-.026.027-.079.185-.105.395-.053.394-.21 1.21-.29 1.394a.252.252 0 0 0 .053.236c.053.08.053.105 0 .08-.105-.053-.105-.106-.105 1.682 0 1.262.026 2.183.079 2.183 0 0 .052.263.105.552.131.789.131.789.237.92.078.08.078.106 0 .106-.08 0-.08.026 0 .105a.499.499 0 0 1 .105.315c.026.105.052.29.105.342a.6.6 0 0 1 .079.29c0 .078.026.157.052.157.027 0 .106.158.158.342.053.184.132.342.158.342.026 0 .053.026.026.079-.026.026 0 .079.027.079.026 0 .079.052.079.131 0 .079.026.132.052.132s.079.105.105.21c.027.131.08.21.105.184.027-.026.053 0 .053.053 0 .157.237.604.342.657a.178.178 0 0 1 .105.158c0 .131.21.42.21.315 0-.026.053.053.08.184.052.132.13.237.183.237.053 0 .08 0 .053.026-.053.08.579.895 1.236 1.578.368.368.605.579.631.526.026-.052.026-.052.053.026 0 .106.473.553.578.553.026 0 .184.131.316.263.158.157.368.315.473.394.105.053.342.21.526.316.5.315 1.394.789 1.499.789.053 0 .105.026.105.052 0 .079.526.29.763.316.079 0 .131.026.131.052-.026.053.21.132.42.184.08 0 .238.08.527.184.079.027.184.053.237.027.026-.027.052 0 .052.026 0 .079.92.29 1.315.316.131 0 .263.052.29.078.052.027.078.027.078-.026 0-.052.026-.079.079-.079.053 0 .053.027.026.053-.079.105.71.184 2.314.184 1.657 0 2.525-.053 2.446-.184-.026-.053 0-.053.105 0a.313.313 0 0 0 .158.052c.026-.026.184-.052.947-.21.315-.052.63-.131.71-.184.078-.026.368-.131.63-.21.264-.08.606-.21.737-.263.131-.053.316-.132.394-.158.5-.21 1.105-.552 1.131-.605.026-.052.053-.079.105-.052.027.026.158-.027.263-.106.106-.079.29-.184.421-.236.132-.053.237-.132.237-.158 0-.026.131-.105.263-.184.157-.08.342-.21.42-.316.106-.105.185-.158.21-.158.027.027.106-.026.763-.63.21-.211.395-.343.395-.343s.052 0 .105-.078c.053-.053.079-.158.053-.184-.027-.053-.027-.053.026-.027.053.027.079 0 .079-.079 0-.105 0-.105.079-.026.052.079.079.079.079 0 0-.053.078-.158.184-.237.105-.079.184-.157.184-.184 0-.026.158-.21.342-.42.184-.21.341-.421.341-.474 0-.052.027-.079.08-.079.052 0 .078-.052.078-.105 0-.052.053-.131.132-.184.079-.053.131-.105.105-.131-.026-.027.026-.132.131-.237.158-.184.447-.763.421-.842 0-.026.026-.052.079-.052a.113.113 0 0 0 .105-.105c0-.158.026-.21.158-.342.079-.08.184-.29.237-.5.052-.21.157-.394.184-.42.052-.027.052-.053.026-.053s-.026-.053.026-.105c.053-.053.053-.132.053-.184-.026-.053-.026-.08.026-.08.027 0 .08-.13.105-.262.027-.158.08-.29.106-.316.026-.026.131-.315.184-.63.079-.316.157-.606.184-.632.026-.026.026-.053.026-.079-.026-.026 0-.131.026-.237.184-.5.263-4.339.08-5.101a2.797 2.797 0 0 1-.08-.526c0-.079-.026-.21-.052-.29a5.497 5.497 0 0 1-.105-.341c-.08-.29-.08-.316-.106-.342l-.052-.263a1.79 1.79 0 0 0-.08-.316 4.776 4.776 0 0 1-.183-.525c-.08-.237-.158-.448-.184-.448-.027 0-.08-.078-.105-.184a1.359 1.359 0 0 0-.158-.341c-.053-.08-.08-.106-.027-.08.053.027 0-.078-.105-.236-.105-.158-.21-.368-.21-.447a.628.628 0 0 0-.079-.184c-.026-.026-.105-.158-.184-.29-.079-.13-.21-.341-.29-.42-.078-.105-.157-.21-.13-.263.026-.053-.027-.079-.08-.079-.052 0-.105-.026-.079-.079.027-.026 0-.079-.078-.079-.053 0-.106-.026-.08-.052.053-.08-.42-.737-.473-.658-.026.027-.026.027 0-.026.053-.079-.289-.5-.394-.447-.026 0-.053 0-.026-.053.052-.079-.658-.789-.763-.736-.026.026-.053 0-.026-.026.026-.053-.027-.132-.132-.21-.105-.08-.315-.264-.5-.421a7.777 7.777 0 0 0-.999-.763c-.079-.053-.184-.131-.263-.184-.079-.053-.263-.184-.42-.237-.158-.079-.263-.157-.237-.184.026-.026.026-.026-.026-.026-.053.026-.158-.026-.29-.105a.729.729 0 0 0-.315-.132c-.053 0-.158-.052-.184-.131-.027-.08-.08-.105-.08-.08 0 .027-.157-.025-.315-.13-.184-.106-.289-.132-.263-.08.027.053 0 .027-.079-.026a1.182 1.182 0 0 0-.315-.158 4.212 4.212 0 0 1-.5-.184 3.029 3.029 0 0 0-.552-.157c-.131 0-.237-.027-.237-.053s-.079-.053-.184-.026c-.105 0-.21-.027-.21-.08-.026-.104-.342-.157-1.368-.288a1.557 1.557 0 0 1-.394-.106c-.053-.052-.263-.052-.447-.052-.184.026-.342 0-.342-.027.053-.026-2.524-.052-2.577 0m-80.283.106a4.16 4.16 0 0 1-.552.105c-.737.079-1.263.184-1.315.263-.026.052-.053.052-.079-.027-.026-.078-.053-.078-.105-.026-.053.08-.21.132-.684.21-.105.027-.184.08-.184.106a.057.057 0 0 1-.053.052c-.052 0-.184.027-.604.21-.158.053-.29.132-.316.158a1.593 1.593 0 0 1-.342.185c-.158.078-.289.157-.289.184 0 .026-.105.105-.237.157-.131.053-.236.132-.236.158 0 .026.026.026.079 0 .052-.026.052-.026.026.026-.026.053-.08.053-.105.053-.08-.053-.526.237-.684.447-.053.079-.237.21-.368.316-.158.105-.263.236-.263.289 0 .053-.026.105-.08.105-.078 0-1.104 1.052-1.13 1.157 0 .026-.184.21-.368.42-.21.211-.42.5-.5.632-.079.132-.157.237-.184.237-.026 0-.052.052-.052.131 0 .08.026.132.052.132.027 0 .184.131.342.263.158.157.368.315.473.368.106.052.185.131.185.184 0 .052.052.105.131.105.079 0 .29.158.473.342.184.184.395.342.447.315.053-.026.08 0 .053.027-.026.026.026.105.105.158.08.052.263.184.395.315.131.132.263.237.289.237.053 0 .394.289.736.605.105.105.237.157.263.131.053-.026.053-.026.026.026-.026.053 0 .08.08.08a.3.3 0 0 1 .183.078c.027.053.027.053.053 0 0-.052.105-.184.21-.29a16.2 16.2 0 0 0 .526-.578c.421-.5 1.394-1.499 1.394-1.42 0 .027.053 0 .105-.052.053-.053.08-.132.053-.158-.026-.053 0-.053.026-.026.053.026.079.026.079-.027 0-.052.026-.052.079-.026.026.026.079 0 .105-.053.026-.052.079-.105.105-.078.027.026.132-.027.21-.106a.888.888 0 0 1 .29-.184c.079-.026.131-.079.131-.105 0-.026.027-.052.08-.026.026.026.13 0 .236-.053a1.37 1.37 0 0 1 .394-.158c.132-.026.29-.078.316-.105.026-.026.158-.052.237-.052.105 0 .394-.053.657-.08.342-.025.552-.025.684.027.158.053.21.053.289 0 .079-.052.079-.052.026.026-.052.08-.026.08.053.053.052-.026.131-.026.158 0 .026.026.21.105.42.158.421.079.947.394.947.552 0 .053.079.105.132.131.078.027.184.132.236.237.053.105.132.21.158.237.053.026.342.63.473 1 .106.288.158 1.13.08 1.577-.053.473-.211.973-.264 1.025-.026.027-.052.08-.026.106.026.026 0 .052-.026.052-.053 0-.08.053-.08.105 0 .132-.367.763-.683 1.131-.131.158-.237.316-.237.368 0 .053-.026.08-.078.08-.053 0-.053.025-.027.078.027.026 0 .079-.052.079-.132 0-.553.42-.553.552 0 .053-.026.08-.052.053-.026-.027-.105 0-.158.079-.053.052-.053.105-.026.105.026 0-.053.079-.21.184-.237.158-.395.315-.185.21.053-.026.053-.026.027.027-.027.052-.08.078-.106.052-.078-.052-.289.21-.236.263.026.026.026.053-.027.026-.105-.026-.525.237-.552.369a.793.793 0 0 1-.21.21.993.993 0 0 0-.316.263 1.455 1.455 0 0 1-.368.315c-.131.08-.237.185-.21.21.026.027 0 .053-.08.053-.052 0-.21.106-.315.21-.105.106-.21.185-.21.185s-.053.026-.132.079c-.078.079-.131.158-.131.21 0 .053-.026.08-.079.053-.026-.027-.079 0-.079.026 0 .053-.052.079-.105.079s-.21.105-.316.21c-.131.132-.21.184-.21.158 0-.026-.131.079-.29.21-.157.158-.288.29-.288.342 0 .027 0 .053-.053.027-.026-.027-.132.026-.237.105-.105.079-.263.236-.394.342-.132.105-.316.263-.42.342-.106.078-.185.157-.238.157-.026 0-.078.053-.105.132-.026.079-.079.131-.105.105-.053-.026-.552.342-.657.5-.027.052-.08.078-.132.052-.026-.026-.079 0-.079.026 0 .027-.079.106-.184.158-.105.053-.184.132-.184.158 0 .053-.052.105-.131.132-.08.026-.29.184-.474.368s-.368.315-.394.315c-.026 0-.184.132-.342.263-.158.158-.42.368-.578.474-.158.105-.263.236-.237.262.026.027 0 .053-.053.053-.052 0-.21.079-.315.21-.106.106-.29.263-.395.316-.105.079-.158.158-.131.21.026.053.026.053-.027.027-.052-.027-.105 0-.131.052-.026.053-.079.105-.132.105-.131 0-.341.237-.262.316.026.026.026.053-.027.026a.774.774 0 0 0-.236.08l-.158.078v4.839l10.045-.027 10.045-.026V137.92l-5.18-.026c-5.049-.026-5.18-.026-5.47.132a1.536 1.536 0 0 1-.342.131c-.026 0-.105.053-.157.105-.053.053-.21.132-.369.184-.131.053-.289.132-.341.184-.053.053-.263.132-.447.21-.185.08-.316.159-.29.185.027.026 0 .052-.026.079-.21.026-.368.079-.657.236-.237.132-.316.132-.29.08.027-.053.08-.106.132-.106.052 0 .158-.079.263-.158.21-.158.473-.368.789-.605.105-.078.315-.263.447-.394.131-.131.289-.237.342-.237.052 0 .157-.079.21-.157.053-.08.105-.132.105-.106 0 .053.21-.105.5-.368.105-.105.21-.184.263-.21.026-.026.052-.053.052-.105 0-.027.027-.027.053 0 .052.026.131-.027.184-.106.053-.078.158-.157.21-.157.053 0 .132-.053.158-.08.026-.052.158-.157.263-.21.21-.131.395-.263.684-.525.105-.08.263-.185.342-.237.079-.026.157-.079.131-.132-.026-.026.026-.079.132-.105.21-.052.552-.368.5-.42-.027-.027 0-.027.026 0 .052.026.157-.027.236-.106.08-.079.237-.21.368-.289.132-.079.21-.131.184-.131-.026 0 0-.053.053-.132.053-.079.132-.131.184-.105.053.026.158-.053.815-.605.132-.105.368-.316.553-.447.157-.131.315-.263.315-.316 0-.052.026-.078.079-.052.026.026.079 0 .105-.079.026-.053.079-.105.132-.105.052 0 .289-.21.578-.447.263-.263.526-.447.552-.447.027 0 .053-.053.053-.105 0-.053.079-.132.158-.185.131-.078.552-.5 1.025-1.025.08-.105.132-.21.105-.237-.026-.026 0-.052.027-.026.052.026.131-.026.184-.158.052-.105.158-.263.237-.315.078-.08.131-.158.105-.184-.027-.027 0-.053.026-.053.053 0 .631-.92.605-.973 0 0 .026-.105.079-.21.052-.106.079-.21.052-.237-.026-.026 0-.053.08-.053.052 0 .104-.026.104-.052v-.105c0-.027.027-.08.027-.106 0-.026.052-.105.079-.184.026-.079.026-.158-.053-.184-.079-.052-.079-.052.026-.052.08 0 .132-.053.132-.158 0-.08.026-.184.052-.21a.2.2 0 0 0 .053-.106c0-.026.026-.105.053-.158.078-.184.21-1.63.21-2.366 0-1-.158-2.288-.263-2.367-.053-.026-.053-.052-.026-.052.026 0-.027-.237-.106-.553-.105-.368-.184-.526-.262-.526-.053 0-.08 0-.053-.026.079-.079-.132-.605-.316-.789-.079-.079-.131-.158-.079-.158.053 0-.026-.078-.105-.184-.079-.105-.131-.184-.105-.184.026 0 0-.026-.052-.079-.08-.052-.132-.105-.132-.184 0-.052-.026-.105-.079-.105-.052 0-.052-.026-.052-.052.105-.106-1.71-1.71-1.894-1.71-.052 0-.105-.052-.131-.105-.027-.053-.08-.105-.158-.079-.053.026-.105 0-.105-.026s-.08-.079-.184-.105c-.106-.027-.184-.08-.184-.105 0-.027-.053-.053-.106-.027-.052.027-.105.027-.105-.026s-.105-.105-.236-.158c-.132-.052-.369-.158-.5-.21a3.324 3.324 0 0 0-.657-.184c-.21-.027-.342-.08-.29-.105.08-.053-.578-.185-1.34-.263a4.16 4.16 0 0 1-.553-.106c-.132-.052-.184-.052-.21.027-.027.052-.053.052-.08-.027-.052-.079-.052-.079-.052 0 0 .053-.026.08-.079.08-.052 0-.052-.027-.026-.08.052-.105-1.815-.079-1.893.027-.027.052-.053.052-.053 0-.026-.08-.053-.08-.263 0m47.018 2.919.026 2.63 4.707.025c3.76.027 4.707 0 4.786-.078.053-.053.21-.158.369-.21.157-.08.262-.159.262-.185 0-.026.053-.079.106-.079.052 0 .105-.026.105-.079 0-.026.052-.079.105-.079s.184-.078.29-.184c.104-.105.21-.184.262-.184.053 0 .21-.105.368-.21s.342-.21.395-.21c.052 0 .079-.027.079-.053s.079-.105.184-.184c.131-.079.158-.105.105-.026-.053.052-.079.131-.053.157.027.027 0 .053-.052.053-.132 0-.71.605-.631.657.026.027.026.053-.027.027-.105-.027-1.498 1.367-1.446 1.446.026.053.026.053-.026.026-.08-.079-.684.526-.605.605.026.053.026.053-.026.026-.08-.078-.263.08-.21.184.026.053.026.053 0 .027-.08-.053-.553.368-.5.447.026.026 0 .052-.053.052-.131 0-.657.553-.631.684.026.053 0 .079-.053.053-.052-.027-.394.263-.815.71-.42.42-.71.736-.684.736.027 0-.105.105-.262.237-.237.184-.316.289-.29.368.027.079.027.105-.026.079-.053-.027-.263.131-.473.342-.21.21-.369.394-.342.394.026 0-.053.079-.158.158-.447.342-.763.762-.605.762.026 0 .08.158.105.342.027.184.053.342.053.368 0 .027.053.263.105.526.053.263.132.526.158.553.053.078.105.236.184.788.026.158.079.316.105.316.026 0 .053.026.053.053 0 .026 0 .131.052.236.027.105.053.237.08.316.026.131.104.131 1.446.184 2.182.079 3.55.21 3.813.394l.105.053c.026 0 .131.053.236.079.106.052.21.079.237.079.026 0 .158.079.316.184.157.105.315.184.394.184.079 0 .132.026.105.052-.026.027.105.185.29.369.184.184.315.368.315.42 0 .053.053.106.105.132a.221.221 0 0 1 .105.184c0 .079.027.158.053.184.026.026.053.131.079.237.026.105.053.236.105.315.053.08.079.342.053.579-.027.605-.027.605-.08.605-.025 0-.078.131-.104.289a2 2 0 0 1-.21.552c-.106.132-.185.29-.185.316 0 .105-.63.63-.894.815-.158.079-.29.184-.29.236 0 .053-.025.053-.052.027-.026-.027-.21.026-.368.105-.394.184-.5.21-.973.21-.21 0-.368.027-.342.053.053.079-1.262-.026-1.735-.132-.737-.157-1.236-.289-1.42-.394a.798.798 0 0 0-.29-.079c-.052.026-.105 0-.078-.053 0-.052-.027-.078-.053-.078-.237-.027-1.552-.894-1.84-1.21-.106-.105-.159-.132-.132-.079.026.053-.237-.184-.579-.552-.447-.447-.684-.631-.762-.605-.053.026-.106.053-.08.079.027.026-.078.131-.183.263-.106.131-.184.158-.158.105.026-.053-.21.158-.5.447-.552.552-.605.605-.71.605-.026 0 0 .026.053.079.079.052.079.079-.026.079a.198.198 0 0 0-.185.131c-.026.08-.078.105-.078.08 0-.106-1.841 1.682-1.841 1.787 0 .027-.027.053-.08.027-.025-.027-.078 0-.078.078a.113.113 0 0 1-.105.106c-.053 0-.105.026-.105.078 0 .106.236.342.289.316.026-.026.053 0 .053.053 0 .052.026.079.078.079.053 0 .08.026.08.052 0 .105.525.631.63.631.027 0 .08.053.106.132.026.105.71.683 1.157.999.079.053.289.21.447.316.368.262.63.42 1.025.604.184.08.342.184.342.21.026.027.184.106.395.158.184.053.394.158.42.185.053.026.263.105.5.184s.447.157.5.184c.026.026.184.079.315.105.132.026.316.052.395.079.078.026.236.052.341.079.106.026.263.052.316.079.447.157 2.656.368 2.577.236-.053-.052-.026-.079.105 0 .237.132 3.024 0 2.92-.131-.027-.027.052-.053.157-.027.105.027.237 0 .29-.052.052-.053.183-.079.288-.105.106-.027.21-.027.21-.053 0 0 .08-.026.159-.026.078 0 .289-.08.42-.132.368-.157.526-.21.684-.236.079-.027.184-.08.21-.132.053-.052.132-.105.184-.105a.282.282 0 0 0 .158-.053.2.2 0 0 1 .105-.052c.027 0 .158-.08.29-.184.131-.105.289-.184.342-.184.052 0 .157-.08.236-.158.08-.079.237-.184.342-.263.105-.079.184-.158.158-.21-.026-.053-.026-.053.026-.027.079.053 1.289-1.104 1.368-1.315.026-.078.078-.131.105-.131.026 0 .079-.053.105-.132.026-.078.105-.184.158-.263.079-.078.157-.236.236-.394.053-.131.158-.316.237-.42a1.17 1.17 0 0 0 .158-.316c0-.08.052-.21.105-.29a.588.588 0 0 0 .079-.262c0-.053.026-.106.079-.132.052-.026.079-.131.079-.29 0-.13.026-.262.052-.262.027 0 .053-.08.053-.184 0-.105.026-.21.052-.237.027-.026.053-.131.053-.237 0-.105.026-.184.053-.184.052 0 .052-.052.105-1.446.026-1.052-.053-2.183-.184-2.314-.027-.026-.053-.132-.053-.21 0-.08-.026-.185-.052-.21a.2.2 0 0 1-.053-.132c0-.053 0-.132-.026-.21 0-.08-.053-.106-.106-.08-.052.027-.052.027-.026 0 .026-.026 0-.105-.026-.157-.079-.08-.079-.106.026-.053.08.053.08.026-.026-.079-.079-.079-.105-.158-.079-.184.026-.026 0-.052-.026-.052-.027 0-.08-.027-.053-.08.053-.078-.131-.368-.21-.289-.027.027-.053.027-.027-.026.027-.131-.078-.394-.184-.394-.052 0-.105-.027-.105-.08 0-.052.053-.052.079-.026.053.027-.026-.052-.131-.21-.132-.131-.237-.29-.237-.342 0-.052-.026-.052-.079-.026-.026.026-.079 0-.079-.026 0-.08-.552-.632-.631-.632-.026 0-.105-.078-.184-.184-.053-.105-.184-.184-.263-.184-.079 0-.132-.026-.132-.052 0-.027-.157-.158-.341-.29-.184-.131-.342-.184-.342-.184s-.053 0-.132-.052c-.157-.132-.63-.342-.683-.29-.027.027-.053 0-.053-.052 0-.053-.026-.079-.053-.053-.026.027-.078 0-.078-.026s-.106-.079-.21-.079c-.106 0-.211-.052-.238-.105-.078-.079-.867-.316-1.078-.316-.079 0-.157-.026-.157-.078 0-.027-.185-.08-.369-.106-.578-.052-.578-.052.684-1.21.368-.341.71-.683.763-.736.052-.052.131-.157.21-.236.079-.08.105-.132.053-.08-.08.027-.08.027-.053-.025.026-.053.079-.08.105-.053.027.026.158-.053.29-.184.131-.105.21-.21.157-.21-.026 0 .027-.053.105-.132.342-.21.632-.5.632-.578 0-.053.026-.08.026-.053.053.053.631-.526.605-.579 0-.026 0-.052.052-.052.027 0 .21-.132.395-.316.184-.184.368-.342.394-.342.026 0 .08-.052.105-.131.027-.079.08-.132.106-.132.052.027.604-.525.604-.604 0-.027.027-.053.053-.053.079.026.342-.237.342-.342 0-.052.026-.079.052-.052.08.052.316-.21.237-.29-.026-.026-.026-.052 0 0 .237.184.263-.079.263-2.419v-2.314h-18.302l.026 2.709m18.197.841c0 .579-.026.079-.026-1.104 0-1.21 0-1.683.026-1.079v2.183m-46.176-.92c.026.026.184.052.341.026l.263-.026-.341-.027c-.158 0-.29 0-.263.027m63.269 2.656c0 .026.315.052.631.105.342.026.447.052.71.158.079.026.132.052.158.052.026 0 .079.026.131.053.158.052.658.184.737.184a.2.2 0 0 1 .105.052c.052.08.526.369.973.579.131.053.236.131.236.158 0 .026.027.052.08.052.052 0 .183.105.289.21.105.106.236.211.263.211.105 0 1.21 1.157 1.21 1.262 0 .027.078.132.157.21.079.106.131.132.105.08-.026-.053-.026-.08.026-.053.053.026.08.079.053.105-.026.026.053.21.158.368.105.184.236.421.29.579.052.158.157.315.21.394.078.08.105.158.078.158-.026.026.027.184.106.342.078.184.184.5.236.736.053.237.105.447.132.526.026.079.052.158.052.21a.35.35 0 0 0 .08.21c.104.185.078 2.63-.027 2.762-.053.053-.079.105-.053.105.053 0-.236 1.42-.289 1.473-.079.079-.342.841-.29.894.027.026 0 .026-.052 0s-.079 0-.079.079-.026.158-.079.158a.503.503 0 0 0-.105.21c-.026.105-.079.21-.131.237-.053.026-.132.131-.158.236-.026.08-.079.158-.105.158-.027 0-.053.026-.053.079 0 .052-.052.131-.105.184-.053.053-.21.263-.368.42-.395.448-.579.632-.763.763-.105.053-.158.158-.131.184.026.053 0 .053-.027.027-.052-.027-.078-.027-.078.026s-.027.079-.08.079c-.026 0-.262.131-.473.315-.21.158-.473.342-.552.369-.079.026-.21.078-.237.131-.026.053-.315.158-.578.263-.263.079-.526.184-.552.21-.053.053-.316.106-1.026.237-.052 0-.105.026-.131.026-.106.08-1.92.158-2.051.106-.08-.027-.21-.053-.29-.08-.762-.078-1.367-.183-1.499-.315-.026-.026-.105-.026-.184.026-.079.053-.079.053-.052 0 .052-.079-.132-.184-.237-.131-.026.026-.053 0-.053-.026 0-.053-.341-.21-.473-.21-.026 0-.079-.053-.131-.106a.399.399 0 0 0-.21-.105c-.053 0-.132-.053-.185-.105-.052-.053-.131-.106-.184-.106-.105 0-.131-.026-.473-.315-.105-.105-.237-.184-.29-.184-.052 0-.105-.053-.131-.132a.318.318 0 0 0-.184-.184c-.079-.026-.342-.289-.605-.578-.263-.29-.5-.552-.526-.552-.026 0-.052-.08-.052-.132 0-.053-.053-.131-.106-.131-.052-.027-.079-.08-.079-.106.027-.026 0-.052-.026-.052s-.131-.132-.184-.263c-.052-.132-.131-.316-.184-.368-.026-.053-.131-.237-.21-.421-.08-.184-.184-.368-.21-.447-.132-.29-.237-.552-.237-.684a.221.221 0 0 0-.106-.184c-.078-.052-.078-.052 0-.052.08 0 .08-.027.027-.132-.08-.158-.237-1.025-.237-1.341 0-.132-.026-.263-.026-.316-.132-.21.105-2.813.263-2.945.079-.052.131-.342.079-.342-.027 0 .026-.184.157-.394.106-.21.263-.579.316-.763.053-.21.131-.342.158-.342.026.027.105-.105.158-.236.052-.158.157-.29.21-.29.053 0 .053-.026-.026-.078-.106-.053-.106-.08 0-.08.052 0 .157-.104.236-.21.08-.105.21-.289.29-.394.105-.105.157-.21.131-.263-.026-.053 0-.053.026-.026.053.026.158-.053.237-.21.105-.132.184-.237.21-.211.027.026.08-.026.08-.105.026-.08.078-.158.13-.158.053 0 .159-.105.264-.21.105-.106.236-.21.289-.21.053 0 .131-.053.158-.08.026-.052.158-.131.263-.184.131-.052.184-.131.157-.158-.026-.052 0-.078.08-.026.078.026.157.026.157 0 .079-.105.473-.29.605-.29.053 0 .105-.025.105-.078 0-.026.026-.079.053-.079a.857.857 0 0 0 .263-.079c.105-.052.289-.105.42-.105.106-.026.237-.053.263-.105.027-.026.184-.079.342-.105.158-.027.368-.053.421-.08.053-.026.29-.052.526-.052.237-.026.42-.026.447-.052-.079-.027 1.236 0 1.236 0m-60.929 13.963c0 .053.026.131.053.184.052.079.052.053.052-.079 0-.105-.026-.184-.052-.184-.027 0-.053.026-.053.079m-28.742 14.779v.42h.789v-.841H96.892v.42m1.236-.026v.395l.368.026.368.026v-.841h-.736v.394m31.871-.342v5.313l-.92-.027c-.79-.026-.947-.053-1-.158-.052-.079-.13-.131-.157-.131-.027 0-.08-.027-.08-.08 0-.052-.025-.052-.052-.025-.079.052-.079.105-.079-1.552 0-.789-.052-1.473-.078-1.525-.053-.079-.053-.079-.053 0 0 .052-.105.079-.316.079h-.315l-.026 1.157c-.027 1.183-.053 1.499-.185 1.735-.026.08-.052.158-.026.184.026.027-.052.106-.184.185-.131.078-.21.157-.184.157.026.027-.131.053-.473.08-.132 0-.184.025-.158.078.026.053.026.053-.053 0-.052-.053-.21-.105-.368-.131-.237-.053-.894-.553-.841-.632.079-.105 0-.525-.08-.473-.078.053-.078.026 0-.052.08-.106.132-2.236.027-2.236-.026 0-.237 0-.447-.026l-.394-.026-.027 1.472c-.026 1.894-.105 2.025-1.472 1.973l-.763-.027v-1.63c0-.894-.026-1.683-.053-1.762-.026-.079-.052-.105-.052-.053 0 .053-.105.08-.29.08-.183 0-.289-.027-.289-.08 0-.052-.026-.052-.079.027-.026.052-.078.815-.078 1.788v1.683h-1.657c-1.683 0-1.736 0-1.578-.263.026-.079.079-.184.105-.263.027-.079.053-.158.08-.184 0-.026.025-.105.078-.184.053-.08.079-.158.105-.158.027 0 .053-.053.053-.131 0-.08.052-.237.105-.342a.798.798 0 0 0 .079-.29c-.026-.026 0-.078.026-.078.053 0 .08-.053.08-.106 0-.052.025-.105.052-.105.158 0 .236-.657.105-.762-.184-.132-.5-.395-.631-.5a.392.392 0 0 0-.237-.105c-.079 0-.131-.027-.105-.08.026-.052-.026-.078-.158-.052-.026 0-.105-.052-.184-.105-.631-.42-2.261-.237-2.866.316-.08.079-.184.131-.237.131-.052 0-.105.026-.105.053 0 .026-.105.105-.21.184-.106.079-.185.158-.185.184.027.026 0 .079-.052.079-.053 0-.053.026-.026.052a.564.564 0 0 1 .105.184c.026.08.052.185.079.21.026.027.105.211.131.343.053.157.132.315.158.342.053.026.079.105.079.131.026.184.21.657.236.657.027 0 .027.053.027.106-.027.052 0 .105.026.105.053 0 .132.158.21.447.027.105-.052.131-1.025.131h-1.052V151.2h-.92c-.79 0-1 .026-1.368.158-.42.158-1.183.578-1.052.605.027 0-.026.079-.131.157-.105.08-.184.184-.184.21a.765.765 0 0 1-.132.264.658.658 0 0 0-.131.289.488.488 0 0 1-.053.184c-.079.105-.026 1.236.053 1.368.026.052.079.131.079.131 0 .079.289.5.342.5.078 0 .263.184.263.289 0 .052.052.079.131.052.079-.026.132 0 .132.053s.052.105.157.105c.105 0 .184.053.263.105.053.053.158.106.237.08.079-.027.131 0 .131.026 0 .052.342.105.92.078h.395v.316c0 .237-.052.368-.158.5-.105.105-.157.184-.131.21.026.026 0 .026-.053.026-.315-.026-.473.027-.447.106.053.078.027.078-.052 0-.053-.053-.316-.08-.552-.106-.263 0-.474-.052-.474-.079 0-.026-.105-.052-.236-.052-.21 0-.263.079-.316.526l-.026.236.394.08c.21.052.5.105.605.13.131.053.184.027.184-.025 0-.053.026-.053.079.026.052.079.105.079.21.026.105-.079.132-.079.132 0 0 .053.026.053.079-.026.052-.079.079-.079.079 0s.026.079.105.026c.052-.052.21-.105.342-.105.289-.053.762-.342.815-.526.026-.079.079-.131.105-.131.026 0 .053-.027.026-.08-.026-.052 0-.105.027-.13.052-.027.105-.237.131-.448l.053-.394h.736c.42 0 2.919-.027 5.575-.027 3.734 0 4.812-.026 4.838-.105.027-.052.053-.079.08-.052.026.026.13-.053.236-.132.105-.105.184-.158.21-.131.027.026.08-.053.132-.158.079-.184.079-.184.158-.026.052.078.105.131.131.131.026 0 .131.053.21.158.106.105.316.21.553.29.21.052.447.13.5.157.13.052 1.077-.132 1.209-.237.052-.052.105-.052.131-.026.027.026.158-.079.316-.237.263-.236.29-.263.368-.131.053.079.105.105.158.079.052-.027.052-.027.026 0-.21.236.552.394 1.972.42h1.21V149.78h-.42c-.264-.105-.448-.079-.448-.053m2.709-.026c-.027.026-.053 1.42-.053 3.077v3.05h.789V149.675h-.316c-.21 0-.394 0-.42.026m5.969.368.026.421.395.026.394.027v-.841l-.42-.027-.421-.026.026.42m1.157 0v.421l.42.026.422.027v-.395c0-.447-.027-.473-.526-.473h-.316v.394m18.013-.289c-.026.053-.052 1.262-.052 2.682v2.577h-2.577l.052-.21c.026-.132.132-.342.21-.5.237-.5.579-1.34.605-1.472.027-.08.08-.184.132-.263.158-.184.131-.342-.08-.447-.104-.053-.157-.105-.13-.158.026-.026 0-.053-.053-.026-.053.026-.184-.053-.263-.132-.132-.131-.184-.131-.237-.079-.052.08-.052.053-.052-.026 0-.132-.237-.29-.316-.21-.026.026-.053 0-.053-.053s-.026-.079-.052-.053c-.026.027-.105 0-.158-.052-.131-.105-.315-.158-.92-.237-.342-.026-1.263.105-1.263.184 0 .027-.157.105-.341.184-.184.08-.342.158-.342.184 0 .027-.053.053-.105.053-.053 0-.106.026-.106.053 0 .026-.078.105-.184.131-.263.132-.447.42-.342.579a.5.5 0 0 1 .08.236c0 .053.026.105.052.08.026-.027.053.025.053.078.026.184.368 1.026.42 1.026.027 0 .053.052.08.157 0 .106.052.21.104.29a.479.479 0 0 1 .106.289c0 .079.052.21.105.263.079.105-.027.105-1.131.105h-1.21l.027-1.946.026-1.946h-.789v2.393c0 1.604.026 2.393.079 2.446.053.026.053.079 0 .131a.778.778 0 0 0-.079.316c-.026.315-.184.447-.578.447-.369 0-.421.052-.5.5-.053.289.105.394.552.368.237 0 .973-.237.92-.29-.026-.026.027-.105.132-.184.105-.079.158-.184.131-.236-.026-.053 0-.106.027-.106.079 0 .079-.026.131-.63l.027-.448h8.625V149.675h-.368c-.263 0-.369.026-.395.105m2.709 2.945.026 3.077h.684l.026-3.077.026-3.076-.394-.027-.395-.026.027 3.13m5.969-3.051c-.079.342-.026.762.105.789.237.052.5.052.605-.053.079-.079.079-.079.053 0-.027.053-.027.079.026.079s.079-.131.053-.394l-.027-.395-.394-.026h-.421m1.157.079c-.026.052-.026.236-.026.394l.026.316.394.026.395.026v-.841h-.368c-.263 0-.395.026-.421.079m3.13.342c-.106.236-.185.42-.185.447.027.026-.052.105-.131.184-.08.105-.158.21-.158.236a.587.587 0 0 1-.158.263c-.079.106-.131.237-.105.29.026.052.026.052-.026.026-.053-.026-.08 0-.08.105 0 .079-.025.158-.052.158-.052 0-.158.21-.184.447 0 .079.053.263.105.394l.132.263h3.839c.21 0 .763.5.789.737 0 .078.026.184.026.21 0 .026.027.316 0 .605v.552h-6.206v-3.787c0-.105-1.84-.105-1.84 0 0 .027-.053.053-.106.027-.078-.027-.105-.027-.052.052.026.053.026.08 0 .053-.184-.105-1.052.315-.973.447.026.026 0 .052-.053.026-.079-.026-.394.263-.394.368 0 .027-.053.105-.105.158a1.066 1.066 0 0 0-.132.237.399.399 0 0 1-.105.21c-.158.184-.105 1.499.079 1.604.052.027.052.053.026.053-.105 0 .263.552.395.605.078.026.131.105.157.157.027.106.474.342.684.395.026 0 .079.026.132.052.184.106.736.106 7.626.106h6.994l.158.184c.237.263.736.526 1.13.578.185.027.395.053.448.08.184.078.29.078.316 0 .026-.027.157-.053.289-.053.131 0 .263-.027.29-.08.025-.026.104-.052.157-.026.079.027.105.027.052-.052-.026-.053-.026-.08.027-.053.105.053.683-.29.789-.447.105-.21 2.813-.21 3.05 0 .105.079.158.158.132.184-.027.026 0 .053.052.053.053 0 .184.079.29.158.105.078.236.131.289.105.052-.027.079-.027.052.026-.026.053.08.105.29.132.578.078.657.105.71.131.026.026.078 0 .078-.026 0-.027.184-.08.395-.105.42-.053.841-.237 1.183-.553l.21-.21 1.657.026 1.657.027V149.7h-.789v5.365h-1.052c-1.025 0-1.288-.053-1-.237.027-.026.053-.105.053-.21a.385.385 0 0 1 .053-.29c.053-.105.053-.131-.026-.079-.08.053-.08.027-.027-.026.053-.052.053-.184.027-.315-.027-.132-.053-.237-.053-.29-.052-.236-.105-.394-.158-.394-.026 0-.026-.079-.026-.158.026-.105.026-.131-.053-.105-.052.026-.078 0-.052-.053.052-.131-.789-.973-.947-.92-.052.026-.079 0-.052-.026.052-.08-.158-.158-.237-.106-.026.027-.053 0-.053-.026 0-.184-1.183-.263-1.472-.131-.132.052-.21.105-.21.079 0-.027-.053-.027-.08.026-.026.052-.157.079-.262.105-.342.079-1.42 1.315-1.131 1.315.026 0 0 .026-.053.052-.105.08-.184 1.368-.079 1.447.027.026.053.105.027.184-.027.131-.106.131-.92.131h-.869l.053-.289c.105-.526.053-1.394-.079-1.446-.052-.027-.079-.08-.052-.158.026-.132-.553-1-.684-1-.026 0-.105-.052-.158-.078-.21-.21-1.052-.474-1.473-.474-.657 0-1.972.658-1.972 1 0 .026-.052.105-.105.158-.131.131-.316.604-.316.788 0 .08-.026.184-.078.21-.106.053-.08.553 0 .79.21.526.236.526-.868.526h-.973V149.7h-.842v5.365l-1.025.026-1.026.026v-.736c0-.947-.079-1.262-.447-1.63-.473-.474-.526-.5-.657-.448-.053.027-.105 0-.105-.026 0-.052-.684-.079-1.762-.079-1.657 0-1.762 0-1.71-.131.027-.08.053-.158.053-.21 0-.053.053-.106.105-.132.053-.026.08-.079.053-.105-.026-.027 0-.08.026-.08.053 0 .079-.052.079-.104a.49.49 0 0 1 .132-.263c.078-.105.157-.263.21-.368.052-.106.158-.342.263-.474.105-.158.158-.289.158-.342-.027-.026 0-.078.026-.105.184-.105.026-.184-.368-.184h-.447l-.21.395m25.507 2.656v3.076h.368c.5 0 .473.184.473-3.05 0-3.34.027-3.13-.473-3.13h-.368v3.104m-99.769-1.42c-.526.21-1.025.552-1.157.841-.053.105-.105.184-.105.131-.026-.368-.263.684-.263 1.184 0 .868.079 1.104.552 1.604.184.21.894.657.815.5-.026-.053.027-.027.132.026.105.079.315.131.473.131a2.2 2.2 0 0 1 .316.027c.026 0 1.157.026 2.524.026h2.472l-.026-2.314-.027-2.314-.394-.027-.394-.026.026 1.946.026 1.946-1.315-.026-1.315-.027v-3.891l-.946.026c-.79.079-1.026.105-1.394.237m8.1-.158s0 .158-.027.368l-.026.368h.394c.21 0 .421.026.447.053a.2.2 0 0 0 .105.052c.579.08.763.605.737 2.025l-.027.973-1.577.026-1.552.027-.026.394-.026.394h4.023l-.026-1.525c-.027-1.315-.027-1.63-.08-2.025-.026-.184-.446-.736-.551-.71-.053.027-.08 0-.053-.026.026-.052-.079-.21-.184-.21a1.29 1.29 0 0 1-.263-.105c-.184-.08-1.236-.158-1.289-.08m34.028.027c-.105.026-.237.053-.29.079-.026.026-.183.079-.315.131-.131.053-.315.132-.368.21-.079.08-.158.132-.21.132-.053 0-.132.08-.184.184-.053.106-.132.184-.158.184-.184 0-.447.816-.447 1.368 0 .657.026.868.105.868.026 0 .053.052.053.105 0 .052.026.105.078.105.053 0 .053.026.027.053-.08.078.605.788.815.815.053 0 .184.079.29.131.104.08.236.105.288.08.053-.027.106 0 .132.025.026.053 1.42.08 4.365.053h4.34v-4.628h-.737l-.026 1.92-.027 1.92h-2.366l-.027-1.92-.026-1.92-.42-.026c-.316-.027-.395 0-.395.078v3.787h-2.525v-3.892h-.894c-.447.132-.946.132-1.078.158m-15.042 2.13c-.026.316-.026.079-.026-.552s0-.894.026-.579c0 .316.027.815 0 1.131m-25.533.132v1.551h-.5c-.552 0-1.026-.105-1.026-.21 0-.027-.026-.053-.079-.027-.026.027-.078 0-.078-.026 0-.053-.053-.079-.132-.079-.184 0-.605-.947-.526-1.21.026-.078.053-.236.08-.341.025-.106.078-.21.104-.263.027-.053.053-.132.027-.158-.027-.053-.027-.079.026-.053.079.053.29-.157.29-.263 0-.026.078-.105.21-.131a.797.797 0 0 0 .262-.132c.027-.026.053-.052.053-.026s.079 0 .184-.052c.105-.053.395-.106.658-.106l.473-.026v1.552m13.07 0v1.551h-.553c-.579 0-.973-.105-1.104-.263-.053-.053-.132-.079-.158-.053-.053.027-.08.027-.027-.026.027-.052.027-.079-.026-.079-.052 0-.105-.052-.131-.131-.027-.08-.105-.21-.184-.342-.184-.263-.184-.973 0-1.13.052-.053.079-.132.052-.159-.026-.026 0-.052.027-.052.052 0 .078-.026.078-.08 0-.104.369-.42.579-.499.105-.052.184-.105.158-.131-.027-.026.052-.026.157-.026.106.026.21 0 .237-.053.026-.053.237-.079.473-.079h.421v1.552m4.839-1.473c.473.158.815.29.894.394.052.053.105.106.158.106.052 0 .079.052.026.131-.026.079-.105.263-.158.447-.052.184-.158.395-.21.5-.053.105-.08.236-.053.263.026.026.026.079-.026.079-.079 0-.184.341-.158.447 0 .026 0 .052-.052.026-.027-.026-.106.105-.158.29l-.105.341-.605.026-.605.027-.132-.421c-.078-.237-.157-.42-.184-.42-.026 0-.052-.053-.026-.106s0-.105-.026-.105c-.053 0-.08-.053-.08-.105 0-.132-.341-.947-.472-1.079-.106-.131-.106-.131.42-.526.158-.105.237-.157.21-.105-.052.08-.026.08.053.027.342-.263.947-.342 1.289-.237m23.798 1.473v1.551h-.789c-.184-.026-.526-.079-.526-.079s-.052-.026-.131-.026c-.08-.026-.158-.08-.184-.132-.027-.052-.105-.105-.158-.105-.079 0-.158-.105-.42-.552-.159-.263-.185-1.026-.053-1.052.052-.026.052-.053.026-.079-.026-.026 0-.052.026-.052s.08-.053.08-.106c0-.052.157-.236.34-.394.448-.394.474-.394.553-.368.053.026.105 0 .132-.026.026-.027.289-.08.578-.08l.526-.026v1.526m13.648-1.473c.053-.053.184-.053.368-.026.158.026.316.052.368.079.053 0 .21.052.316.105.105.052.21.079.236.052.027-.026.158.053.421.29.158.157.158.184.053.341a.5.5 0 0 0-.08.237c.027.026-.025.158-.13.29-.185.262-.21.315-.106.236.08-.053-.158.394-.236.473-.027.027-.053.132-.08.237 0 .105-.026.184-.052.184s-.079.105-.105.21c-.079.316-.184.369-.789.342-.526-.026-.552-.026-.578-.184-.027-.105-.08-.236-.132-.289a.399.399 0 0 1-.105-.21.282.282 0 0 0-.053-.158.2.2 0 0 1-.052-.132 6.86 6.86 0 0 0-.316-.762c-.026-.08-.079-.21-.105-.29a.69.69 0 0 0-.132-.236c-.105-.105.106-.316.5-.5.079-.026.158-.105.184-.131.026-.027.105-.053.184-.027.08.027.132 0 .132-.052 0-.08.026-.08.079 0 .105-.026.131-.026.21-.08m14.253 1.474v1.551h-.5c-.526 0-1.13-.105-1.13-.21 0-.027-.053-.053-.106-.053s-.105-.026-.105-.079c0-.052-.026-.052-.053-.052-.026.026-.157-.185-.315-.447-.263-.5-.263-1-.027-1.263a.35.35 0 0 0 .08-.21c-.027-.053 0-.079.026-.053.026.027.079 0 .079-.079 0-.052.052-.105.105-.105.052 0 .079-.026.079-.052-.053-.08.341-.29.526-.29.105 0 .105 0 0-.078-.08-.053-.053-.053.131-.053.131.026.237 0 .263-.026.026-.027.237-.053.5-.053h.447v1.552m15.252-1.026c.078 0 .157.026.157.053 0 .026.053.052.132.052.237 0 .789.605.92 1.026.105.289.132.946.053.973-.026 0-.053.079-.08.184a1.078 1.078 0 0 1-.21.368c-.105.105-.184.237-.184.29 0 .052-.052.052-.105.052-.052 0-.079.026-.079.079.027.026-.078.079-.21.105-.131.026-.237.079-.237.105 0 .026-.026.053-.052.026-.026-.026-.21 0-.395.027-.21.026-.341.026-.368 0 0-.027-.079-.053-.158-.053-.21 0-.657-.263-.762-.473-.053-.106-.132-.158-.184-.132-.053.026-.08 0-.053-.026.026-.053.026-.105-.026-.158a1.44 1.44 0 0 1-.105-.315c-.027-.158-.08-.21-.132-.185-.052.027-.052 0 0-.052.053-.053.08-.237.08-.395 0-.157.052-.42.157-.63.079-.185.158-.369.158-.421 0-.027.026-.027.052-.027.027.027.132-.026.21-.131.158-.184.947-.474 1.184-.42.026.052.158.078.237.078m6.39 0c.368.053.815.29.973.5.052.078.131.157.157.131.027 0 .027 0 .027.026 0 .027.052.132.131.263.132.237.132.316.158.79.026.42-.394 1.288-.631 1.288a.452.452 0 0 0-.184.105c-.184.184-.947.315-1.289.21-.158-.052-.289-.079-.289-.052 0 .026-.053-.053-.158-.132-.105-.079-.184-.184-.236-.184-.053 0-.158-.105-.21-.237a1.934 1.934 0 0 0-.238-.315c-.052-.053-.105-.132-.105-.184-.026-.71.053-1.289.158-1.289.053 0 .053-.026.026-.052-.026-.027.08-.184.263-.342.158-.158.263-.263.21-.237-.052.027-.078.027-.078-.026 0-.026.105-.079.237-.105.131-.027.236-.08.236-.105 0-.027.053-.053.105-.027.053.027.158 0 .237-.026.079-.026.131-.053.158-.053.026 0 .184.027.342.053m-88.961 4.47c0 .237.052.395.079.395.026-.026.052 0 .052.052 0 .053.132.08.342.053l.342-.026v-.395c0-.447-.026-.473-.5-.473h-.315v.394m1.183-.368c-.026.027 0 .237.026.447l.053.395.29.026c.21.026.288 0 .288-.079s.027-.052.08.026c.052.08.078-.026.078-.368v-.473h-.394c-.21-.026-.421 0-.421.026m41.207.395c0 .342.026.42.105.368.079-.026.079 0 .052.026-.026.053.053.079.263.053l.316-.027.026-.447.026-.447h-.788v.474m1.236-.368c.026.052.026.078-.027.078-.131 0-.079.632.053.71.394.21.63.08.657-.42v-.263l.053.289c.052.29.052.29.052-.079v-.342l-.42-.026c-.29-.026-.421 0-.368.053m2.392-.027c-.052.053-.052.605 0 .71.027.053.237.08.448.105l.394.027.026-.368c.027-.237 0-.369-.052-.369-.053 0-.053-.026-.027-.078.027-.08-.71-.106-.789-.027m-36.446 3.63c0 .025-.027.052-.053.025-.079-.052-.447.106-.5.184a.2.2 0 0 1-.105.053c-.026 0-.052.026-.052.079 0 .026 0 .053-.053.026-.079-.052-.5.237-.5.368 0 .053-.052.106-.105.132-.105.026-.368.578-.42.763 0 .052-.053.131-.08.184-.105.157-.078 1.367.027 1.393.052.027.052.08.026.132-.026.052 0 .158.079.236.053.08.105.132.079.158-.026.026.079.158.21.316.132.158.263.289.263.315 0 .027.158.132.368.263 1.052.579 2.367.5 3.393-.21l.184-.132-.027-1.051-.026-1.052H110.514v.315c-.027.474.052.526.71.526h.552v.395c0 .341-.027.394-.132.42-.079.027-.131.053-.131.08 0 .052-.263.157-.605.183-.789.106-1.578-.473-1.736-1.236-.078-.394.027-1.314.132-1.235.052.026.158-.21.158-.342 0-.027.026-.053.052-.053.027 0 .184-.079.316-.184.131-.105.342-.184.42-.184.106 0 .158-.026.132-.053-.026-.026.079-.052.21-.052.132 0 .237.026.237.052 0 .027.132.053.29.08.157.026.315.104.394.157.052.053.158.079.184.053.052-.027.052-.027.026.026-.026.052.026.105.105.131.158.053.421-.157.421-.315 0-.026.053-.08.105-.105.053-.027.08-.08.08-.106-.027-.026 0-.078.078-.078.105 0 .105 0 0-.132-.079-.079-.158-.131-.184-.105-.026.026-.053-.026-.053-.079 0-.079-.026-.105-.105-.079-.052.026-.079 0-.079-.026.027-.027 0-.08-.052-.08-.053 0-.237-.052-.368-.13-.316-.106-1.683-.158-1.683-.027m10.729 0c-.08.026-.158.105-.158.132 0 .026-.053.052-.105.026-.053-.026-.21.026-.316.131-.526.395-.71.579-.71.658 0 .052-.053.105-.105.131-.053.027-.08.08-.053.158.027.079.027.105-.026.053-.079-.053-.237.342-.237.604a.6.6 0 0 1-.079.29c-.052.131-.052.21 0 .263.053.052.053.105 0 .157-.052.053-.052.132 0 .21.027.08.106.29.158.448.053.29.447.973.552.973.027 0 0-.026-.026-.079-.026-.053-.026-.053.026-.026a.145.145 0 0 1 .08.131c0 .105.499.447.604.42.053 0 .079.027.079.053 0 .106.473.21 1.078.21.579 0 1.026-.078 1.026-.236 0-.052.026-.026.079.026.052.08.078.08.078.027 0-.053.027-.08.08-.053.026.026.078 0 .078-.026s.053-.079.105-.079c.106 0 .658-.473.658-.579 0-.026.052-.131.131-.21a.812.812 0 0 0 .184-.368c.027-.132.08-.237.132-.263.079-.053.079-1.367 0-1.499-.026-.052-.105-.21-.158-.368-.052-.158-.105-.29-.131-.316a7.818 7.818 0 0 1-.237-.289c-.105-.158-.237-.237-.263-.237-.026.027-.079 0-.105-.078-.132-.316-1.894-.632-2.42-.395m14.07-.026c-.08.026-.132.052-.106.105.026.053.026.053-.026.026-.08-.052-.71.21-.71.29 0 .026-.08.078-.184.131-.342.158-.763 1-.816 1.657 0 .184-.052.342-.078.342-.027 0-.027.052.026.131.026.079.079.29.105.473.026.184.105.447.184.553.079.131.158.289.184.368.026.079.158.21.263.289.105.079.237.184.29.237.052.052.105.079.105.052 0-.026.052 0 .131.053.316.263.526.315 1.315.315.42 0 .841-.026.92-.052.08-.026.184-.079.237-.079.053 0 .105-.053.079-.105 0-.053 0-.08.026-.08.105.027.368-.104.368-.157 0-.026.053-.052.105-.052.08 0 .106-.027.08-.106-.027-.052-.027-.079.026-.079.079.053.447-.394.447-.552a.49.49 0 0 1 .131-.263c.21-.315.237-1.893.053-1.762-.027.027-.053-.026-.053-.131a.402.402 0 0 0-.105-.263c-.053-.053-.079-.105-.079-.158.079-.131-.763-.841-1.183-1-.421-.21-1.289-.288-1.736-.183m11.86 0a.2.2 0 0 1-.132.052c-.315.053-.815.447-.841.658 0 .052-.053.105-.079.105-.158.053-.105 1.236.026 1.341.08.053.105.105.08.132-.027.026 0 .052.078.052.053 0 .105.026.105.053 0 .105.447.342.842.42.21.053.447.106.526.132.578.237.736.316.736.368 0 .026.026.053.053.026.026-.026.052.08.052.21 0 .685-1.367.737-2.05.106-.106-.105-.159-.105-.185-.053-.026.08-.026.053-.053 0 0-.157-.131-.078-.263.158-.078.132-.157.237-.184.237-.026 0-.052.052-.079.131-.026.132.29.447.447.447.053 0 .185.053.29.132.394.29 2.025.394 2.182.158.027-.053.053-.08.08-.08.052.027.63-.367.604-.42-.026-.026 0-.105.079-.184.131-.132.21-1.078.105-1-.026.027-.052-.026-.026-.078.026-.158-.21-.579-.368-.631a.428.428 0 0 1-.158-.08c-.053-.078-.447-.236-.526-.236a.278.278 0 0 1-.131-.052 3.143 3.143 0 0 0-.474-.158 3.345 3.345 0 0 1-.552-.184c-.079-.053-.158-.08-.158-.08 0 .027-.052-.025-.131-.078-.316-.316.236-.947.71-.842.447.132.894.29.894.342 0 .027.026.053.052.027.027-.027.08 0 .106.078.052.158.236.132.289-.026.026-.079.131-.21.21-.315.158-.184.132-.526-.026-.421-.026.026-.105-.026-.132-.105-.052-.08-.105-.132-.131-.132a.857.857 0 0 1-.263-.079.774.774 0 0 0-.237-.079c-.026 0-.105-.026-.184-.052-.105-.053-.158-.026-.158.026 0 .053-.026.053-.052 0-.053-.052-.894-.105-.973-.026m4.917.105a.772.772 0 0 1-.105.21.317.317 0 0 0-.079.21c-.026.237-.21.632-.263.632-.026 0-.052.052-.052.105a.5.5 0 0 1-.08.237c-.236.42-.42.946-.394 1.025.027.053.027.053 0 .027-.052-.053-.157.131-.368.63-.079.185-.184.448-.263.58-.079.13-.105.262-.079.288.027.027 0 .053-.026.053-.053 0-.053.026-.026.053.026.026 0 .105-.08.184-.104.105-.236.42-.236.552 0 .053.21.053.526.053l.526-.027.132-.394c.078-.237.157-.395.184-.368.026.026.052-.053.078-.132.027-.158.053-.158 1.131-.184l1.105-.026.131.184c.08.131.08.158.026.131-.078-.052-.078-.026-.026.053.053.053.132.237.184.42l.105.316.474.027c.578.026.789-.263.394-.553-.105-.079-.236-.342-.236-.473 0-.079-.027-.158-.053-.184a.2.2 0 0 1-.053-.105c0-.027-.079-.21-.157-.395-.08-.184-.158-.368-.158-.394 0-.026-.026-.053-.08-.053-.052 0-.078-.052-.078-.105s-.079-.184-.158-.29c-.079-.104-.105-.183-.079-.157.158.105 0-.29-.473-1.236-.105-.21-.21-.473-.21-.552a.392.392 0 0 0-.106-.237.573.573 0 0 1-.131-.21c-.026-.053-.053-.079-.053-.026 0 .052-.131.078-.368.078h-.368l.342-.052.342-.053h-.395c-.342 0-.394.027-.447.158m20.117.105a2.198 2.198 0 0 1-.184.42c-.053.08-.079.185-.053.238.027.026 0 .078-.026.078-.079 0-.237.395-.158.474.027.026 0 .026-.026 0-.053-.026-.105.026-.131.105a26.21 26.21 0 0 1-.684 1.578c-.079.158-.158.368-.158.447-.026.079-.053.184-.079.21-.079.053-.315.631-.263.631.027 0-.026.106-.105.21-.21.316-.184.343.342.343.526.026.605-.027.631-.342 0-.08.053-.21.105-.237a.572.572 0 0 0 .132-.21c.052-.29.131-.316 1.262-.316h1.052l.079.21c.052.106.105.21.131.185.026-.027.026.026.053.078.052.553.158.658.789.658.289 0 .5-.026.473-.053a.564.564 0 0 1-.105-.184c-.027-.079-.053-.21-.105-.29-.053-.078-.08-.183-.106-.236 0-.052-.052-.105-.078-.131a1.297 1.297 0 0 1-.158-.368c-.053-.184-.132-.316-.158-.29-.026.027-.026 0-.026-.052.026-.053 0-.132-.08-.184a.392.392 0 0 1-.104-.237c0-.105-.027-.131-.053-.053-.026.053-.053-.026-.053-.184 0-.131-.026-.263-.078-.289a.145.145 0 0 1-.08-.131c0-.053-.026-.106-.078-.106-.027 0-.08-.078-.08-.21a.42.42 0 0 0-.104-.29.638.638 0 0 1-.158-.262c-.026-.105-.132-.342-.21-.552-.08-.184-.21-.474-.263-.605l-.106-.263h-.841l.342.052.342.053h-.316c-.184 0-.368-.026-.394-.053-.027-.105-.08-.052-.132.158m10.44.21c-.105.237-.158.474-.132.526.027.053.027.053-.026.027-.079-.053-.131.026-.184.263 0 .052-.053.184-.105.289a.857.857 0 0 0-.08.263c0 .026-.025.079-.052.079-.026 0-.079.105-.105.237-.052.21-.158.473-.237.552-.078.079-.21.5-.157.578.026.053 0 .053-.027.027-.052-.027-.079 0-.079.052 0 .053-.026.105-.078.105-.053 0-.053.08-.053.184.026.106 0 .158 0 .158-.026-.026-.105.132-.21.342-.421.973-.447.894.105.894.578 0 .578 0 .762-.526.21-.605.158-.605 1.368-.605h1.052l.131.263c.079.158.184.395.237.579l.105.315.526-.026.526-.026-.026-.21c-.027-.132-.053-.237-.08-.263a1.256 1.256 0 0 1-.157-.29c-.105-.236-.184-.447-.526-1.236-.105-.236-.21-.473-.21-.526 0-.052-.053-.105-.08-.131a.3.3 0 0 1-.078-.184.628.628 0 0 0-.08-.184.674.674 0 0 1-.104-.237 2.397 2.397 0 0 0-.21-.526 2.442 2.442 0 0 1-.237-.578c-.053-.158-.105-.263-.132-.263-.026 0-.079-.08-.105-.184-.053-.184-.079-.184-.5-.158l-.447.026-.315.395m12.727-.263c-.026.105-.079.184-.105.157-.026-.026-.052 0-.052.053a.697.697 0 0 1-.08.263c-.052.079-.078.158-.052.158.026 0-.053.131-.131.263a1.991 1.991 0 0 0-.21.394c-.053.29-.132.447-.185.447-.079 0-.21.5-.158.579.027.026.027.052-.026.026-.026-.026-.105.053-.158.184-.052.132-.158.368-.236.552a2.134 2.134 0 0 0-.132.368.057.057 0 0 1-.052.053c-.027 0-.106.132-.158.316-.053.184-.105.315-.132.315-.079 0-.21.5-.184.579.053.079 1.026.079 1 0-.027-.08.13-.421.262-.684.053-.105.106-.237.106-.29 0-.078.21-.104 1.157-.104h1.157v.184c0 .105.052.21.131.263.079.052.132.184.132.315.026.29.105.342.657.342.526 0 .552-.026.263-.631-.079-.184-.184-.42-.21-.526-.027-.105-.08-.237-.132-.29-.052-.052-.131-.236-.184-.42-.053-.158-.131-.316-.184-.342-.053-.026-.079-.079-.079-.158s-.105-.342-.237-.578a2.202 2.202 0 0 1-.21-.5c0-.052-.237-.552-.552-1.262-.079-.158-.158-.237-.184-.184-.027.052-.184.079-.368.052h-.342l.342-.052.341-.053h-.394c-.368 0-.368 0-.42.21m-99.244-.026c-.026.053-.026 1.157-.026 2.446v2.34h1.052v-.71c0-.394.026-.762.079-.815.026-.053.079-.079.079-.053 0 .027.105-.052.236-.21l.237-.263.21.21c.132.132.21.237.185.263-.027.027.026.08.105.132.079.053.158.131.158.184 0 .053.105.184.21.316.105.131.21.236.21.289 0 .026.105.158.21.263.106.131.211.236.211.29 0 .104.21.157.763.157.447 0 .526-.026.5-.105a.545.545 0 0 1-.053-.158c0-.026-.027 0-.08.026-.052.026-.052.026-.026-.026.027-.053-.052-.184-.157-.316-.106-.131-.21-.263-.21-.289 0-.026-.106-.158-.527-.631-.105-.105-.157-.21-.157-.263 0-.053-.027-.079-.08-.079-.052 0-.052-.026-.052-.053.026-.026-.052-.131-.158-.262-.105-.106-.21-.237-.21-.29 0-.026-.026-.052-.079-.026-.053.026-.053.026-.053-.026a.774.774 0 0 0-.078-.237c-.08-.158-.08-.184.026-.263.052-.053.105-.105.079-.131-.027-.027 0-.053.052-.053.106 0 1.21-1.104 1.21-1.21 0-.052.026-.052.053-.052.052.052.447-.395.447-.5 0-.105-.868-.105-1.079 0-.157.079-.683.605-.683.684 0 .026-.08.079-.158.131-.079.053-.394.342-.684.684-.683.736-.63.763-.63-.42 0-.553-.027-1.053-.053-1.105-.21-.026-1.026 0-1.079.131m5.076-.079c-.027.027-.053 1.131-.053 2.472v2.42h1v-4.944h-.448c-.263.026-.473.026-.5.052m2.104 0c-.026.027-.052 1.131-.052 2.446v2.42l.526.026.526.026v-3.208l.184.184c.105.105.184.21.184.236 0 .027.052.106.105.158.184.184.5.605.578.736.053.08.106.132.158.132.027 0 .08.053.105.158.027.105.08.184.106.184.026 0 .079.026.079.079 0 .052.052.131.131.21.079.079.184.21.263.316.079.105.237.289.368.447.132.131.237.289.237.315 0 .027.184.053.42.053h.421v-4.891l-.447-.027-.447-.026v1.552c0 1.472-.052 1.814-.184 1.446a1.235 1.235 0 0 0-.158-.237 1.502 1.502 0 0 0-.184-.21c-.026-.053-.131-.184-.21-.29-.079-.105-.184-.157-.21-.13-.027.025-.027.025 0-.027.026-.053-.053-.184-.158-.29a1.884 1.884 0 0 1-.29-.394c-.052-.105-.131-.184-.21-.184-.052 0-.079-.026-.052-.079.026-.026.026-.079-.027-.079-.026 0-.079-.079-.105-.157-.026-.08-.079-.132-.105-.106-.053.027-.079 0-.079-.079 0-.078-.053-.184-.132-.263l-.289-.289c-.184-.184-.92-.263-1.052-.158m11.045 0c-.079.027-.079.579-.079 2.472v2.42l1.42-.027c1.42-.026 2.209-.21 1.972-.447-.026-.026 0-.026.053 0 .131.053.526-.29.578-.447 0-.052.08-.158.158-.237.079-.078.105-.131.079-.131-.026 0-.026-.053.026-.079.053-.052.08-.184.105-.29.027-.104.053-.236.08-.288.078-.132.105-.92.026-1.026a1.441 1.441 0 0 1-.106-.315c-.026-.132-.052-.263-.105-.316-.052-.053-.052-.105-.026-.105s0-.027-.053-.08a.198.198 0 0 1-.131-.183c0-.053-.026-.105-.053-.105-.026 0-.079-.053-.105-.132a.318.318 0 0 0-.184-.184c-.079-.026-.21-.131-.315-.21a1.395 1.395 0 0 0-.448-.21c-.157-.027-.289-.08-.315-.106-.079 0-2.42-.026-2.577.026m11.202.053c-.026.053-.026 1.157-.026 2.446l.026 2.366.474.027.473.026v-1.604c0-1.71.026-1.788.342-1.21a.765.765 0 0 0 .236.316c.08.052.132.157.132.21.026.132.315.5.394.5.027 0 .053.026.027.079-.027.052.026.131.105.21.079.079.184.184.21.263.079.105.079.105.184 0 .053-.079.08-.158.053-.184-.026-.026 0-.053.052-.053.053 0 .106-.052.106-.131.026-.08.052-.158.078-.158.08 0 .92-1.262.895-1.341-.027-.026.026-.053.078-.053.08 0 .106.21.106 1.552v1.551l.5.027.499.026-.026-2.446-.027-2.445-.473-.027c-.473-.026-.71.08-.736.342 0 .027 0 .105-.027.132 0 .052-.026.052-.079.026-.026-.026-.105.079-.184.237-.078.157-.157.263-.184.236-.026-.026-.052.027-.052.106 0 .078-.027.157-.053.157s-.131.132-.21.263c-.132.21-.184.316-.21.526 0 .027-.053.053-.106.08-.105.025-.657-.685-.63-.816a.057.057 0 0 0-.053-.053c-.053 0-.132-.105-.185-.236-.052-.132-.131-.237-.184-.237-.026 0-.052-.053-.052-.105 0-.053-.08-.184-.158-.263-.079-.105-.184-.237-.21-.29-.106-.183-1.052-.21-1.105-.052m13.937-.026c-.026.026 0 .079.027.079.052 0 .078.736.078 2.314 0 1.499-.026 2.314-.078 2.314-.027 0-.08.026-.08.079 0 .052.211.079.527.079h.526v-1.999l1.183.026c1.315.027 1.262.053 1.262-.447s.053-.447-1.262-.447l-1.183.027v-1.21h1.262c.894 0 1.288-.026 1.34-.079.08-.079.08-.079.054 0-.027.053-.027.079.026.079.131 0 .105-.815-.026-.868-.185-.052-3.603-.026-3.656.053m16.067.052c-.078.21-.052 3.208.053 3.156.053-.026.053-.026.053.026-.08.132.105.684.263.815.078.08.105.106.078.08-.184-.08-.078.078.21.315.264.236.316.29.474.263.026 0 .08.026.105.079.132.21 2.025.131 2.025-.08 0-.026.027-.052.08-.026.025.027.13-.026.236-.105a.498.498 0 0 1 .21-.131c.026 0 .105-.132.184-.29.08-.157.158-.289.184-.289.132 0 .21-.868.184-2.314l-.026-1.578-.342-.026c-.184 0-.42 0-.526.026l-.158.053.027 1.552c.026 1.709-.053 2.13-.29 2.208-.105.027-.131.053-.052.106.105.078-.263.131-.763.131-.368 0-.789-.158-.789-.29 0-.026-.052-.026-.078 0-.053.027-.053.027-.027 0 .027-.026 0-.157-.079-.262-.105-.184-.131-.5-.131-1.84l-.026-1.631h-.447c-.5-.053-.605-.027-.632.052m5.391-.079c-.079.027-.079.579-.079 2.472v2.42l1.42-.027c1.368-.026 1.447-.052 1.789-.21.394-.21.894-.631.867-.763 0-.052.027-.079.08-.079.052 0 .13-.105.183-.289.053-.184.105-.315.158-.315.026 0 .053-.053.026-.132-.026-.079 0-.158.027-.184.105-.053.105-.605 0-.605-.027 0-.08-.026-.08-.079 0-.052.027-.052.08-.026.131.079.026-.368-.184-.763-.106-.184-.185-.315-.21-.289-.027.026-.027 0 0-.052.052-.132-.422-.605-.632-.684-.105-.026-.158-.079-.158-.105-.079-.21-2.84-.474-3.287-.29m5.417 2.42v2.472h1l-.027-2.446-.026-2.446-.473-.026-.474-.026v2.472m9.599-2.34c-.027.052-.053 1.156-.053 2.445v2.34l.526.027.526.026v-1.709h.5c.368 0 .499.026.499.105 0 .052.079.158.184.236.105.08.158.158.132.158-.027 0 0 .08.078.184.369.579.448.71.5.71.026 0 .079.053.105.132.053.131.105.131.631.131.579 0 .684-.026.5-.21a.284.284 0 0 1-.079-.184c0-.053-.052-.08-.079-.08-.052 0-.079-.025-.079-.078s-.079-.184-.184-.29a1.282 1.282 0 0 1-.21-.315c-.026-.079-.079-.131-.105-.131a.057.057 0 0 1-.053-.053.23.23 0 0 0-.105-.158c-.132-.105-.263-.447-.132-.394.053.026.106 0 .106-.026.026-.053.079-.053.105-.027.026.027.052 0 .052-.026s.106-.131.21-.184c.106-.079.211-.184.211-.263 0-.079.026-.132.08-.132a.057.057 0 0 0 .052-.052c0-.026.026-.105.052-.184.21-.395 0-1.42-.368-1.736-.394-.368-3.471-.605-3.602-.263m7.52-.079a.748.748 0 0 1-.342 0c-.105-.026-.026-.026.158-.026s.263.026.184.026m3.103.08c-.026.052-.052 1.156-.052 2.471v2.34h1.499c.946 0 1.525-.026 1.551-.078.026-.027.079-.053.105-.027.027.027.105-.026.184-.079.053-.078.08-.078.053-.026-.026.053.079 0 .237-.105.315-.21.341-.237.473-.789.105-.447.105-.447.026-.394-.026.026-.079-.106-.105-.263-.026-.158-.079-.316-.131-.368-.053-.053-.21-.158-.316-.263l-.237-.185.158-.184c.368-.394.342-.341.342-.946 0-.342-.29-.868-.447-.868-.053 0-.105-.026-.105-.053.052-.289-3.13-.447-3.235-.184m5.076-.079c-.027.027-.053 1.131-.053 2.472v2.42l.473-.027.474-.026.026-2.446.026-2.445h-.447c-.237.026-.473.026-.5.052m-95.456 3.603c0 .657-.026.105-.026-1.183 0-1.289 0-1.841.026-1.184.027.658.027 1.71 0 2.367m7.18 0c0 .657-.027.105-.027-1.183 0-1.289 0-1.841.026-1.184.027.658.027 1.71 0 2.367m19.144-2.709s.053.027.079.027c.131.026.789.63.736.684-.026.026 0 .052.027.052.105 0 .236.763.184 1.105-.027.157-.027.289-.027.315 0 .026-.079.105-.131.21-.079.08-.132.185-.105.237.026.053 0 .053-.027.026-.052-.026-.079-.026-.079 0 0 .027-.078.132-.157.237-.08.105-.132.132-.105.079.026-.053 0-.079-.053-.053-.053.027-.105.08-.079.106.158.263-1.157.21-1.551-.08-.185-.13-.316-.21-.316-.183 0 .026-.105-.132-.21-.369-.553-1.051-.08-2.182 1.025-2.445.132-.026.763 0 .79.052m13.963 0c0 .027.052.053.131.053.079 0 .21.105.316.21.105.106.236.21.263.21.026 0 .052.027.026.08-.026.026 0 .079.052.131.053.027.132.132.158.237.08.21.105 1.341 0 1.288-.026-.026-.052.027-.052.08 0 .13-.658.814-.816.814-.052 0-.105.027-.105.053 0 .184-1.13 0-1.394-.263-.078-.079-.157-.105-.184-.079-.026.027-.131-.158-.236-.394-.263-.526-.29-1.21-.08-1.578.08-.131.132-.263.106-.29-.026-.026 0-.078.026-.078.027 0 .106-.08.132-.158.052-.079.079-.105.079-.053 0 .08.052.053.21-.078.105-.106.29-.21.395-.21.341-.053.973-.027.973.025m27.006.158.316.158a.635.635 0 0 1 .21.237c.053.105.105.21.131.21.29.237.237 1.367-.052 1.683a.746.746 0 0 0-.158.237c-.053.079-.131.131-.184.131-.053 0-.079.027-.053.08.027.052.027.052 0 .025-.026-.026-.131 0-.236.053-.132.079-.395.131-.868.158l-.684.026-.026-1.604-.026-1.604.71.053c.473.026.788.078.92.157m15.41.105c.158.185.158.684.026.895-.158.21-.526.289-1.289.289h-.657v-1.446l.579-.027c.657-.026 1.157.08 1.34.29m10.467-.106c.052-.052.052.447-.027.605-.105.237-.473.342-1.262.342h-.578v-1.105l.657-.026c.5-.026.71 0 .894.105.184.053.316.106.316.08m-72.763-.106c.158.026.342.105.421.184.053.053.184.158.237.184.42.237.605 1.236.315 1.788-.105.184-.184.369-.184.421 0 .263-.789.526-1.578.526h-.552v-3.156h.5c.315 0 .684.027.841.053m70.843.789c-.026.158-.026.026-.026-.29 0-.341 0-.473.026-.289v.579m-14.62-.316c.052.106.078.237.104.263 0 .053.106.29.237.553.316.71.342.683-.473.683-.763 0-.763 0-.605-.236.053-.106.131-.21.131-.263 0-.053.053-.184.106-.29a.857.857 0 0 0 .078-.263c0-.026.027-.052.08-.052.052 0 .052-.053.026-.158-.027-.105-.027-.131.026-.105.053.026.079-.026.079-.132 0-.236.105-.236.21 0m10.598.053c0 .105.052.21.105.21a.145.145 0 0 1 .079.132c0 .052.052.131.105.21.079.053.079.105.026.105-.052 0 0 .184.132.395l.21.394h-.736c-.868 0-.868 0-.605-.5.105-.236.184-.446.158-.499-.027-.053-.027-.053.026-.026.053.026.105-.027.132-.132.105-.473.315-.605.368-.289m-30.767-.053c.052.053.079.106.052.158-.026.027 0 .08.08.105.052.027.105.106.105.21 0 .08.105.343.21.58.105.236.21.42.21.446 0 .027-.342.027-.736.027h-.736l.105-.263c.052-.158.079-.29.052-.316-.026-.026 0-.026.027 0 .052.026.105-.053.157-.21.053-.158.132-.342.185-.421.052-.079.078-.21.052-.263-.026-.184.105-.184.237-.053m43.52.553c.053.157.185.368.237.473.08.105.105.184.08.184-.027 0-.027.053.025.105.132.158.027.184-.71.184h-.683l.079-.236c.052-.132.105-.237.131-.263.026-.027.105-.21.184-.421.079-.21.158-.42.21-.447.053-.026.027-.053-.026-.053-.079 0-.079-.026.026-.105.158-.105.21-.026.447.579m-8.73 1.814c-.026.158-.026 0-.026-.342s0-.473.026-.289v.631m1.84-.894c0 .026.106.105.211.158.29.131.316.526.026.789-.184.157-.262.184-1.104.184l-.894.026v-1.21h.868c.5 0 .894.027.894.053" fill="#797575" fill-rule="evenodd" data-name="path0"/><path d="M130.578 114.648c-.763.789-.763.763-.21 1.236.236.21.552.5.683.631.316.342.237.368.894-.316.316-.315.605-.63.684-.683.184-.184.158-.21-.552-.894-.868-.79-.737-.79-1.5.026m12.65-.026c-.527.079-.974.184-.974.21-.026.026-.105.053-.184.053-.131 0-.158.026-.158.184 0 .315.21 1.683.29 1.814.026.08.079.21.079.316 0 .158.026.184.157.158.08-.027.526-.08 1-.158.473-.053.867-.158.92-.184.026-.027.132-.053.237-.053.184 0 .263-.105.184-.237-.026-.052-.132-.473-.184-.973-.08-.473-.158-.92-.184-.946-.027-.027-.053-.132-.053-.184 0-.053-.026-.132-.053-.132-.105-.026-.552.053-1.078.132m-3.707 1.104c-.579.079-.71.132-.71.21 0 .158.131.92.21 1.158.026.105.079.341.105.473l.053.263.473-.053c.263-.026.5-.079.552-.105.027-.026.263-.079.5-.105.5-.053.473.026.342-.973-.158-1.105-.132-1.026-.474-1.026-.21.027-.657.08-1.051.158m-13.754.237c-.026.052-.078.368-.105.71-.026.342-.052.762-.079.92l-.052.29.684.052c.394.026.736.079.788.105.053.027.21.053.342.053l.263-.026.08-.973c.104-1.157.183-1.026-.658-1.105-.368-.026-.815-.079-.947-.079-.131 0-.263 0-.316.053m2.92 1.157a4.32 4.32 0 0 0-.053.605c0 .184-.027.342-.08.368a.41.41 0 0 0-.078.236v.21l.684.053c.368.027.762.053.815.053.131 0 .158-.053.21-.763.08-.92.158-.815-.526-.867-.315-.027-.578-.08-.604-.106-.053-.184-.316-.052-.369.21m6.049 1.158c-.632.631-.632.552.026 1.157.473.447.789.631.789.473 0-.026.21-.263.447-.552.552-.605.552-.526-.053-1.104-.605-.579-.605-.579-1.21.026m8.678-.026c-.526.078-.762.157-.999.289-.026.026.132 1.052.184 1.183.027.08.08.263.105.42.053.37 0 .343.868.211 1.052-.157 1.236-.236 1.184-.447a33.724 33.724 0 0 1-.185-.946c-.078-.421-.131-.79-.131-.79-.026-.078-.42-.026-1.026.08m-4.68.841c0 .026-.21.079-.5.105-.605.053-.605.053-.5.71.158.973.158.973.894.868.237-.053.526-.079.658-.105l.237-.026-.053-.5c-.026-.29-.079-.526-.105-.579a.64.64 0 0 1-.08-.289c0-.237 0-.237-.288-.237-.158 0-.263.027-.263.053m-13.543 2.34c-.026.21-.053.5-.053.684 0 .158-.026.316-.079.342-.105.079-.078.184.053.184.079 0 .158.026.184.053.026.026.368.079.71.105l.658.052.052-.552c.026-.315.079-.657.105-.762.106-.316 0-.368-.841-.421l-.736-.053-.053.368m2.183.158c-.106.5-.053.894.105.947.946.184 1.025.131 1.025-.71v-.368l-.315-.053c-.658-.079-.79-.079-.815.184m18.039.5c-.158.315-.29.631-.29.657 0 .027-.026.08-.078.105-.053.027-.08.132-.08.263-.025.263.343.5 1.237.816.184.079.342.157.342.184 0 .184.21 0 .394-.342.105-.21.29-.605.395-.842.263-.552.236-.657-.185-.815-.184-.079-.394-.184-.447-.236a.29.29 0 0 0-.157-.08c-.027 0-.21-.052-.368-.13-.421-.238-.448-.211-.763.42m-24.666.079c-.158.105-.42.236-.605.315-.184.08-.342.184-.342.21-.026.027-.131.08-.236.132-.237.132-.237.184-.027.526.105.158.21.368.29.5.236.473.525.841.604.815.053 0 .447-.21.842-.447.868-.473.868-.5.552-1.026-.105-.184-.316-.526-.447-.762-.263-.474-.29-.474-.631-.263m27.795.71a2.57 2.57 0 0 0-.184.447.2.2 0 0 1-.052.105c-.08.026-.579 1.104-.579 1.236 0 .053.316.237.763.447.42.184.894.42 1.051.5.316.157.526.131.526-.053 0-.053.027-.105.053-.105s.105-.184.184-.395c.079-.21.158-.394.184-.394.026 0 .053-.026.053-.079 0-.053.105-.263.21-.5.29-.552.263-.578-.184-.788-.21-.106-.447-.21-.5-.263-.052-.027-.184-.106-.263-.132-.078-.026-.341-.158-.525-.237-.526-.236-.526-.236-.737.21m-31.293.632c-.368.21-.762.42-.867.473-.106.053-.184.105-.184.132 0 .026-.053.052-.106.052-.184 0-.21.158-.052.342.079.105.184.316.263.473.079.158.158.29.184.29.026 0 .079.105.131.236.053.132.105.263.158.29.053.026.132.184.21.315.132.263.342.368.447.184.027-.052.185-.131.342-.21.158-.079.474-.237.684-.368.21-.132.5-.29.605-.342.29-.132.29-.263-.053-.815-.157-.263-.289-.5-.315-.552-.474-.973-.579-1-1.447-.5m25.324.473c-.105.21-.21.5-.263.631-.053.158-.132.263-.158.263-.026 0-.052.053-.052.105 0 .08.657.474.841.474.026 0 .132.052.184.105.29.29.473.184.789-.473.342-.684.368-.842.158-.894-.08-.027-.132-.053-.132-.08 0-.026-.157-.104-.342-.183-.184-.08-.394-.158-.473-.21-.237-.185-.368-.132-.552.262m-20.827 1.026a9.48 9.48 0 0 1-.526.289c-.158.079-.368.21-.447.263l-.158.131.158.263c.105.158.21.342.263.421.053.08.132.263.21.395.106.236.369.368.369.21 0-.026.131-.105.315-.184s.316-.158.316-.184c0-.026.131-.105.289-.158.158-.053.29-.158.29-.21 0-.158-.211-.605-.29-.605-.026 0-.053-.026-.053-.079 0-.079-.368-.684-.42-.684-.053 0-.158.08-.316.132m.815 2.103c-.63.342-.71.526-.447.79.08.078.184.262.263.42.08.158.158.29.184.29.027 0 .053.052.053.105 0 .21.21.184.841-.184.579-.316.894-.71.579-.71-.026 0-.184-.237-.342-.526-.342-.632-.368-.632-1.13-.185m-1.868 1.736a1.086 1.086 0 0 0-.131.29c0 .026-.08.236-.184.446-.184.395-.184.579 0 .579.052 0 .105.026.105.052 0 .027.158.106.368.185.21.078.394.157.394.184.132.184.395.131.5-.08.552-1.077.605-1.314.29-1.314-.053 0-.106-.026-.106-.053-.026-.052-.394-.21-1.052-.5 0-.026-.105.08-.184.211m21.747-.158c0 .053-.078.263-.184.447-.236.5-.236.526.263.763.553.263.605.237.842-.237.263-.526.263-.657-.08-.762a1.094 1.094 0 0 1-.315-.158c-.026-.105-.5-.158-.526-.053m1.605 1.578a1.787 1.787 0 0 0-.369.237c-.052.026-.184.105-.341.158-.316.105-.316.236-.106.604.08.158.237.421.342.605.184.368.395.42.763.132.105-.08.29-.184.42-.21.132-.053.237-.106.237-.159 0-.052.053-.052.105-.052.158 0 .132-.158-.21-.763-.184-.315-.316-.605-.316-.63 0-.132-.236-.106-.525.078m3.786-.105c-.026.026-.315.21-.63.368a5.104 5.104 0 0 0-.606.342c-.026.026-.079.079-.157.105-.158.053-.158.21-.027.342.053.053.184.263.29.473.552 1.131.578 1.157.762.973.053-.052.21-.131.342-.184.131-.052.29-.131.342-.184.052-.053.236-.131.394-.21.526-.263.552-.316.342-.737a3.274 3.274 0 0 0-.237-.42 1.965 1.965 0 0 1-.184-.316 1.787 1.787 0 0 0-.236-.368.29.29 0 0 1-.08-.158c0-.105-.21-.105-.315-.026m-28.794.71c-.027.079-.053.131-.106.131-.026 0-.105.158-.184.369-.079.21-.131.394-.157.394a2.19 2.19 0 0 0-.185.368l-.131.342.158.131c.079.08.342.185.552.263.21.08.368.158.368.184 0 .053.631.29.763.29.052 0 .105-.132.158-.29.052-.157.105-.289.131-.289.026 0 .105-.158.184-.368s.184-.42.237-.5c.184-.263.131-.42-.184-.525-.158-.053-.29-.106-.29-.158 0-.053-.157-.105-.368-.184-.21-.08-.42-.158-.473-.21-.132-.158-.447-.106-.473.052m5.311 1c-.105.183-.341.735-.341.814 0 .08.815.5.973.5.105 0 .5-.815.5-1 0-.052-.842-.473-.974-.473-.026 0-.105.08-.158.158m21.195.105c0 .027-.105.106-.236.158-.132.053-.29.132-.342.184-.053.053-.21.132-.342.21-.263.106-.394.316-.29.395.027.026.132.184.211.316.08.157.158.289.184.315a.936.936 0 0 1 .158.263c.053.132.158.237.184.263.079.053.631-.21.71-.316.026-.026.158-.105.316-.157.394-.132.42-.21.263-.526l-.29-.579c-.21-.368-.526-.71-.526-.526m-24.271 1.105c-.421.92-.421.841.079 1.104.236.132.473.21.526.21.052 0 .105.027.105.08.052.157.473.157.473 0 0-.08.026-.158.079-.158.026 0 .079-.027.079-.08 0-.052.105-.288.21-.551.263-.553.237-.632-.289-.816-.21-.078-.394-.157-.42-.184-.053-.052-.395-.21-.5-.21-.053 0-.21.263-.342.605m28.505-.395c0 .027-.105.106-.237.158-.131.053-.289.132-.341.184-.053.053-.237.158-.447.263-.868.447-.947.5-.947.605 0 .105.394.868.5.947.026.026.105.157.184.342.079.184.157.289.184.289.026 0 .079.079.079.158.105.42.736.42 1.104-.027.026-.026.158-.105.29-.158.13-.078.262-.157.289-.184.026-.026.157-.105.315-.157.395-.158.447-.263.29-.605-.08-.158-.158-.29-.185-.29-.026 0-.079-.105-.131-.262-.053-.132-.158-.369-.263-.5a.73.73 0 0 1-.158-.342c0-.105-.315-.447-.394-.447-.106-.026-.132 0-.132.026m-32.529.763c0 .053-.026.105-.052.105s-.08.079-.105.158c-.053.184-.316.736-.605 1.367-.21.447-.237.605-.132.605.08 0 .579.237 1.447.631.762.368 1.078.263 1.078-.42 0-.053.026-.08.052-.08.027 0 .132-.21.237-.446.079-.237.21-.526.29-.658.183-.29.157-.394-.08-.473-.105-.053-.21-.105-.21-.132 0-.026-.184-.105-.394-.184-.21-.079-.395-.158-.395-.184 0-.026-.184-.105-.394-.184-.21-.079-.395-.158-.395-.184 0-.026-.079-.053-.184-.053-.079.027-.158.053-.158.132m23.694.736c-.579.342-.737.5-.553.579.027 0 .132.184.21.368.08.184.211.368.264.368.105.053 1.025-.368 1.025-.473 0-.105-.315-.737-.394-.815-.053-.053-.105-.132-.105-.158 0-.132-.053-.105-.447.131m5.522.237c-.053.053-.237.158-.421.263-.92.447-1.236.684-1 .789.027 0 .106.158.185.315.079.158.158.29.184.316.026.026.131.184.21.394.263.553.29.605.395.605.052 0 .079-.026.079-.052 0-.027.131-.106.315-.185.184-.078.316-.157.316-.184 0-.026.105-.078.236-.131.132-.053.316-.158.395-.237a.49.49 0 0 1 .263-.131c.105 0 .079-.342-.053-.421a1.257 1.257 0 0 1-.158-.29c-.052-.13-.131-.315-.184-.341-.052-.053-.157-.237-.236-.395-.158-.394-.368-.5-.526-.315m-20.406 1.788c-.105.026-.21.053-.237.105-.026.027-.158.053-.29.053-.367 0-.394.026-.262.762.131.895.131.895 1.025.737.868-.158.816-.08.71-.684-.21-1.052-.263-1.104-.946-.973m7.258 2.051c-.342.342-.447.658-.29.71.027 0 .21.158.395.316l.315.289.395-.394c.5-.5.5-.474-.263-1.131l-.184-.158-.368.368m-4.366-.21a2.238 2.238 0 0 1-.447.105c-.71.105-.815.21-.605.579.027.078.106.315.132.578.079.579.026.552.841.42.868-.13.816-.078.71-.84-.131-.895-.263-1.079-.63-.842m13.963.236c-.053.132-.184 1.42-.184 1.657 0 .184.026.21.184.21.105 0 .184.027.21.053.026.026.316.079.658.105.341.027.683.053.762.08.184.052.237-.053.342-1.105.105-1 .158-.947-.841-1.052-.973-.079-1.105-.053-1.131.052m-9.677 2.867c-.631.63-.658.526.5 1.578.183.157.21.131.736-.421.63-.684.657-.658-.237-1.394-.42-.342-.42-.342-1 .237m6.154-.158c-.079.21-.263 1.788-.21 1.84.026.027.368.053.789.106.42.026.841.105.92.158.263.131.342-.053.447-1.026.105-1.052.105-1.025-.342-1.025-.184 0-.368-.027-.394-.053-.027-.026-.316-.079-.605-.105l-.526-.053-.079.158m-11.833.131a6.885 6.885 0 0 0-.763.158c-.079.027-.21.08-.29.08-.078 0-.183.025-.21.078-.052.105.106 1.262.184 1.315.027.026.053.105.053.21 0 .316.132.526.263.474.079-.027.473-.132.92-.184.5-.08.816-.158.842-.21.052-.106-.184-1.605-.263-1.658a.628.628 0 0 1-.079-.184c-.026-.157-.026-.157-.657-.079m-2.788.5c-.026.026-.394.132-.841.184-.447.08-.842.158-.842.184-.026.027-.131.053-.21.053-.158 0-.184.026-.132.237.027.131.053.368.08.552.026.184.078.342.104.394.027.026.08.342.132.658.079.578.079.578.29.578.288 0 1.63-.237 1.682-.29.026-.025.158-.078.316-.078.158-.026.289-.053.289-.079.026-.026-.105-.894-.158-1.025-.026-.053-.105-.395-.158-.737-.157-.657-.394-.92-.552-.63m10.913.71c-.184.183-.473.499-.683.71l-.369.394.184.21c.106.131.342.342.526.5.184.157.421.368.526.473.263.263.316.263.684-.184.184-.21.447-.5.605-.658.394-.42.394-.447.105-.736-.158-.158-.29-.263-.316-.263-.026 0-.21-.184-.42-.394-.474-.474-.447-.474-.842-.053" fill="#797575" fill-rule="evenodd" data-name="path1"/><path d="M197.108 99.212c0 .184.026.263.026.158a.748.748 0 0 0 0-.342c-.026-.079-.026 0-.026.184m-14.384 12.07.026.605.026-.552c0-.316 0-.579-.026-.605-.026-.026-.053.21-.026.552m-49.359 11.07c-.052.185-.131.422-.184.527l-.105.184-.184-.132c-.105-.079-.21-.131-.263-.131-.053 0-.105-.053-.132-.079-.079-.21-.894-.105-1.262.158-.42.289-.447.447-.026.394.315-.052.894.08.894.184 0 .027-.158.08-.342.08-.42 0-.868.13-.92.262-.027.053-.08.105-.132.105-.29 0-.736 1.026-.526 1.157.053.027.105 0 .105-.079.027-.157.605-.552.868-.63.132-.053.105 0-.158.236-.604.552-1.025 2.077-.63 2.34.157.106.21.027.21-.289 0-.342.342-1.025.657-1.341.29-.263.395-.263.184 0-.079.105-.184.29-.236.447a1.418 1.418 0 0 1-.158.342c-.105.079-.105 1.341 0 1.473.052.052.105.184.131.289.08.394.237.236.21-.237-.026-.29 0-.42.053-.42s.08-.08.08-.158c0-.184.183-.763.262-.816a.553.553 0 0 0 .132-.184c.078-.131.078-.131.052 0-.158.5-.079 1.815.132 2.025.052.053.131.184.184.316.105.236.315.42.394.315.053-.079-.026-.5-.105-.552-.079-.053-.079-1 0-1.052a.3.3 0 0 0 .079-.184c0-.184.237-.631.315-.605.21.053.184 4.918-.026 5.47-.052.131-.079.131-.368-.105a2.025 2.025 0 0 0-.447-.29c-.079-.026-.132-.078-.132-.105 0-.026-.131-.105-.289-.184-.158-.079-.315-.158-.342-.184-.026-.026-.184-.105-.394-.158-.184-.052-.447-.157-.579-.21-.683-.316-2.866-.29-3.576.026a2.134 2.134 0 0 1-.368.132c-.158 0-.5.236-.5.342 0 .131.526.079.684-.08.131-.104 2.393-.13 2.472 0 .026.053.29.132.605.211.289.079.552.158.552.184 0 .027.158.105.342.184.184.08.342.158.342.184 0 .027.131.106.289.184.158.08.315.185.342.237a.145.145 0 0 0 .131.079c.08 0 .684.42.894.657l.158.158-.342.316c-1.604 1.472-1.946 1.735-2.182 1.604-.632-.368-1.315.447-.842 1 .237.288.973.367 1.21.13.052-.052.184-.13.315-.183.29-.132.737-.526 1.473-1.236.315-.316.71-.658.868-.816l.289-.236.473.473c.868.842 1.394 1.315 1.578 1.446.105.053.184.132.184.184 0 .053.105.106.237.158.131.053.315.158.394.21.763.448 1.867-.499 1.157-.999-.079-.052-.157-.131-.21-.157-.105-.106-.5-.106-.526 0-.053.131-.42.078-.526-.08-.053-.078-.131-.157-.184-.157-.053 0-.158-.079-.263-.184-.105-.105-.42-.395-.71-.658s-.605-.552-.736-.657l-.21-.184.157-.132c.105-.078.263-.184.368-.236.105-.053.184-.132.184-.158 0-.026.132-.105.263-.184.132-.079.316-.184.395-.263.079-.079.184-.132.236-.132.053 0 .132-.052.185-.078.052-.053.236-.158.42-.237.184-.079.342-.158.342-.184.026-.026.263-.105.526-.184.263-.08.526-.158.579-.21.131-.106 2.419-.106 2.55 0 .184.157.658.21.605.052-.026-.079-.052-.132-.052-.158 0 0-.158-.079-.369-.158-.21-.078-.394-.157-.42-.184-.21-.315-3.287-.315-3.682 0-.026.027-.237.106-.447.184-.21.08-.42.158-.473.21-.053.053-.132.106-.184.106-.053 0-.158.053-.237.131-.079.08-.263.185-.394.263-.158.08-.342.184-.395.263-.21.21-.237.158-.29-.42a8.958 8.958 0 0 0-.104-.763c-.106-.29-.08-3.524 0-3.576.026-.027.079-.184.079-.368v-.316l.131.184a.837.837 0 0 0 .158.21c.131.106.21.92.131 1.473-.079.631-.052.736.132.5.368-.395.526-.92.526-1.788v-.816l.21.368c.184.316.21.448.237 1.026.052 1.157.42.684.42-.552 0-.736-.078-1.026-.42-1.5-.184-.262-.21-.315-.08-.262.264.131.71.736.79 1.026.052.157.105.341.131.394.027.079.053.21.053.29 0 .104.026.183.052.183.29 0 .158-1.656-.184-2.025-.079-.078-.184-.184-.21-.236a1.84 1.84 0 0 0-.447-.368c-.053-.027 0-.027.131 0 .263.052.658.315.816.578.184.263.315.21.263-.105-.053-.29-.369-.868-.5-.868-.053 0-.105-.052-.132-.105-.078-.158-.5-.29-.999-.316-.684-.052-.368-.262.395-.236.552 0 .578-.026.342-.237-.632-.552-1.841-.526-2.052.053-.052.158-.105.026-.236-.474-.053-.788-.184-.867-.316-.315m-12.675 29.189a.64.64 0 0 0 .316 0c.079-.026.026-.026-.158-.026s-.263.026-.158.026m3.156 0a.54.54 0 0 0 .29 0c.078-.026 0-.026-.159-.026-.157 0-.21.026-.131.026m3.234 0a.64.64 0 0 0 .316 0c.079-.026.026-.026-.158-.026-.158 0-.237.026-.158.026m19.644 5.838a.54.54 0 0 0 .289 0c.079-.027 0-.027-.158-.027s-.21.027-.131.027m-45.73 2.76a.748.748 0 0 0 .342 0c.079-.025 0-.025-.184-.025s-.263 0-.158.026m38.972 0h1.735c.473 0 .079-.026-.868-.026-.946 0-1.34 0-.867.026m26.112 0c.131.026.342.026.447 0 .131-.026.026-.026-.237-.026s-.315 0-.21.026m25.35 0a.64.64 0 0 0 .315 0c.08-.026.027-.026-.157-.026-.185 0-.237 0-.158.026m-25.64 2.445c0 1.315 0 1.841.027 1.184v-2.393c-.026-.658-.026-.105-.026 1.21m-26.823.026c0 1.288 0 1.84.027 1.183v-2.367c-.027-.63-.027-.105-.027 1.184" fill="#797575" fill-rule="evenodd" data-name="path3"/><path d="M157.295 96.056c.158.027.42.027.552 0 .132-.026 0-.026-.29-.026-.315 0-.42.026-.262.026m2.288 0c.158.027.394.027.526 0 .157-.026.026-.026-.263-.026-.29 0-.421.026-.263.026m31.056.29c.237.026.578.026.762 0 .21-.027.027-.027-.394-.027-.447 0-.605.027-.368.027m1.183.473c0 .237.027.316.027.184a1.13 1.13 0 0 0 0-.42c0-.08-.027 0-.027.236m-44.73 7.179c-.026 3.05 0 5.522.026 5.496.027-.026.053-2.525.027-5.549l-.027-5.496-.026 5.549m-24.877-.026c0 2.997 0 4.233.027 2.734v-5.47c-.027-1.498-.027-.262-.027 2.736m69.633-1.341c0 2.261 0 3.181.027 2.05v-4.128c-.027-1.104-.027-.184-.027 2.078m5.207-3.05c.027.157.053.288.08.315.052.052.025-.316-.054-.447-.052-.106-.052-.08-.026.131m-36.552.473c0 .237.026.316.026.185a1.13 1.13 0 0 0 0-.421c-.026-.08-.026.026-.026.236m29.215-.315c.237.026.579.026.763 0 .21-.026.026-.026-.394-.026-.421 0-.605 0-.369.026m6.128.605c0 .184.026.263.026.158a.748.748 0 0 0 0-.342c-.026-.106-.026 0-.026.184m-68.87.315c-.159.158-.159.158-.027.105.158-.078.368-.289.263-.289-.053 0-.158.08-.237.184m68.87.368c0 .185.027.237.027.158a.64.64 0 0 0 0-.315c-.026-.106-.026-.027-.026.157m-30.136 7.31c.026.027.236.08.5.08.262 0 .446-.027.446-.08 0-.052-.21-.078-.5-.078-.288 0-.472.026-.446.079m14.542 0c0 .052.315.079.762.079.474 0 .763-.027.763-.08 0-.052-.316-.078-.763-.078s-.762.026-.762.079m-11.518.052h1.63c.421 0 .053-.026-.841-.026s-1.236.026-.79.026m4.813 0h2.525c.683 0 .105-.026-1.289-.026-1.367 0-1.946.026-1.236.026m-11.281 1.263c.105.026.29.026.394 0 .106-.027.027-.027-.184-.027-.236 0-.315.027-.21.027m1.13 0c.264.026.684.026.921 0 .237-.027.026-.027-.473-.027-.526 0-.71.027-.447.027m1.946 0c.263.026.683.026.946 0 .263-.027.053-.027-.473-.027s-.736.027-.473.027m17.329 1.656c0 .29.026.553.053.579.026.026.052-.158.026-.368-.053-.684-.079-.763-.079-.21m-3.156.683c.185.026.474.026.632 0 .157-.026 0-.026-.342-.026s-.474 0-.29.026m2.21 0c.157.026.42.026.604 0 .158-.026.026-.026-.29-.026-.34 0-.472 0-.315.026m-46.65 2.63c-.341.342-.63.683-.63.762 0 .132.604.79.71.79.026 0 .052.052.052.078 0 .237.684.552.736.368.027-.052.08-.105.132-.105.052 0 .131-.053.184-.158.131-.236.289-.42.368-.368.026.026.053 0 .026-.026-.026-.026.053-.184.21-.29.132-.13.237-.262.237-.315 0-.079-.21-.394-.21-.316 0 .027-.237-.184-.5-.447-.289-.263-.5-.526-.5-.526.053-.21-.289.027-.815.553m34.37 3.892c0 1.21 0 1.709.026 1.104v-2.183c0-.604-.026-.131-.026 1.079m-47.123.105c-.053.026-.132.683-.184 1.472 0 .132-.027.237-.053.237-.079 0-.026.158.053.263.052.053.341.105.683.131.342.027.763.08.92.08.369.052.369.026.421-.868.027-.263.053-.632.08-.79.052-.341.026-.341-.527-.367-.21 0-.42-.053-.447-.08-.079-.078-.841-.13-.946-.078m7.678 1.525a.252.252 0 0 0-.052.237c.026.079 0 .236-.027.368-.105.368-.026.473.342.473.184 0 .29.026.263.079-.052.079.105.079.342 0 .158-.053.184-.105.184-.316 0-.131.026-.315.079-.394.053-.105.053-.131-.026-.131-.08 0-.08 0 0-.053.21-.132 0-.29-.316-.263-.184 0-.42 0-.5-.026-.131-.053-.236-.027-.289.026m9.414 1.078a2.167 2.167 0 0 1-.473.105c-.5.08-.526.105-.447.421.026.158.053.316.026.368-.026.053 0 .105.053.105.052 0 .079.053.052.106-.078.184.08.21.553.131.236-.053.447-.079.5-.053.026.027.052-.026.052-.078 0-.053.026-.106.079-.08.052.027.052 0 0-.105-.053-.078-.053-.21-.053-.289.026-.079 0-.131-.026-.105-.053.026-.105-.263-.079-.5 0-.105-.079-.105-.237-.026m4.55 0c-.027.026-.29.079-.553.132-.788.131-.736.105-.683.552.026.21.079.5.131.605.053.105.08.21.026.236-.105.08 0 .316.132.263.079-.026.105-.026.053.053-.053.079-.027.079.052.026.105-.079.237-.105.973-.21.184-.027.316-.053.342-.053.053-.052.079-.473.026-.473-.026 0-.052-.079-.052-.158s-.027-.21-.027-.263c-.026-.052-.052-.263-.079-.42-.105-.316-.21-.421-.341-.29m-19.433 4.865c-.106.079-.237.105-.263.079-.053-.026-.053-.026-.027.026.027.026-.026.105-.158.158-.236.105-.236.184-.052.473.079.105.131.21.131.263 0 .053.027.08.053.08s.105.078.158.183c.052.105.105.158.131.132.053-.08.737-.421.79-.395.104.027 0-.315-.185-.683-.21-.474-.29-.5-.578-.316m19.17.815a.857.857 0 0 0-.08.263.057.057 0 0 1-.052.053c-.026 0-.131.131-.184.315-.079.184-.131.316-.158.316-.21 0-.052.342.184.42.132.053.29.106.29.132.052.079.552.29.657.29.053 0 .105.052.132.078.026.053.078-.026.105-.131.052-.132.105-.21.131-.184.027.026.08-.08.105-.21a1.15 1.15 0 0 1 .21-.448c.08-.105.106-.184.053-.131-.052.026-.052 0 .027-.132.131-.184.105-.21-.71-.552-.132-.053-.237-.105-.237-.131 0-.027-.053-.053-.079-.053-.052 0-.131-.026-.21-.053-.053-.026-.105 0-.184.158m-1.157 4.68c-.027.053-.684.369-.737.369-.026 0-.026.079-.026.158s.026.158.053.131c.026-.026.052.027.052.105 0 .08.027.158.053.158s.079.105.105.21c.079.343.473.369.763.053.078-.079.105-.105.078-.052-.026.052 0 .052.132-.027.184-.131.237-.447.053-.5-.053-.026-.08-.052-.053-.104.026-.027 0-.053-.026-.053-.027 0-.106-.105-.158-.237-.053-.263-.21-.342-.29-.21m-16.014 2.708c-.026.027-.158.053-.315.08-.579.078-.684.157-.632.525.027.184.08.342.106.368.026.027.052.132.026.21-.026.185.158.237.342.106.026-.026.236-.053.447-.105.315-.053.368-.053.342-.21a3.602 3.602 0 0 1-.106-.527c-.078-.368-.131-.525-.21-.447m-3.13 1.578c.027.027 0 .08-.026.08s-.078.052-.078.104c0 .053-.053.132-.106.184a.638.638 0 0 0-.157.263 1.182 1.182 0 0 1-.158.316c-.053.052-.079.158-.053.184.027.026 0 .079-.026.105-.053.026-.053.079-.026.184a.37.37 0 0 0 .079.132c.026-.027.105 0 .184.052a.458.458 0 0 0 .184.08c.026 0 .105.052.21.104.105.053.184.106.21.106.027 0 .132.052.237.105.184.079.42.052.395-.053-.027-.105.105-.447.157-.447.053 0 .158-.263.158-.368 0-.026.053-.079.105-.132.21-.184.132-.42-.184-.5-.158-.052-.315-.13-.342-.183a.159.159 0 0 0-.131-.105c-.105.026-.526-.132-.526-.21 0-.027-.026-.053-.079-.053-.053 0-.053 0-.026.052m17.066.29c-.052.026-.079.157-.105.289 0 .131-.026.473-.053.736-.026.394-.026.526.053.526.053 0 .184.026.263.026 1.289.158 1.21.184 1.21-.158 0-.131.026-.236.052-.262.027-.027.053-.185.053-.342 0-.158.026-.29.026-.29l.053-.157c.026-.184 0-.21-.368-.263-.158-.027-.447-.053-.684-.106-.237-.026-.447-.026-.5 0m-1.814.106v.263c0 .105-.027.184-.053.184s-.079.157-.079.368l-.026.368.447.053c.71.078.684.078.736-.316.027-.21.053-.394.027-.42 0-.027.026-.106.052-.185.053-.079.053-.131-.026-.131-.053 0-.29-.027-.552-.053-.263-.026-.474-.079-.5-.131 0-.053-.026-.053-.026 0m-8.231 1.551c-.368.42-.368.447.026.842.395.368.447.368.71.105.105-.105.184-.21.158-.21-.026 0 .026-.053.105-.132.21-.184-.026-.736-.289-.657-.026 0-.079-.053-.132-.132-.078-.21-.236-.158-.578.184m5.575.026c-.053.816-.053.816.079.842.079 0 .184.053.236.053.053.026.263.052.447.052l.342.026v-.394c0-.21.027-.473.053-.552.052-.21-.132-.29-.71-.316l-.42-.026-.027.315m-4.365 1.42c-.184.185-.421.447-.526.579l-.21.21.157.106c.079.052.158.131.158.184 0 .052.026.105.052.105.08 0 .395.29.5.447.053.079.079.105.079.052 0-.052.053-.026.131.08.132.157.132.157.185.052.026-.079.078-.105.105-.079.026.026.052 0 .052-.026-.026-.08.342-.5.447-.5.053 0 .053-.026.027-.053-.027-.026.026-.131.131-.21.105-.079.184-.184.184-.21 0-.08-.762-.79-.841-.79-.027 0-.08-.052-.08-.104 0-.263-.236-.184-.551.157m5.259 1.131c0 .105-.026.184-.053.184-.026 0-.052.105-.079.237 0 .131-.026.394-.052.578-.053.421-.08.421.946.5.632.053.632.053.684-.605.026-.184.053-.42.08-.578.052-.316.025-.316-.553-.368-.263-.027-.579-.053-.71-.08-.237-.026-.263-.026-.263.132m-38.761 9.651c0 .184.026.263.026.158a.748.748 0 0 0 0-.342c-.026-.079-.026 0-.026.184m32.713 2.709.026 2.997.026-2.945c0-1.63 0-2.971-.026-2.998-.053-.026-.053 1.289-.026 2.946m-33.16-2.656c0 .184.026.236.026.157a.641.641 0 0 0 0-.315c0-.105-.026-.026-.026.158m35.79 2.656c0 1.656 0 2.314.026 1.498v-2.997c-.027-.816-.027-.132-.027 1.499m5.128-2.656c0 .184.026.236.026.157a.64.64 0 0 0 0-.315c0-.105-.026-.026-.026.158m20.012 2.656c0 1.656 0 2.314.026 1.498v-2.997c-.026-.816-.026-.132-.026 1.499m7.862-2.656c0 .184.027.236.027.157a.64.64 0 0 0 0-.315c0-.105-.027-.026-.027.158m-61.875 1.446c0 .158.026.21.026.131a.54.54 0 0 0 0-.289c-.026-.079-.026 0-.026.158m41.838 1.604c0 1.052 0 1.473.026.973v-1.893c-.026-.526-.026-.132-.026.92m.841.368c0 1.236 0 1.736.026 1.105v-2.262c-.026-.605-.026-.105-.026 1.157m2.682-.368c0 1.052 0 1.473.027.973v-1.893c-.027-.526-.027-.132-.027.92m18.513.053c0 1.025 0 1.446.026.92v-1.867c-.026-.5-.026-.079-.026.947m-44.757-1.605c.027.027.184.053.342.053.158 0 .29-.026.29-.053-.08-.078-.684-.052-.632 0m-3.024.027a.64.64 0 0 0 .316 0c.079-.027.026-.027-.158-.027s-.263 0-.158.027m6.364 0a.748.748 0 0 0 .342 0c.079-.027 0-.027-.184-.027s-.263 0-.158.027m-3.445 1.183c0 .631 0 .868.026.552v-1.13c-.026-.316-.026-.053-.026.578m-24.719 3.05h2.21c.604 0 .105-.026-1.105-.026s-1.71 0-1.105.027m5.312 0h1.867c.526 0 .106-.027-.92-.027s-1.446 0-.947.027m9.73 0c.21.026.526.026.736 0 .21-.027.027-.027-.368-.027-.394 0-.578 0-.368.027m3.813 0c.263.026.684.026.947 0 .263-.027.052-.027-.474-.027-.5 0-.71 0-.473.027m2.709 0c.131.026.341.026.5 0 .157-.027.052-.027-.237-.027-.263-.026-.369 0-.263.027m1.42 0a.64.64 0 0 0 .315 0c.079-.027.026-.027-.158-.027-.184-.026-.236 0-.157.027m7.415 0c.263.026.71.026.973 0 .263-.027.08-.027-.473-.027-.526 0-.736 0-.5.027m3.63 0a.64.64 0 0 0 .315 0c.079-.027.026-.027-.158-.027-.158-.026-.237 0-.158.027m8.573 0h3.813c1.052 0 .21-.027-1.867-.027-2.13 0-2.998 0-1.946.027m8.467 0c-.026.052 3.156.052 7.074 0 .841 0-.42-.027-2.761-.027-2.34 0-4.286 0-4.313.027m10.808-.027a.363.363 0 0 0 .237 0c.079-.026 0-.026-.132-.026-.105 0-.158.026-.105.026m10.019.027h6.68c1.814 0 .315-.027-3.367-.027-3.681 0-5.18 0-3.313.027m14.358 0h1.473c.394 0 .052-.027-.763-.027-.815 0-1.13 0-.71.027m6.68 0h1.656c.447 0 .079-.027-.815-.027-.92 0-1.289 0-.842.027m4.76 0a.64.64 0 0 0 .315 0c.08-.027.027-.027-.157-.027-.184-.026-.263 0-.158.027m-95.377 1.051c0 .184.026.237.026.158a.641.641 0 0 0 0-.315c0-.08-.026 0-.026.157m.368.08c0 .183.026.236.026.157a.64.64 0 0 0 0-.316c-.026-.078-.026 0-.026.158m43.126.027c-.053.42-.053.394.053.289a.738.738 0 0 0 .026-.368l-.026-.29-.053.369m7.363 3.155-.342.053h.368c.21 0 .368-.027.368-.053s0-.052-.026-.052-.184.026-.368.052m19.801 0c.026.026.184.053.368.026l.316-.026-.368-.026c-.184 0-.342 0-.316.026m10.571 0c.027.026.184.053.369.026l.315-.026-.368-.026c-.21 0-.342 0-.316.026m12.938 0-.342.053h.342c.184 0 .342-.027.368-.053.027-.026.027-.052.027-.052-.053 0-.21.026-.395.052m-99.742 2.446.026 2.366.026-2.314c0-1.262 0-2.34-.026-2.366-.026-.053-.053.999-.026 2.314m7.205 0c0 1.288 0 1.84.026 1.183v-2.367c0-.63-.026-.105-.026 1.184m36.21 0c0 1.288 0 1.84.026 1.183v-2.367c-.026-.63-.026-.105-.026 1.184m16.961-1.026c0 .736 0 1.026.027.658v-1.342c-.027-.341-.027-.026-.027.684m30.899.053c0 .342 0 .473.026.289.026-.158.026-.42 0-.605-.026-.158-.026-.026-.026.316m-58.115.394c.026.053.078.736.078 1.525l.027 1.447.026-1.526c.026-1.314 0-1.525-.079-1.525-.079-.026-.105 0-.052.08m11.78.21h1.21c.316-.027.026-.027-.631-.027-.658 0-.92.027-.579.027m-29.478.078c.29.027.736.027 1.026 0 .289-.026.052-.026-.5-.026s-.789 0-.526.026m75.813 1.315c0 .342 0 .5.026.342a2.532 2.532 0 0 0 0-.631c-.026-.184-.026-.053-.026.29m-46.335-.474h1.21c.316 0 .026-.026-.631-.026s-.92.026-.579.026m-24.245.841c-.079.027-.131.053-.131.08 0 .078.263 0 .315-.08.053-.052 0-.052-.184 0" fill="#797575" fill-rule="evenodd" data-name="path4"/></g></svg>