<svg xmlns="http://www.w3.org/2000/svg" width="89.646" height="89.647" viewBox="224.491 90.429 89.646 89.647"><g data-name="369122"><g data-name="XMLID_2_"><g data-name="Group 24816"><path d="M305.801 131.672c.202 2.294-1.398 4.151-2.987 5.18-.112 1.097-.358 2.048-.627 2.988 1.365-1.197 2.473-2.652 3.614-4.084.134 3.334-3.86 3.882-4.397 7.06 1.186-.75 2.719-2.506 4.084-3.614-.448 2.014-2.216 4.062-4.397 4.867-.269.414-.37.996-.627 1.41 1.813-.962 3.1-2.439 5.18-3.144-.839 2.193-2.707 3.357-5.18 3.927-.515.482-.738 1.242-.94 2.037 1.746-.504 3.346-2.518 5.807-2.831-.76 1.42-1.947 2.383-3.457 3.144-1.488.75-3.536.66-3.927 2.506 2.08-.738 3.703-1.946 6.433-2.036-1.096 2.204-3.49 3.1-6.903 2.988-.426.783-1.209 1.197-1.567 2.036 2.126-.627 4.341-1.891 7.06-1.41-1.096 2.216-4.386 3.513-7.687 2.506-.816.38-1.107 1.298-1.723 1.88 2.093-.391 4.756-.973 6.747-.156-1.051 2.025-5.527 2.249-7.217.626-.917.761-1.678 1.667-2.663 2.35 2.104.224 5.36-.258 6.747 1.096-1.857 1.276-6.433.996-8-.313-.962.56-1.835 1.197-2.987 1.567 1.074.503 3.659.548 5.494.783-1.533.526-2.943.66-4.554.47-.739-.09-1.522-.627-2.193-.627-1.746 0-3.872 1.287-5.65 1.88-1.959.66-3.783 1.298-5.651 1.88 3.737 2.07 8.022 3.591 12.084 5.337-1.656 1.063-3.681 1.757-5.337 2.83-2.977-2.987-7.542-4.397-11.614-6.276-3.928 1.779-8.414 2.998-10.988 6.12-1.88-.94-3.77-1.88-5.65-2.83 3.849-1.847 8.47-3.346 11.614-5.025-1.656-.649-3.29-1.13-5.024-1.723-1.522-.526-3.38-1.667-4.867-1.723-1.712-.078-4.14 1.443-6.59.313 1.253-.738 3.826-.145 5.023-.94-.962-.346-1.812-.805-2.506-1.41-2.26 1.075-5.505 1.31-8.157.47.884-1.633 4.51-1.33 6.747-1.096-.66-1.018-1.89-1.454-2.506-2.506-1.891 1.465-5.807 1.365-7.217-.47 1.667-1.141 4.654-.38 6.59 0-.515-.638-.951-1.343-1.566-1.88-3.2.895-6.669-.09-7.53-2.506 2.92-.146 4.8.738 6.746 1.566-.201-1.007-1.174-1.23-1.41-2.193-3.4.313-6.097-.906-6.746-2.83 2.54.178 4.23 1.219 6.12 2.036.146-.526-.671-1.265-1.096-1.724-2.92-.324-4.733-1.756-5.964-3.77 2.36.414 3.748 1.801 5.494 2.83.19-.615-.437-1.622-.784-2.192-2.484-.437-4.24-1.623-5.023-3.771 1.924.694 3.177 2.059 4.867 2.987.078-.492-.224-.615-.314-.94-1.946-1.242-3.76-2.618-4.553-5.023 1.577.995 2.696 2.428 4.083 3.614-.402-3.357-4.05-3.48-4.397-6.904 1.41 1.097 2.283 2.73 3.614 3.927-.01-3.86-3.58-4.162-3.614-8 1.22 1.086 1.88 2.72 2.831 4.084.794-3.67-2.562-4.554-2.35-8.157 1.04 1.108 1.488 2.798 2.193 4.241.996-4.453-2.16-6.11-2.193-10.048 1.12 1.399 1.645 3.368 2.35 5.18 1.32-3.143-1.656-5.113-1.097-8.95.963 1.499 1.063 3.849 1.724 5.65 1.902-2.82-.94-5.527-.157-8.951.76 1.22 1.074 2.898 1.253 4.71 1.891-1.633-.045-4.654.627-7.217.47 1.097.682 2.462.626 4.084 1.835-1.085.112-4.878 1.097-6.903.414 1.141.503 2.752.313 4.084 1.813-.638.895-4.017 1.723-5.65.358.682.056 2.036.157 2.987.246-.067.481-.235.694-.47-.112.157-.19.37-.224.626.515.18 1.734-.134 2.506.157-.996 1.31-4.23.37-4.24 2.663.995-.257 2.226-.29 3.3-.47-.649.862-2.003 1.03-3.614.94-.492.459-.716 1.175-.94 1.88.571-.213 2.104-.94 3.458-.47-.414 1.264-2.025 1.32-3.771 1.253-.481.615-.783 1.41-.94 2.35 1.31-.37 2.54-.817 3.77-1.253-.39 1.018-2.45 1.734-4.083 2.036-.582.727-.604 2.014-.94 2.987 1.421-.94 2.406-2.305 4.24-2.83-.839 1.767-2.673 2.562-4.397 3.457-.044.951-.235 1.746-.313 2.663 1.208-1.085 2.607-2.003 3.927-2.987-.38 1.61-2.383 2.953-4.084 3.77-.067.716.157 1.723-.156 2.193.772-.01.716-.861 1.096-1.253.963-.705 1.914-1.432 2.988-2.036-.437 1.555-2.227 3.11-3.928 3.927.101 1.052-.212 2.506.157 3.3.962-1.7 2.115-3.222 3.614-4.396-.268 1.88-2.059 3.591-3.614 4.71.011 1.04-.09 2.182.313 2.83.985-1.621 1.701-3.535 3.301-4.553-.246 1.891-2.025 3.625-3.3 5.024.2 1.164.346 2.372.94 3.144.57-2.316 1.689-4.062 2.83-5.807.078 2.943-3.95 5.762-1.88 8.795.683-2.082 1.421-4.13 2.507-5.808-.146 2.104-1.466 4.398-2.35 6.277.19.806.503 1.477.94 2.037.414-2.148 1.298-3.827 2.036-5.65.067 2.629-2.875 6.187-.47 8.48.795-1.767.951-4.184 1.41-6.276.638 3.446-2.271 7.44.627 9.264.324-.929.167-2.338.47-3.3v-.94c-.023-.392.19-.269.156 0-.033 2.853-.369 6.02 1.567 6.903.347-1.264.156-3.088.47-4.397v-.94c.347 1.22.156 4.341.47 6.12.537.571.928 1.265 1.723 1.567-.213-1.31-.425-3.972-.314-6.12 1.365 2.562-.145 8 3.145 8.637-.493-1.812-.907-3.692-.94-5.963 1.085 1.22 1.443 4.005 1.253 5.963.537.817 1.544 1.175 2.506 1.567-.268-.929-1.018-2.753-1.096-4.397 1.242.223 1.633 2.663 1.723 4.554 4.162 1.275 9.13 3.043 14.131 2.987 4.935-.056 10.417-2.305 14.759-3.3.179-1.489.38-4.051 1.566-5.025.448 1.645-.459 3.301-.94 4.554.66.079 1.79-.716 2.507-1.096.01-2.551.313-4.812 1.253-6.434.324 1.947-.336 4.263-.783 5.964.57-.123 1.656-1.063 2.193-1.723.09-2.63.335-5.103.94-7.217.436 2.059-.012 4.587-.314 6.433.448-.078 1.399-.995 1.88-1.566.078-2.014.268-3.916.313-5.964-.022-.179.034-.28.157-.313v1.723c.157 1.197.313 2.406.313 3.77.795-.402 1.086-1.32 1.723-1.879.011-.66-.01-2.238 0-3.457.011-1.086.056-3.089.157-1.097.246 1.164.213 2.618.47 3.77 2.775-2.07.313-5.896.47-9.734.582 2.037.984 4.252 1.41 6.434 2.83-1.868-.09-5.404-.314-8.325.907 1.612 1.768 3.256 2.037 5.494.727-.268.671-1.32 1.096-1.88-.95-2.025-1.98-3.983-2.506-6.433 1.264 1.51 1.97 3.58 2.506 5.807 2.283-2.943-1.656-5.908-2.036-9.108 1.309 1.723 2.63 3.446 2.987 6.12.85-.56.806-2.014 1.097-3.144-1.197-1.678-2.82-2.931-3.458-5.18 1.69.917 2.54 2.696 3.301 4.554 2.305-3.39-2.931-4.677-3.3-7.374 1.667.37 2.841 2.596 3.77 4.24.37-.783.056-2.248.157-3.3-1.645-1.018-3.055-2.283-4.084-3.927.56-.616 1.42.95 1.41.94.313.19.671-.056.94.156.637.504 1.018 1.376 1.723 2.036.414-.525-.224-1.342 0-2.192-1.712-.907-3.2-2.026-4.241-3.615 1.399.168 2.741 1.757 3.927 2.663.347-.615-.145-1.734-.156-2.506-1.623-1.097-3.592-1.857-4.554-3.614 1.443.29 3.121 1.69 4.24 2.83.213-.894-.425-2.293-.783-3.143-1.88-.112-3.088-.884-4.24-1.723 1.152-.213 2.506.738 3.77.94.291-.717-.526-1.668-.783-2.35-1.79.056-3.457.01-3.927-1.253 1.309-.426 2.707.01 3.614.47-.202-.739-.571-1.31-.94-1.88-1.556.09-2.842-.079-3.614-.784.906-.38 2.238.157 3.144.314-.023-.918-.716-1.164-.94-1.88-1.31 0-2.506-.1-3.3-.627.38-.604 1.61-.503 2.349-.313.302-.515-.683-1.096-.94-1.566-1.108.29-3.055.29-3.457-.627.984 0 2.047-.067 2.83.157.314-.123.37-1.399.314-2.35.347 1.69.57 3.513 1.88 4.24-.079-1.23.078-2.215.156-3.3.918 1.98-.045 4.867 1.723 5.964-.01-1.074 0-3.156.313-4.398 1.22 2.115-.537 5.517.94 7.06.437-1.185.46-2.785.784-4.083 1.029 2.64-1.186 5.426.626 7.373.537-1.555.638-3.547 1.41-4.867.918 3.67-2.07 6.266-.157 9.265.616-1.79.907-3.917 1.567-5.65.895 3.826-2.059 5.56-1.097 9.107.963-1.645 1.432-3.793 2.507-5.337.145 3.703-2.876 5.606-2.35 10.204 1.007-1.242 1.443-3.054 2.35-4.397.447 3.48-2.831 4.599-2.507 8.481 1.22-1.264 1.902-2.987 3.01-4.285Z" fill="#259146" fill-rule="evenodd" data-name="Path 62186"/><path d="M291.043 104.986c1.41.582 2.215 1.768 3.144 2.83-.828-.548-2.618-1.465-3.144-2.83Z" fill="#259146" fill-rule="evenodd" data-name="Path 62187"/><path d="M247.406 106.866c.022 1.22-1.992 1.779-2.663 2.83.056-.537 1.566-2.293 2.663-2.83Z" fill="#259146" fill-rule="evenodd" data-name="Path 62188"/><path d="M244.273 110.323c.984 0 2.092-.38 2.987 0-1.04 1.03-3.3.201-4.196 1.097.56-.75.94-2.014.896-3.29.235.548.2 2.025.313 2.193Z" fill="#259146" fill-rule="evenodd" data-name="Path 62189"/><path d="m243.053 111.42-.123.156a.847.847 0 0 1 .123-.156Z" fill="#259146" fill-rule="evenodd" data-name="Path 62190"/></g></g><path d="m272.38 119.744-2.552 1.846-2.55-1.846h1.924s-.593-1.41.078-1.566c0 0-.783-1.298-.201-1.455 0 0-.862-1.018.078-1.488 0 0-.671-1.141.045-1.488 0 0-.828-1.331 0-1.566 0 0-.705-1.298.045-1.489v-3.602s-.974-.605-.672 2.663l-.235.234.079.94s-.862-.436-.549-1.063l-.593.235s-.235-.47 0-1.41c0 0-.111-.234-.335.314 0 0-1.164-.94.056-2.193v-.28s-.549-.671.514-1.175c0 0 .672-.984-.57-1.018 0 0-.302 1.175-.694 1.175 0 0-.045.861-.459.861 0 0 .056.884-.548 1.097 0 0 .157.626-.134.705 0 0-.056.548.134.649 0 0-1.387-1.13-.649-3.01l.862-1.78s.235-.525-.65-.368l-.055.604s-.246.391-.37-.1c0 0-.57-.448-.514.917l.1.76s-.212.414-.391-.257c0 0-.94.023 0 1.835 0 0-1.757-1.331-.65-3.245l2.227-2.383s-.1-.996-1.7-.235c0 0-.46.257-.884.727 0 0 .783-2.226 2.92-2.562h1.522s.526-1.253-1.678-.649c0 0-.37-1.7 1.857-1.287l1.488 1.287.134.023v-1.623l.895-.94 1.052.918V99.1l1.522-1.332s2.07-.548 2.148 1.208c0 0-2.249-.548-1.913.728h1.913s2.227.212 2.775 2.428c0 0-1.544-1.544-2.775-.57l2.64 2.718s1.019 1.645-.603 3.066c0 0 .704-1.522-.135-1.858 0 0-.179-.055-.391.336 0 0 .235-1.365-.213-1.678 0 0-.414-.18-.649.212 0 0 .056-.917-.862-.649 0 0-.1.526.884 1.914 0 0 .84 2.114-.47 3.166 0 0 .135-1.365-.626-1.756 0 0 .336-.784-.47-1.019 0 0 .257-.369-.448-.705 0 0-.313-.134-.257-.727 0 0-.806-.682-.783.492 0 0 1.152.884.57 1.388 0 0 1.209 1.096.448 1.801 0 0 .18 1.019-.447.605 0 0-.37-.627-.291.626 0 0 .391.806-.414.47 0 0-.079.705-.571.974v-.974h-.235v-2.193s.078-.705-.682-.627v3.402s.682.336.022 1.6c0 0 .783.157.022 1.522 0 0 .705.156.056 1.488 0 0 .918.056.134 1.622 0 0 .683 0-.212 1.388 0 0 .783-.079.078 1.488l1.858.09Z" fill="#259146" fill-rule="evenodd" data-name="Path 62191"/><path d="m277.885 127.577-.884.705c-1.488.626-3.01-.84-3.01-.84-.548-.447.369-.705.369-.705 1.365-.492.257-1.309.257-1.309-1.331-.235-.917.784-.917.784.313.76-.414.648-.414.648l-2.495-2.36c1.544-1.477 4.632-4.286 7.06-5.483 0 0 2.227-1.622 8.56-1.88 0 0-5.102-2.305-10.574 1.388 0 0-4.319 2.752-6.042 4.789l-.067.067-.067-.067c-1.723-2.037-6.042-4.79-6.042-4.79-5.472-3.692-10.574-1.387-10.574-1.387 6.333.258 8.56 1.88 8.56 1.88 2.428 1.208 5.527 4.006 7.06 5.483l-2.495 2.36s-.728.101-.414-.648c0 0 .414-1.019-.918-.784 0 0-1.096.806.258 1.31 0 0 .917.257.369.704 0 0-1.522 1.466-3.01.84l-.884-.705s-1.287-.47-1.488.861c0 0 1.052 2.697 4.52 1.41 0 0 1.332-.448 2.305-1.622l.493.447s-.056 1.018.783 1.074c0 0 .57-.1.548-.839 0 0-.157-.57-.996-.626l-.414-.37s1.578-1.454 2.395-2.36c.816.906 2.394 2.36 2.394 2.36l-.414.37c-.84.055-.996.626-.996.626-.022.727.549.84.549.84.839-.057.783-1.075.783-1.075l.492-.447c.962 1.174 2.305 1.622 2.305 1.622 3.48 1.287 4.52-1.41 4.52-1.41-.19-1.331-1.465-.861-1.465-.861Z" fill="#259146" fill-rule="evenodd" data-name="Path 62192"/><path d="M279.518 131.314h6.669s-1.723 14.21-16.795 14.21c0 0-12.632.157-15.855-14.21h6.512s2.585 6.198 9.813 6.668c0 .012 7.15.012 9.656-6.668Z" fill="#259146" fill-rule="evenodd" data-name="Path 62193"/><path d="M287.843 130.922h7.687s-2.115 20.879-24.638 22.837c0 0-21.74 1.88-26.686-22.445h7.53s2.663 15.071 18.126 15.071c0 0 14.288.94 17.98-15.463Z" fill="#259146" fill-rule="evenodd" data-name="Path 62194"/><g data-name="Group 24817"><path d="M269.314 180.076c-3.044 0-6.076-.302-9.03-.907a44.427 44.427 0 0 1-8.414-2.618 45.607 45.607 0 0 1-7.62-4.129 45.028 45.028 0 0 1-6.635-5.471 45.032 45.032 0 0 1-5.471-6.635 43.981 43.981 0 0 1-4.129-7.62 45.252 45.252 0 0 1-2.618-8.414 45.189 45.189 0 0 1-.906-9.03c0-3.043.302-6.075.906-9.03a44.429 44.429 0 0 1 2.618-8.413 45.608 45.608 0 0 1 4.129-7.62 45.034 45.034 0 0 1 5.471-6.635 45.033 45.033 0 0 1 6.636-5.472 43.981 43.981 0 0 1 7.62-4.129 45.25 45.25 0 0 1 8.413-2.618 45.19 45.19 0 0 1 9.03-.906c3.043 0 6.075.302 9.03.906a44.428 44.428 0 0 1 8.413 2.618 45.612 45.612 0 0 1 7.62 4.13 45.033 45.033 0 0 1 6.635 5.47 45.033 45.033 0 0 1 5.472 6.636 43.982 43.982 0 0 1 4.128 7.62 45.244 45.244 0 0 1 2.619 8.414 45.19 45.19 0 0 1 .906 9.03c0 3.043-.302 6.075-.906 9.029a44.422 44.422 0 0 1-2.619 8.414 45.612 45.612 0 0 1-4.128 7.62 45.03 45.03 0 0 1-5.472 6.635 45.028 45.028 0 0 1-6.635 5.471 43.975 43.975 0 0 1-7.62 4.13 45.25 45.25 0 0 1-8.414 2.617 45.025 45.025 0 0 1-9.03.907Zm0-87.745c-2.91 0-5.818.291-8.65.873-2.752.56-5.46 1.41-8.055 2.495a42.514 42.514 0 0 0-7.284 3.96 43.799 43.799 0 0 0-6.356 5.237 43.301 43.301 0 0 0-9.197 13.64 42.24 42.24 0 0 0-2.495 8.056 43.04 43.04 0 0 0-.873 8.65c0 2.908.291 5.817.873 8.648.56 2.753 1.41 5.46 2.495 8.056a42.519 42.519 0 0 0 3.96 7.285 43.798 43.798 0 0 0 5.237 6.355 43.3 43.3 0 0 0 13.64 9.197 42.239 42.239 0 0 0 8.056 2.495c2.83.582 5.74.873 8.649.873 2.909 0 5.818-.29 8.649-.873 2.752-.559 5.46-1.41 8.056-2.495a42.512 42.512 0 0 0 7.284-3.96 43.798 43.798 0 0 0 6.355-5.237 43.302 43.302 0 0 0 9.197-13.64 42.24 42.24 0 0 0 2.496-8.056c.582-2.83.873-5.74.873-8.649 0-2.909-.291-5.818-.873-8.649a43.313 43.313 0 0 0-2.495-8.056 42.515 42.515 0 0 0-3.961-7.284 43.801 43.801 0 0 0-5.237-6.356 43.297 43.297 0 0 0-13.64-9.197 42.243 42.243 0 0 0-8.055-2.495 43.04 43.04 0 0 0-8.65-.873Z" fill="#259146" fill-rule="evenodd" data-name="Path 62195"/></g><g data-name="Group 24822"><path d="M281.23 134.838s-.57.705-.705-.391c0 0 .996-.84 1.757 1.096 0 0 .1 1.488-.761 1.544 0 0 .57-.962.235-1.756 0 0 .034-.605-.526-.493Z" fill="#fff" fill-rule="evenodd" data-name="Path 62196"/><path d="M279.865 135.834s-.156.94.761 1.802c0 0 .526 1.521-.772 2.193 0 0-.47.123 0-.627 0 0 .76-.649-.1-2.215 0 0-.75-.93-.337-1.32.012.01.448-.258.448.167Z" fill="#fff" fill-rule="evenodd" data-name="Path 62197"/><path d="M277.918 138.777s-1.589-.548-2.025-2.104c0 0 1.947.314 2.887 2.104 0 0 .57 1.633-.907 2.036 0 0-.022-.179.392-1.074 0 0 .291-.839-.134-1.275 0 0-.604-.784-1.477-1.075 0 0 .805.963 1.264 1.388Z" fill="#fff" fill-rule="evenodd" data-name="Path 62198"/><path d="M290.897 135.017s-1.89-.022-2.92-1.555c0 0 2.17-.358 3.838 1.242 0 0 1.208 1.567-.19 2.551 0 0-.09-.19.01-1.32 0 0 0-1.03-.615-1.343 0 0-.94-.638-1.958-.649-.011.011 1.209.772 1.835 1.074Z" fill="#fff" fill-rule="evenodd" data-name="Path 62199"/><path d="M270.914 141.988s-.962-1.376-.392-2.887c0 0 1.388 1.4 1.086 3.402 0 0-.504 1.656-1.936 1.119 0 0 .09-.157.951-.638 0 0 .738-.504.638-1.108 0 0-.023-.996-.549-1.734 0-.022.09 1.23.202 1.846Z" fill="#fff" fill-rule="evenodd" data-name="Path 62200"/><path d="M279.26 147.997s-1.33-1.04-1.219-2.742c0 0 1.746.906 2.048 2.999 0 0-.011 1.835-1.544 1.813 0 0 .044-.19.738-.985 0 0 .57-.772.302-1.343 0 0-.313-.984-1.04-1.544-.011 0 .436 1.22.716 1.802Z" fill="#fff" fill-rule="evenodd" data-name="Path 62201"/><path d="M260.05 147.829s-.09-1.69 1.286-2.72c0 0 .459 1.914-.94 3.514 0 0-1.387 1.186-2.383.012 0 0 .168-.09 1.23-.079 0 0 .952-.078 1.21-.649 0 0 .536-.884.491-1.79-.01-.011-.637 1.119-.895 1.712Z" fill="#fff" fill-rule="evenodd" data-name="Path 62202"/><path d="M265.711 141.53s-.504-1.612.492-2.876c0 0 .895 1.757.012 3.57 0 0-.974 1.42-2.182.48 0 0 .134-.123 1.107-.324 0 0 .85-.258.951-.862 0 0 .269-.95 0-1.823 0-.012-.302 1.208-.38 1.834Z" fill="#fff" fill-rule="evenodd" data-name="Path 62203"/><path d="M277.112 139.347s-.335-.134-.123 1.04c0 0 .683 2.138-1.253 2.53 0 0-.369.1.157-.493s.906-.883.76-2.08c0 0-.413-1.422.202-1.6 0 .01.425-.034.257.603Z" fill="#fff" fill-rule="evenodd" data-name="Path 62204"/><g data-name="Group 24818"><path d="M275.01 140.59c-.55-.045-.963-.314-.963-.314l-.202.549c.392.178.202.648.202.648 0 1.198.962.705.962.705.783-.984 0-1.588 0-1.588Zm-.046 1.04s-.526.28-.649-.157c0 0-.045-.537 0-.626.012-.011 1.007.134.65.783Z" fill="#fff" fill-rule="evenodd" data-name="Path 62205"/></g><path d="M269.235 142.111s-.47-1.41 0-2.708c0 0 1.063 1.142.705 3.156 0 0-.212 1.14-1.118.906 0 0-.627.1-.784-.75 0 0-.705 2.216-2.114.862 0 0 1.633.123 1.868-1.31l.392-.86s.156.346.179 1.14c0 0 .492.862 1.309-.044 0 0 .212-1.074-.336-2.137 0 0-.19.727-.1 1.745Z" fill="#fff" fill-rule="evenodd" data-name="Path 62206"/><g data-name="Group 24820"><path d="M261.605 141.854c0 .011 0 .011 0 0Z" fill="#fff" fill-rule="evenodd" data-name="Path 62207"/><g data-name="Group 24819"><path d="M264.614 141.406c-.234-.235-.76-1.141-.76-1.141-.549-.727-1.712.57-1.712.57-.862-.156-.65-.704-.65-.704l1.825-2.428-.493.078-1.61 2.115c-.918.235-1.064-.795-1.064-.795.436-.29.134-.458.134-.458-.906.201-1.309-.314-1.309-.314-.414-.492.392-1.074.392-1.074.626-.75-.291-.828-.291-.828l-1.925-.022c-.235-.672.828-1.455.828-1.455 1.22-.29 1.768.627 1.768.627.683.75.705.492.705.492l-1.141-1.354c-1.354-.626-2.495.84-2.495.84-.683.962 0 1.297 0 1.297h1.868c.57.202-.28.84-.28.84-.234 1.309 1.31 1.398 1.31 1.398-.157 1.32 1.309 1.175 1.309 1.175 0 .918.75 1.007.75 1.007-.135.504-.168.57-.18.582l.426-.448c1.566.023 1.79.213 1.79.213 1.197.257.805-.213.805-.213Zm-1.991-.425c.078-.448.447-.47.447-.47.66-.056.672.47.672.47h-1.12Z" fill="#fff" fill-rule="evenodd" data-name="Path 62208"/></g></g><path d="M260.788 135.52v-.47h-.593v.47l.403.102v.391l.514.123v-.436l-.324-.18Z" fill="#fff" fill-rule="evenodd" data-name="Path 62209"/><g data-name="Group 24821"><path d="M290.416 137.837c.728-1.197-.268-1.298-.268-1.298l-.079.548c-.447.448-.335-.872-.335-.872-.493-1.69-2.294-1.51-2.294-1.51.045.86 1.555 1.767 1.555 1.767-.045-.291-.861-1.119-.861-1.119 1.074.257 1.298.705 1.298.705l.044.627c-.111.883.47 1.04.47 1.04.414 1.276-.57 1.891-.57 1.891l-.627.045.045.201c.37 1.12-.783 1.354-.783 1.354l-2.35-2.081-.078.414 2.215 2.036c.1 1.175-1.141 1.198-1.141 1.198l-1.667-1.735.212-.928.918 1.174c-.392-.906-1.175-2.215-1.175-2.215 0 1.745-1.063 3.513-1.063 3.513.604-.335.984-1.152.984-1.152l1.466 1.611c.414.671-.783 1.432-.783 1.432l-.47-.29c-.794-.806-1.063.123-1.063.123l.023 2.192-.135.28c-1.868-.123-1.6-2.103-1.6-2.103 1.32-1.231 1.231-1.724 1.231-1.724l-1.421 1.511c-.649 1.567.783 2.417.783 2.417.907.917 1.533.212 1.533.212l-.056-1.633c-.179-1.276.336-1.074.336-1.074.47.671.828.593.828.593 1.398.056 1.298-1.634 1.298-1.634 1.745-.078 1.309-1.645 1.309-1.645.805.247.996-.895.996-.895.436.828.917.37.917.37.437-.683-.257-1.354-.257-1.354.861-.202.615-1.992.615-1.992Zm-1.063 2.44s.448-.08.437.39c-.012 0-.437.27-.437-.39Z" fill="#fff" fill-rule="evenodd" data-name="Path 62210"/></g><path d="M277.482 148.713s-1.4-1.533-.906-2.91c0 0 1.488.75 1.745 2.91 0 0 .447 2.08-1.69 1.454 0 0-.67.996-2.16.884 0 0-.525.18-.749.985 0 0-.268 1.141-2.092.783 0 0-.66-.078.794-.335 0 0 .996-.515 1.41-1.634 0 0 .325-.37 1.198-.392 0 0 1.04-.336 1.219-.604 0 0-.078-.28-.66-.157 0 0-.146-.67.772-.94 0 0 .57-.134.548.415l.022.548s1.254.134 1.041-1.276c0 0-.392-1.063-1.018-1.611l.526 1.88Z" fill="#fff" fill-rule="evenodd" data-name="Path 62211"/><path d="M271.496 149.183s.984.57.145 2.059c0 0-1.566.962-2.484 0 0 0 .023-.202-.358-.045 0 0-1.41 1.063-2.473-.28 0 0-.223-.28-.123-.828 0 0-.335-.526-.895.235l-1.108 1.142s-.883.503-.94-1.052c0 0-.57-2.462 1.534-2.496 0 0 1.23.291 1.711.235 0 0-.514.37-1.958.101 0 0-.94-.078-.805 1.399 0 0 .045 1.32.593 1.23l1.477-1.544s.738-.537.794.605c0 0-.09.805.616 1.018 0 0 1.633.436 2.036-.727l.414.682s1.175.436 1.824-.179c0 0 .391-.37-.18-.604 0 .011-.626-.504.18-.951Z" fill="#fff" fill-rule="evenodd" data-name="Path 62212"/><path d="M258.349 146.844s.704-2.506 1.566-2.607c0 0 .604 2.036-1.22 3.692 0 0-.548.392-1.566-.212l-2.294-1.902v-.493l-.593-.078-.884-.682v-.392s-1.824 1.04-2.316-1.276c0 0 .906 1.399 2.104 1.063v-.223s-.493-.392-.123-.694c0 0 .682-.123.682.156l.056 1.041.828.683h.213v-.392l-.157-.022.078-.314.795.079.123.883-.313.124.022.358.57.447.437-.257-.157.414.437.37.548-.135-.257.313.2.134.572-.179-.37.437s.862.973 1.645.123c0 0 .627-.862.448-2.137.01-.034-.84 1.644-1.074 1.678Z" fill="#fff" fill-rule="evenodd" data-name="Path 62213"/><path d="M251.367 140.836s-.235-1.377 1.175-1.433h.525s.627 1.959-.682 2.45c0 0-1.69.851-2.607-1.353v-.246s1.052 1.051 1.723 1.465c0 0 1.164.168 1.164-.995 0 0 .29-.84-.336-.996 0 0-.358-.101-.28.906 0-.011-.268.414-.682.202Z" fill="#fff" fill-rule="evenodd" data-name="Path 62214"/><path d="M251.58 138.878h-.65l-.28.648h-.313l-.828-1.074v-.638l.605-.592s.525-.437-.605-.806c0 0-1.51-.313-1.588-.29-.079.021-.336-.75.234-1.254 0 0 1.276-1.23 2.026.179 0 0 .313 1.018.995 1.309 0 0-.604-.962-.805-1.611 0 0-.895-1.555-2.574-.056 0 0-1.029.76-.48 1.667.022.123.514.436 1.767.336 0 0 1.119.201.18.917 0 0-.527.1-.392 1.03l1.174 1.387s.672.526 1.533-.75v-.402Z" fill="#fff" fill-rule="evenodd" data-name="Path 62215"/><path d="M278.164 135.174h.716v.604l-.615-.1-.1-.504Z" fill="#fff" fill-rule="evenodd" data-name="Path 62216"/><path d="M273.633 139.403v-.369l.57.067v.526l-.57-.078-.1.492-.527-.28s-.045-.436 0-.447c.045-.022.627.09.627.09Z" fill="#fff" fill-rule="evenodd" data-name="Path 62217"/><path d="M282.93 142.492v-.392h.616v.526h-.615v.57h-.65l.124-.548.526-.156Z" fill="#fff" fill-rule="evenodd" data-name="Path 62218"/><path d="m270.847 152.025.459.526-.46.391-.335-.37.336-.547Z" fill="#fff" fill-rule="evenodd" data-name="Path 62219"/><path d="m269.314 152.316.481.414-.481.57-.425-.492-.37.492-.548-.492.504-.492.402.302.437-.302Z" fill="#fff" fill-rule="evenodd" data-name="Path 62220"/><path d="m266.337 147.359.415-.224.425.526-.57.391-.37-.391-.414.168-.37-.549.47-.391.414.47Z" fill="#fff" fill-rule="evenodd" data-name="Path 62221"/><path d="m264.2 138.934.157.604h-.615v-.504l.458-.1Z" fill="#fff" fill-rule="evenodd" data-name="Path 62222"/><path d="M259.054 140.041v.459h-.504v-.459h-.459l-.078-.503h.615l.056.48.37.023Z" fill="#fff" fill-rule="evenodd" data-name="Path 62223"/><path d="M249.442 140.019s.078.481 0 .481h-.727l.123-.682h-.38v-.683l.67.1-.022.583.336.2Z" fill="#fff" fill-rule="evenodd" data-name="Path 62224"/><path d="m252.05 135.879-.169.626-.38-.179v-.581l-.448-.224v-.57l.728.1-.202.615.47.213Z" fill="#fff" fill-rule="evenodd" data-name="Path 62225"/></g></g></svg>