<svg xmlns="http://www.w3.org/2000/svg" width="751.817" height="206.154" viewBox="389.105 0.135 751.817 206.154"><g data-name="partnersBg" transform="translate(389.263 .076)" clip-path="url(&quot;#a&quot;)"><path d="M702.975 146.292v52.772c0 1.572 1.411 2.846 3.155 2.846h16.488c1.744 0 3.155-1.274 3.155-2.846v-52.772c0-1.573-1.41-2.847-3.155-2.847H706.13c-1.744.009-3.155 1.274-3.155 2.847Z" fill="rgba(90,88,77,0.14 )" fill-rule="evenodd" data-name="Path 62118"/><path d="M670.09 109.742h-12.734v-4.844h-20.698v4.844h-6.132v92.168h60.262v-97.012H670.09v4.844Z" fill="rgba(90,88,77,0.14 )" fill-rule="evenodd" data-name="Path 62119"/><path d="M46.09 134.344H16.332v55.745H46.09v-55.745Z" fill="rgba(90,88,77,0.14 )" fill-rule="evenodd" data-name="Path 62120"/><path d="M746.855 133.142h-.984v-.895h-1.811v-12.671h-1.812v12.671H722.15v71.85h23.721v-54.823h.984v-16.132Z" fill="rgba(90,88,77,0.14 )" fill-rule="evenodd" data-name="Path 62121"/><path d="M134.294 94.125h-22.793v109.63h22.793V94.124Z" fill="rgba(90,88,77,0.14 )" fill-rule="evenodd" data-name="Path 62122"/><path d="M289.356 88.793h-46.218v114.97h46.218V88.793Z" fill="rgba(90,88,77,0.14 )" fill-rule="evenodd" data-name="Path 62123"/><path d="M338.107 119.576h-46.216v85.28h46.216v-85.28Z" fill="rgba(90,88,77,0.14 )" fill-rule="evenodd" data-name="Path 62124"/><path d="M435.25 58.037H408.9v146.82h26.35V58.037Z" fill="rgba(90,88,77,0.14 )" fill-rule="evenodd" data-name="Path 62125"/><path d="M603.925 96.33h-16.02v25.035h-9.748v83.492h16.01v-25.035h9.758V96.33Z" fill="rgba(90,88,77,0.14 )" fill-rule="evenodd" data-name="Path 62126"/><path d="M696.461 185.155v-7.159h-4.43v-5.214h-5.673v-6.733c0-1.826-1.819-3.318-4.078-3.318h-4.196v-12.698h-2.605v-.84c0-1.835-1.823-3.308-4.077-3.308H654.69V136.9h-5.76V92.534h-25.108v81.983h-9.157v-21.565h-4.007v-4.545a.157.157 0 0 0-.081-.136l-.31-.235.19-2.332c0-.027 0-.054-.01-.081l-.19-.407v-1.518c0-.018 0-.045-.01-.064l-.331-.822c-.04-.09-.15-.144-.27-.135-.12.018-.2.1-.2.199v1.554l-.232.063-.31-.488c-.05-.08-.16-.118-.27-.1-.11.02-.191.1-.191.19v.968l-.65.1h-.772v-15.718c0-.108-.111-.199-.241-.199h-.13a.2.2 0 0 0-.05-.072l-.34-.334v-.606c0-.109-.111-.199-.241-.199h-.331c-.13 0-.25.09-.25.199v.542l-.05.037v-5.143a.205.205 0 0 0 .05-.127v-4.997c0-.045-.02-.091-.05-.118v-1.048a.207.207 0 0 0-.04-.109l-.322-.37-.52-1.185c-.03-.08-.13-.135-.24-.135-.1 0-.19.063-.221.145l-.23.686-1.623-3.18v-1.149a.238.238 0 0 0-.02-.08l-.381-.688v-1.085c0-.062-.05-.126-.11-.162l-.361-.19v-.57a.164.164 0 0 0-.02-.072l-.38-.732v-1.193c0-.108-.111-.198-.242-.198h-.4c-.13 0-.24.09-.24.198v1.446l-.251.48c-.01.027-.02.044-.02.072v.569l-.35.19c-.071.036-.111.1-.111.162v1.085l-.38.687c-.01.027-.02.054-.02.081v1.121l-.01.01-1.603 3.243-.251-.722a.237.237 0 0 0-.22-.145c-.1-.009-.201.054-.241.136l-.521 1.183-.31.371a.16.16 0 0 0-.04.109v2.051a.153.153 0 0 0-.02.072v.932c0 .027.01.045.02.072v.985a.156.156 0 0 0-.02.072v.93c0 .028.01.055.02.083v.614a.156.156 0 0 0-.02.072v5.54l-.03-.027v-.542c0-.109-.111-.199-.242-.199h-.33c-.13 0-.24 19.694-.24 19.802v.606l-.34.334a.194.194 0 0 0-.051.073h-.13c-.14 0-.24.09-.24.199v15.716h-1.143l-.28-.045v-1.021c0-.09-.08-.172-.191-.19a.247.247 0 0 0-.27.1l-.3.488-.242-.064v-1.564c0-.1-.08-.18-.2-.199-.12-.008-.23.046-.27.136l-.33.823c-.011.018-.011.045-.011.063v1.518l-.19.407c-.02.027-.02.054-.02.082l.06.731-5.27-1.057-3.697.814v-6.77H569.6v-7.646a.174.174 0 0 0-.09-.154h-.01v-17.452h1.693V87.826h-20.829v41.439h-12.002v25.929h-6.974v6.552h-5.95v-2.033l-3.076-.542v-22.63l-1.764.243v-19.296h-2.605v-8.016l-7.574-6.146v43.752h-4.148v-10.71h.02v-28.83h-4.829v-.317a.173.173 0 0 0-.09-.154l-1.072-.678v-2.54a.183.183 0 0 0-.08-.144l-.872-.642v-2.729a.14.14 0 0 0-.03-.09l-.53-.804V96.89c-.02-.081-.14-.642-.441-1.094-.12-2.766-.311-7.51-.441-10.963l-.03-2.223c0-.055-.02-.1-.05-.154-.01-.37-.02-.704-.03-.976v-.804l-.01-.145h-.722v.967c-.05 2.675-.39 10.656-.55 14.488-.231.407-.322.85-.341.922v2.548l-.532.805a.167.167 0 0 0-.03.09v2.73l-.871.641c-.05.046-.08.09-.08.145v2.54l-1.082.677c-.06.037-.09.1-.09.154v.316h-4.289v14.669c-.1.443-.18.895-.22 1.347h-.06c-.14 0-.24.09-.24.198v2.152h-12.243v20.94h-6.202l-1.152-6.923c-.01-.027-.02-.054-.05-.081l-.07-.064-.05-.289-.782-.705h-.24l-.862-.795-.641-14.515c0-.045-.04-.09-.08-.117a.22.22 0 0 0-.17-.01l-8.577 3.065v-.28h-.01l-.481-22.035c0-.081-.08-.145-.18-.145-.1 0-.18.064-.18.136l-1.032 23.977-6.393 10.032c-.01.019-.02.036-.02.055l-1.673 13.421h-3.526v5.134h-26.95V78.987h-13.596V127.8h-11.422v-4.464h-11.03l-.642-21.917h.02v-.2h-.02l-1.031-35.41.01-.253h-4.539V58.3h-18.054v7.257h-2.355l-1.091 37.598h-.41v1.654h-2.906v-1.654h-.492v1.654h-2.905v-1.654h-.49v1.654h-2.906v-1.654h-.502v1.654h-.99v-7.276c0-1.834-1.825-3.308-4.089-3.308h-12.273c-2.254 0-4.088 1.483-4.088 3.308v24.62h-.26v-5.595c0-.108-.11-.19-.25-.19h-.141v-1.88c0-.108-.11-.19-.24-.19v46.59h-16.02V94.994h-9.869v30.25h-10.43V110.23h-16.02v17.778h.532v15.961h-43.292v5.459h-1.592v-3.552c0-.162-.161-.299-.361-.299h-1.083v-1.608h-3.295v1.608h-1.183c-.2 0-.36.137-.36.299v3.552h-5.1c-.2 0-.36.127-.36.289v4.591c0 .163.16.298.36.298h.561v1.42h-.561c-.2 0-.36.135-.36.298v14.334l-1.093-1.898v-8.405h-.27v-1.257l-6.893-5.603-1.563 1.274-.842-.677-.64-.525v-2.476h-2.335v-2.016h-2.415v-6.75h-2.044l-.06 13.213h-6.552v25.369l-4.84 1.898-3.215-4.619v-6.417l-12.554-6.326v-16.63c0-.108-.11-.19-.24-.19h-.481v-4.708c0-.054-.03-.1-.07-.136-.02-.09-.12-.162-.24-.162h-.802v-.886a.168.168 0 0 0-.03-.1l-3.527-5.016v-26.59h-35.787v35.6l-.591-.849v50.206l-4.529-25.297v-10.647c.281-.515.431-1.084.431-1.68 0-2.143-1.983-3.914-4.538-4.167l-.19-2.657h-.832l-.19 2.648c-2.385.216-4.278 1.735-4.569 3.66h-1.252v4.808h-1.653v8.026l-10.68 25.297v-22.712H94.92v-37.553h-.581v-.668c0-1.826-1.834-3.308-4.088-3.308h-6.803c-2.254 0-4.078 1.482-4.078 3.308v.668h-1.242l-1.552 44.15c-.591-.831-.292 0-.292 0v3.697l-1.813-1.473h-3.235v2.205H21.913v20.38H74.16v.036h18.164v.045h15.98v-.045h35.787c.03.082.11.136.21.136h26.51a.22.22 0 0 0 .21-.136h14.227v.136h45.135l2.665.009-.01-.009h.74c.122 0 .232-.054.302-.136h21.951v.028h9.808c.02.063.08.108.16.108h59.111v-.054h.09v-.028c.02-.009.02-.036.031-.062h3.827c.05.08.15.135.27.135h20.208c.12 0 .22-.054.27-.135h1.183a.43.43 0 0 0 .32.135h31.27a.43.43 0 0 0 .32-.135h2.324v.135h20.77v-.135h3.756c.01.08.08.135.18.135h32.462c.01 0 .01-.01.02-.01h2.965c.01 0 .01.01.02.01h29.606c.09 0 .17-.063.17-.135h5.921c.03.08.11.135.21.135H585.04c.1 0 .17-.063.18-.135h5.25c.03.072.11.126.21.126h14.288c.01.01.03.01.04.01h1.753c.02 0 .03 0 .05-.01h3.587c.1 0 .18-.054.21-.126h24.957v.813h32.36l10.13-.813h18.366v-.904h32.06v-18.645h-32.019v.009Z" fill="rgba(90,88,77,0.14 )" fill-rule="evenodd" data-name="Path 62127"/><path d="m702.52 159.758.109-6.326-8.393-1.356v-9.065h-1.507v8.794l-7.341 1.627v6.326h-2.531v11.696h-31.243V203.6h31.243v.967h23.497v-44.81h-3.834Z" fill="rgba(90,88,77,0.14 )" fill-rule="evenodd" data-name="Path 62128"/><path d="M445.648 184.396v-70.478h-1.262v-9.652h-4.93v-5.658h-10.96V86.244h-1.132v12.364h-2.575v13.665h-.972v1.645h-4.188l-1.623 70.478h-13.304v20.46h46.617v-20.46h-5.671Z" fill="rgba(90,88,77,0.14 )" fill-rule="evenodd" data-name="Path 62129"/><path d="m394.211 77.73.03-.244h-.13v.064l.05.072c.03.027.04.072.05.108Z" fill="rgba(90,88,77,0.14 )" fill-rule="evenodd" data-name="Path 62130"/><path d="M112.183 129.346v-10.05h-2.404v-12.202h-7.745v-6.814h-3.206V83.415h-2.134v16.865h-2.405v6.814h-2.404v97.61h15.489v.36h3.737v.363h2.665v-76.081h-1.593Z" fill="rgba(90,88,77,0.14 )" fill-rule="evenodd" data-name="Path 62131"/><path d="M55.296 153.387v-2.893h-3.477v-1.202h-1.863v1.202h-1.072v-1.202H47.28v1.202h-1.333v-1.202h-1.873v1.202h-1.063v-1.202H41.14v1.202h-1.072v2.893h-.531v52.762h30.708v-52.762H55.296Z" fill="rgba(90,88,77,0.14 )" fill-rule="evenodd" data-name="Path 62132"/><path d="M720.623 165.18h-25.322v39.587h25.322V165.18Z" fill="rgba(90,88,77,0.14 )" fill-rule="evenodd" data-name="Path 62133"/><path d="M186.643 183.193v-.036h-2.806V84.184h-.07l-.02-.019a.382.382 0 0 0-.04-.1l-.2-.307h.09v-.632h-.511l-.591-.913a.41.41 0 0 0-.341-.18l-18.736.009v-2.305c.221 0 .401-.118.401-.317s-.18-.316-.4-.316v-.425c.22 0 .4-.225.4-.424 0-.199-.18-.416-.4-.425v-18.7c0-.198-.25-.361-.471-.361-.22 0-.471.163-.471.361v17.823h-.541c-.22 0-.401.163-.401.362v4.907h-1.723c-.22 0-.39.163-.39.362v97.826H143.17c-.22 0-.4.162-.4.36v14.236h-3.116c-.22 0-.4.163-.4.361V202.833h.04c.06.126.2.216.36.216h43.762c.11 0 .21-.054.281-.126.03-.027.04-.054.06-.09H186.452c.22 0 .4-.163.4-.362v-18.953c.02-.144-.07-.27-.21-.325Z" fill="rgba(90,88,77,0.14 )" fill-rule="evenodd" data-name="Path 62134"/><path d="M335.833 138.863a.454.454 0 0 0-.11-.217v-2.35c0-.262-.241-.48-.531-.48H335c.02-1.635-.26-5.919-3.456-9.833a15.392 15.392 0 0 0-1.984-1.97h.02v-.487h-.661a1.2 1.2 0 0 0-.14-.09v-1.347h.27v-.48h-.27v-8.188h.27v-.479h-.27v-.723h-.521l-.01-11.795-.27-.009v-6.019h-1.614v6.02l-.24.018.02 11.794H325.574v.723h-.27v.479h.27v8.188h-.27v.48h.27v.912c-1.343.65-2.875 2.106-3.597 2.983-3.196 3.922-3.466 8.224-3.436 9.851-.25.036-.452.226-.452.46v2.649c0 .063.02.127.04.18.01.019.02.028.03.046a.26.26 0 0 0 .081.1c.02.017.03.026.05.035.03.028.07.046.1.064.02.01.04.018.07.027.02.009.04.018.06.018.882.398 4.529 3.697 4.219 12.255-.02.56-.05 1.22-.081 1.97h-.821c-.291 0-.531.217-.531.48v1.69c0 .271.24.478.53.478h.692c-.421 8.487-1.343 24.25-2.675 45.507l-.07 1.202c-.01.126.04.261.14.36.1.1.24.145.39.145H333.5c.15 0 .29-.054.39-.144.1-.1.15-.226.14-.361-.08-1.176-1.943-32.284-2.634-46.709h1.382c.29 0 .531-.216.531-.478v-1.69c0-.272-.24-.48-.53-.48h-1.504c-.03-.732-.06-1.392-.08-1.97-.32-8.757 3.527-12.002 4.298-12.273.25-.09.391-.316.34-.542Z" fill="rgba(90,88,77,0.14 )" fill-rule="evenodd" data-name="Path 62135"/><path d="M722.666 99.34c-.027-.01-.882-.172-2.171-.172-1.086 0-2.436.118-3.861.525V82.98c0-.307-.265-.55-.611-.55h-1.94c-.333 0-.611.243-.611.55v18.094a10.52 10.52 0 0 0-1.052.732c-.19.145-.373.307-.543.48a5.803 5.803 0 0 0-.468.523c0 .01-.013.01-.013.01-.157.208-.32.424-.469.66a6.94 6.94 0 0 0-.481-.67 5.05 5.05 0 0 0-.482-.524 5.152 5.152 0 0 0-.543-.479c-1.187-.93-2.45-1.536-3.678-1.943V82.981c0-.307-.264-.55-.61-.55h-1.941c-.34 0-.61.243-.61.55v16.25a16.957 16.957 0 0 0-1.303-.054c-1.33 0-2.206.172-2.246.18a.557.557 0 0 0-.469.534v102.824c0 .307.272.551.611.551h11.467a.708.708 0 0 0 .346-.09h.428c.102.054.21.09.339.09h10.816c.34 0 .61-.244.61-.551V99.882a.642.642 0 0 0-.515-.542Z" fill="rgba(90,88,77,0.14 )" fill-rule="evenodd" data-name="Path 62136"/><path d="m678.084 156.613-1.813-8.162 1.682-3.886a.435.435 0 0 0 .02-.316l-1.512-4.347.751-4.6c.01-.027.01-.046.01-.073v-12.138c0-.262-.24-.479-.53-.479H652.295c-.29 0-.531.217-.531.48v12.264l-.962 4.582a.564.564 0 0 0 .01.226l1.302 4.04-1.673 3.868a.41.41 0 0 0-.02.29l2.284 8.25-1.603 4.764a.627.627 0 0 0-.02.144v43.31c0 .126.06.253.16.343.1.09.23.136.381.136l7.775-.036c.07.027.14.036.21.036H659.76l7.775-.036c.06.027.13.036.21.036.081 0 .15-.018.211-.045l8.736-.045c.29 0 .532-.218.532-.48l-.191-43.354 1.052-4.582a.589.589 0 0 0 0-.19Z" fill="rgba(90,88,77,0.14 )" fill-rule="evenodd" data-name="Path 62137"/><path d="m543.572 112.978-3.456-4.103a.331.331 0 0 0-.12-.109l-4.429-2.666a.481.481 0 0 0-.28-.08l-1.504.008v-.163h.161c.28 0 .501-.198.501-.452v-2.096c0-.253-.22-.452-.5-.452h-1.594v-2.278c0-.253-.22-.452-.5-.452h-.862v-.524a.457.457 0 0 0 .32-.425V87.401c0-.226-.18-.416-.42-.452l-.07-13.313c.12-.081.2-.217.2-.362 0-.026 0-.054-.01-.08l-.291-11.714c-.01-.244-.23-.443-.5-.443h-1.935c-.27 0-.5.2-.5.443l-.29 11.794c0 .127.049.244.139.326l.05.045-.1 13.322c-.22.045-.39.226-.39.443v11.794c0 .163.1.307.24.389l-.01.56h-.591c-.28 0-.501.208-.501.452v2.277h-1.783c-.281 0-.502.2-.502.452v2.097c0 .253.231.452.502.452h.16v.172l-1.283-.01c-.1 0-.2.028-.28.082l-4.429 2.666a.325.325 0 0 0-.12.109l-3.456 4.103a.407.407 0 0 0-.05.48l2.394 4.184c.04.063.09.117.15.162l4.248 2.81c.08.055.191.091.301.091h1.002v1.33c0 .252.22.451.501.451h.18v2.602c0 .19.13.362.32.426v2.214h-.06c-.07 0-.14.018-.2.036h-2.003a.54.54 0 0 0-.411.19.45.45 0 0 0-.17.343v2.485c0 .109.04.208.11.29.08.162.25.28.47.28h2.265v4.429c0 .08.02.162.07.225v65.416c0 .253.23.452.501.452h9.728c.28 0 .5-.199.5-.452v-70.07h2.336c.28 0 .5-.208.5-.452v-2.702c0-.253-.23-.461-.5-.461h-1.223a.494.494 0 0 0-.2-.036h-.902v-2.233a.454.454 0 0 0 .29-.415v-2.604h.181c.28 0 .5-.198.5-.451v-1.329h.552c.11 0 .21-.036.3-.09l4.249-2.811c.06-.045.11-.09.15-.162l2.394-4.185a.378.378 0 0 0-.04-.47Z" fill="rgba(90,88,77,0.14 )" fill-rule="evenodd" data-name="Path 62138"/><path d="M582.965 78.49c.16-.064.281-.208.281-.38 0-.18-.13-.325-.3-.389l-.01-.28.841-29.346v-.081l-4.398-38.971c-.04-.317-.33-.552-.681-.56l-4.409-.01c-.03-.009-.09.01-.12.01h-8.946c-.311 0-.592.19-.662.47l-3.076 10.899h-.18l-3.848-10.683c-.09-.253-.35-.425-.65-.425h-4.208c-.36 0-.661.253-.692.588l-4.218 68.145v.064l.02.425a.325.325 0 0 0-.02.216l.04.181 1.644 30.304-1.403 30.124v.053l2.735 63.302-.1.677a.55.55 0 0 0 .16.488.72.72 0 0 0 .511.218h30.798c.37 0 .67-.272.681-.606l1.032-34.895.19-59.596v-.289l-1.012-29.653Z" fill="rgba(90,88,77,0.14 )" fill-rule="evenodd" data-name="Path 62139"/><path d="M222.59 200.23a.568.568 0 0 0-.38-.154h-.672a.572.572 0 0 0-.07-.162c-.06-.091-1.563-2.125-5.12-3.318l-.01.019c-.32-.145-.952-.335-2.214-.606-.33-.072-.571-.326-.59-.632l-1.093-16.53v-.353a.138.138 0 0 0-.03-.082l-7.464-112.71a.391.391 0 0 0-.08-.227l-1.373-1.96a.84.84 0 0 1-.12-.308 78.537 78.537 0 0 0-.541-4.384c0-.027-.01-.063-.01-.09V39.4c0-.217-.16-.407-.4-.461-.241-.045-.482.054-.592.244-.36.642-1.443.416-1.452-.307L200.028.529c0-.253-.23-.46-.511-.47h-.01c-.28 0-.501.199-.521.443l-3.006 49.256-.05.1a.485.485 0 0 0-.05.208v1.464l-1.362 22.26c0 .018-.01.027-.01.045 0 .009 0 .018.01.027l-.031.443c-.02.37-.36.65-.761.65h-1.102c-.23 0-.441.136-.501.344-.06.199.03.416.22.525.01 0 .832.47 1.292.84.151.117.261.217.341.298.14.136.211.325.2.515l-6.09 75.259c0 .009-.01.018-.01.036v.054l-2.014 24.927c-.04.027-.07.072-.07.117v.75l-1.343 16.549c-.02.298-.26.551-.582.623a18.846 18.846 0 0 0-2.404.66c-.01.01-.03.01-.04.01-4.057 1.12-5.94 3.334-6.011 3.424a.349.349 0 0 0-.09.19h-1.072a.519.519 0 0 0-.381.163c-.14.063-.25.172-.25.316v1.726c0 .145.1.244.24.308.1.1.23.163.391.163h47.76c.15 0 .29-.064.38-.163.16-.064.28-.163.28-.317v-1.726c0-.154-.12-.253-.28-.316Z" fill="rgba(90,88,77,0.14 )" fill-rule="evenodd" data-name="Path 62140"/><path d="M650.573 163.852c-.09-.244-.33-.406-.621-.406h-2.234v-1.898h1.502c.32 0 .591-.218.642-.497.05-.29-.151-.56-.452-.642l-20.738-5.649c-.02-.01-.03-.027-.05-.036a.688.688 0 0 0-.501-.108.71.71 0 0 0-.5.108c-.021.018-.031.027-.051.036l-20.74 5.649c-.31.09-.5.362-.45.642.05.289.32.497.641.497h2.094V163.446h-3.557c-.29 0-.54.162-.62.416-.031.099-.752 2.358 2.504 4.066 1.493.777 4.328 2.007 7.073 3.19 2.515 1.085 4.89 2.116 5.72 2.576 1.464.823 1.464 2.875 1.464 7.375v23.01c0 .326.29.588.651.588h10.81c.36 0 .652-.262.652-.587v-23.01c0-3.498 0-5.604.731-6.707.19-.28.42-.497.731-.669 1.032-.578 4.238-1.988 7.324-3.335 2.094-.912 4.077-1.78 5.44-2.412 2.705-1.266 2.835-3.236 2.535-4.095Z" fill="rgba(90,88,77,0.14 )" fill-rule="evenodd" data-name="Path 62141"/><path d="M143.422 141.755h-.05V130.647h-1.083v.777h-3.015v-.777h-1.513v.777h-2.805v-.777h-1.514v.777h-3.025v-.777h-1.513v.777H126.1v-.777h-1.723v.777h-2.585v-.777h-1.724v.777h-2.805v-.777h-1.512V133.954h-1.263l-3.006-17.55c-.04-.227-.26-.353-.51-.353H88.297c-.26 0-.471.153-.511.389l-2.956 17.876c-.02.1.01.2.06.29v68.064c0 .262.251.587.532.587h35.205c.151 0 .291-.1.381-.226h22.402c.29 0 .522-.208.522-.47v-60.337c.01-.261-.231-.47-.511-.47Zm-41.87-22.053c.081 0 .15.01.23.01.582.09 1.144.316 1.644.65l.05.28.25-.036v-.027c1.283 1.003 2.155 2.711 2.155 4.564 0 1.157-.381 2.368-1.032 3.353h-.01v.01c-.792 1.183-1.993 2.033-3.427 2.033-.06 0-.12.017-.18.036-3.346-.145-6.021-2.522-6.021-5.432 0-2.992 2.845-5.44 6.342-5.44Zm40.737 13.087v8.966h-3.015v-8.966h3.015Zm-4.528 0v8.966h-2.805v-8.966h2.805Zm-4.319 0v8.966h-3.025v-8.966h3.025Zm-4.538 0v8.966H126.1v-8.966h2.805Zm-4.528 0v8.966h-2.585v-8.966h2.585Zm-7.124 0h2.806v1.166h-2.806v-1.166Z" fill="rgba(90,88,77,0.14 )" fill-rule="evenodd" data-name="Path 62142"/><path d="M70.184 179.632H8.89v25.135h61.294v-25.135Z" fill="rgba(90,88,77,0.14 )" fill-rule="evenodd" data-name="Path 62143"/><path d="M317.067 138.908H312.49v-4.592c0-1.048-.802-1.672-2.134-1.672H286.29c-1.272 0-1.833.976-1.833 1.672v4.592h-3.437c-1.312 0-1.903.84-1.903 1.437v12.77c0 .623.811 1.22 1.432 1.22h2.044v48.886c0 .551.56 1.22 1.273 1.22h29.745c.622 0 1.032-.488 1.032-1.22v-48.886h2.435c.621 0 1.032-.488 1.032-1.22v-12.77c-.01-.696-.33-1.437-1.043-1.437Zm-32.61 13.493a.72.72 0 0 0-.2.036.726.726 0 0 0-.201-.036h.4Z" fill="rgba(90,88,77,0.14 )" fill-rule="evenodd" data-name="Path 62144"/><path d="M95.36 203.456c-1.04-3.254-4.798-19.45-4.838-19.612-.03-.136-.16-.235-.31-.244a1.968 1.968 0 0 1-.03-.118h-.331s-.171-.56-.451-1.681h-.942c-.05-.226-.11-.506-.17-.795-.06-.29-.13-.597-.191-.886h.892a53.67 53.67 0 0 0-.39-1.68h-.892c0-.019-.01-.037-.01-.064-.11-.506-.241-1.04-.361-1.618h.891a49.5 49.5 0 0 0-.36-1.681h-.892c0-.018-.01-.036-.01-.063-.11-.515-.22-1.057-.34-1.618h.891l-.33-1.68h-.892c0-.02-.01-.037-.01-.055l-.12-.633c-.06-.325-.12-.65-.19-.994h.89c-.099-.56-.21-1.12-.31-1.681h-.892c0-.018-.01-.036-.01-.045-.1-.533-.19-1.076-.29-1.636h.892c-.1-.56-.19-1.121-.291-1.681h-.892l-.01-.045c-.07-.407-.14-.814-.21-1.239l-.06-.388h.892l-.271-1.681h-.881l-.271-1.681h.891c-.09-.56-.17-1.121-.26-1.682h-.892l-.01-.045c-.06-.379-.11-.768-.17-1.165l-.07-.47h.892l-.24-1.681h-.902l-.09-.597-.15-1.084h.891c-.08-.56-.15-1.121-.23-1.682h-.892c0-.009 0-.026-.01-.036l-.15-1.166-.06-.478h.89c-.07-.561-.15-1.121-.22-1.681h-.881l-.09-.679-.12-1.003h.891c-.03-.28-.06-.505-.09-.759-.04-.307-.07-.642-.11-.922h-.892v-.036c-.06-.551-.12-1.102-.17-1.654h.892c-.06-.56-.11-1.12-.151-1.68h-.892v-.019c-.05-.56-.09-1.112-.13-1.663h.892c-.04-.56-.07-1.12-.11-1.68h-.892v-.019c-.03-.56-.06-1.111-.08-1.663h.892l-.06-1.68h-.892v-.01l-.03-1.618v-.054h.891c-.01-.56-.01-1.12-.01-1.681h-.891c0-.56 0-1.13.01-1.68h.891c0-.561.01-1.122.03-1.682h-.891c.01-.56.03-1.12.05-1.672v-.01h.892c.02-.56.04-1.12.07-1.68h-.892c.02-.56.05-1.112.09-1.663v-.018h.892c.03-.56.07-1.121.11-1.681h-.891c.04-.56.08-1.112.13-1.663v-.018h.892l.15-1.681h-.892c.05-.56.11-1.112.17-1.654v-.027h.892c.06-.56.12-1.121.19-1.682h-.891c.07-.56.13-1.102.21-1.644v-.037h.892c.07-.56.15-1.12.23-1.68h-.892c.081-.588.161-1.139.251-1.637 0-.017 0-.027.01-.045h.891l.271-1.68h-.891c.09-.57.19-1.113.28-1.627v-.028c0-.009 0-.017.01-.027h.892c.03-.28.06-.289.08-.433.08-.416.16-.967.24-1.247H84c.11-.58.22-1.112.331-1.618 0-.027.01-.046.01-.064h.892c.13-.56.25-1.12.37-1.68h-.89c.139-.616.27-1.149.38-1.6v-.019c.01-.018.02-.045.03-.063h.861c.01 0 .03-.136.05-.208.16-.65.27-1.084.341-1.31.03-.117.05-.172.05-.172h-6.532c0-.198 0-.397-.01-.596h.04v-.208h-.03v-.09c0-.182.01-.362.01-.543h.03v-.208h-.03c0-.208.01-.425.01-.633h.01v-.208h-.01c.1-4.148.27-8.53.37-11.017.07-1.229.121-1.997.121-2.024a.316.316 0 0 0-.2-.307l-10.32-4.14a.386.386 0 0 0-.3.01.337.337 0 0 0-.18.217c-.011.017-.101.46-.272 1.283h-.08v.208h.04c-.21 1.03-.5 2.584-.841 4.663l-1.723-.542v-.163h-.23v.09l-2.565-.804v-.136h-.23v.064l-1.564-.488a.376.376 0 0 0-.31.036c-.09.063-.15.154-.15.253 0 .208-.08 19.431.44 37.164h-.02v.208h.02c.01.207.01.424.02.632h-.04v.208h.05c.01.208.01.425.02.633h-.07v.208h.08c.01.208.01.424.02.632h-.1v.208h.1c.01.208.01.425.02.633h-.12v.208h.13l.06 1.78c.11 2.856.25 5.938.421 9.11v.037l.03.632h-.04v.208h.05c.962 17.696 2.615 37.868 2.635 38.113 0 .009.01.018.01.036v.298c.01.57.02 1.13.04 1.681v.063c.01.543.02 1.076.04 1.618l.03.913.17 4.78c.01.363.03.733.051 1.085.31 6.824.741 12.373 1.062 15.862v3.687h.23v-1.255c.1 1.011.16 1.572.17 1.59.02.162.161.28.341.28l27.692.18c.19 0 .34-.144.34-.315.031-.037.021-.082 0-.118Zm-32.04-67.648c.02.208.03.425.05.632h-.01a14.13 14.13 0 0 1-.04-.632Zm.442 6.516h-.03v-.389l.03.389Zm.12 1.681h-.07c-.01-.208-.03-.425-.04-.633h.07c.01.208.02.425.04.633Zm-.15-1.473h.04c.01.208.03.425.04.632h-.07c-.01-.108-.01-.207-.02-.316v-.316h.01Zm.09 1.68h.08c.02.209.03.426.05.634h-.09c-.02-.208-.03-.425-.04-.633Zm.05.842h.08c.02.207.03.424.05.632h-.09c-.01-.208-.03-.425-.04-.632Zm.06.84h.09c.02.208.03.425.05.632h-.1c-.02-.207-.03-.424-.04-.632Zm-.561-9.246h.01c.01.208.03.425.04.632h-.02l-.03-.632Zm.04.84h.02c.01.208.03.426.04.634h-.02c-.01-.208-.02-.426-.04-.634Zm.05.84h.03c0 .073.01.146.01.218v.416c-.01-.217-.03-.425-.04-.633Zm.621 8.406c.11 1.492.23 2.974.34 4.438l.091 3.461c-.18-2.521-.36-5.178-.531-7.899h.1Zm-.831-12.101c0 .036 0 .081.01.117 0-.036 0-.072-.01-.117Zm.02.334c.01.208.03.425.04.633h-.01c0-.217-.02-.425-.03-.633Z" fill="rgba(90,88,77,0.14 )" fill-rule="evenodd" data-name="Path 62145"/><path d="M63.3 180.102v-.036h-8.546v.723h-.751v-13.701h-.06v-.036H52.14v-6.95h-.06v-.036h-.532v6.986h-7.684v-1.166h-.06v-.036h-3.346v.036h-.04l-.02.217c0 .027-.13 1.139-.692 2.883h-9.988v-2.62h-.06v-.037H23.105l-.01.036h-.041l-.07.136c-.03.063-3.256 6.416-3.256 15.599 0 7.782 1.473 13.294 1.923 14.822H20.55v7.23h.06v.036h41.398v-6.742h1.333v-17.344h-.04Zm-10.419-11.116h-7.955v-.93h7.955v.93Zm-10.71 0h-1.884c.27-.687.441-1.536.541-2.052l1.343 2.052Zm1.102-2.62v1.056c0 .028 0 .145-.01.353-.04.289-.12.696-.23 1.202h-.17l-1.704-2.612h2.114Z" fill="rgba(90,88,77,0.14 )" fill-rule="evenodd" data-name="Path 62146"/><path d="M160.633 189.149v-.859c0-.036-.01-.063-.02-.1a.391.391 0 0 0-.38-.27c-.22 0-.401.162-.401.361 0-.036-.01-.063-.02-.09a.4.4 0 0 0-.381-.27c-.22 0-.4.161-.4.36 0-.036-.01-.063-.02-.09a.4.4 0 0 0-.382-.27c-.22 0-.4.161-.4.36a.243.243 0 0 0-.02-.09.39.39 0 0 0-.38-.27c-.221 0-.402.161-.402.36 0-.036-.01-.063-.02-.1a.391.391 0 0 0-.38-.27c-.22 0-.401.162-.401.361v-9.264c0-.036-.01-.063-.02-.09 0 0 0-.01-.01-.01a.166.166 0 0 0-.05-.062l.24-.85c.06-.045.1-.117.1-.19v-1.202c0-.135-.12-.235-.27-.235h-.531v-10.845a.285.285 0 0 0-.02-.09l.48-1.926c.04-.045.07-.099.07-.153 0-.018-.01-.036-.01-.055l.18-.713c.061-.045.101-.109.101-.19v-1.69c0-.136-.12-.244-.27-.244h-.531v-3.371c.15 0 .27-.109.27-.244v-1.69c0-.136-.12-.236-.27-.236h-.11l-.432-.261v-1.673c0-.036-.01-.063-.02-.09-.02-.036-.42-.886-1.252-1.03-.16-2.91-.42-2.91-.67-2.91-.08 0-.162.027-.221.08-.07.073-.3.272-.271 2.83-.651.135-.952.741-1.032 1.075 0 .01-.01.028-.01.045v1.673l-.731.306c-.11.046-.18.163-.15.272.01.045.04.09.08.127v1.509c0 .136.12.244.27.244v3.371h-.531c-.15 0-.27.109-.27.244v1.79c0 .018 0 .045.01.063l.961 3.027c.02.055.05.1.1.127v10.647h-.27c-.15 0-.27.108-.27.234v.995c-.03.018-.06.035-.09.063a.23.23 0 0 0-.05.208l.4 1.364v8.704c-.04-.01-.09-.027-.13-.027-.2 0-.36.136-.391.307-.01-.01-.02-.018-.03-.036v-.01a.38.38 0 0 0-.24-.243c-2.084-2.178-8.717-8.306-17.633-8.758v-.054l-.422.018s-.15.009-.24.009c-.11 0-.25-.01-.26-.01h-.421v.037c-9.077.47-15.77 6.806-17.713 8.876a.412.412 0 0 0-.31-.145c-.221 0-.402.162-.402.361a.4.4 0 0 0-.4-.361c-.22 0-.401.162-.401.361 0-.036-.01-.063-.02-.1a.4.4 0 0 0-.381-.27c-.22 0-.4.162-.4.361 0-.036-.01-.063-.02-.1a.4.4 0 0 0-.381-.27c-.221 0-.4.163-.4.361 0-.036-.011-.063-.021-.099a.4.4 0 0 0-.38-.271c-.221 0-.402.163-.402.361 0-.036-.01-.063-.02-.1a.391.391 0 0 0-.38-.27c-.22 0-.401.162-.401.361 0-.036-.01-.063-.02-.1a.4.4 0 0 0-.38-.27c-.221 0-.402.162-.402.361 0-.036-.01-.063-.02-.1a.4.4 0 0 0-.38-.27c-.221 0-.4.162-.4.36 0-.035-.011-.062-.021-.099a.4.4 0 0 0-.38-.27c-.221 0-.402.163-.402.361 0-.036-.01-.063-.02-.1a.4.4 0 0 0-.38-.27c-.22 0-.401.162-.401.361 0-.036-.01-.063-.02-.1a.4.4 0 0 0-.38-.27c-.221 0-.402.162-.402.361 0-.036-.01-.063-.02-.1a.4.4 0 0 0-.38-.27c-.22 0-.4.162-.4.36 0-.035-.011-.063-.021-.099a.39.39 0 0 0-.38-.27c-.221 0-.402.162-.402.36a.243.243 0 0 0-.02-.09.391.391 0 0 0-.38-.27c-.22 0-.401.162-.401.36v1.338h.27v13.358h57.669V189.15h-.22Zm-5.6-28.668h-.531v-3.371h.53v3.37Zm-1.073-3.371v3.37h-.27v-3.37h.27Zm-.8 0v3.37h-.532v-3.37h.531Z" fill="rgba(90,88,77,0.14 )" fill-rule="evenodd" data-name="Path 62147"/><path d="m277.213 203.339-.421-1.926a.518.518 0 0 0-.08-.19l-1.613-2.232v-13.42c0-.29-.26-.525-.582-.525H272.003v-1.22c0-.29-.26-.525-.58-.525h-6.083c.501-2.097 1.934-8.893 1.153-15.418-.792-6.562-4.289-13.033-7.274-15.437-.1-.081-.2-.154-.29-.226l-.12-3.19c.07-.108.17-.28.3-.515 1.583-2.684 7.394-13.503 7.394-27.204 0-13.331-5.25-16.928-7.204-17.805 1.322-2.006 5.711-9.191 5.791-16.376.1-8.306-1.774-10.692-5.781-13.846-.07-.055-.13-.109-.2-.154-3.106-2.476-6.212-5.36-7.033-8.433-.08-.306-.17-.614-.211-.912-.02-.208-.08-.416-.08-.615v-8.766c0-.29-.26-.525-.581-.525-.321 0-.58.235-.58.525v7.745a.444.444 0 0 0-.051.2c0 .017-.04.668-.2 1.743-.521.552-4.57 5.061-7.324 12.717-.532.235-.922.478-1.112.732a1.703 1.703 0 0 0-.351 1.463l.07.245c.03.081.06.135.06.135.03.055.08.109.15.145l.23.28c-.23.84-.45 1.708-.64 2.612H238.6c-.211 0-.411.109-.512.28-.06.09-5.41 9.147-5.41 19.603 0 2.567.35 5.125.882 7.538.822 6.878 2.735 10.402 4.358 12.21.23.461.41.804.521 1.012-.832 1.672-5.57 11.569-5.57 20.281v.552c0 8.91 0 15.97 6.14 22.91-.08.19-.2.48-.35.823a284.394 284.394 0 0 0-2.264 5.368c-.802 1.953-2.655 8.46-3.136 10.159h-5.23c-.32 0-.57.226-.58.506l-.03 1.022-2.315-.028a.6.6 0 0 0-.42.154.5.5 0 0 0-.171.37v15.075l-.852.968a.62.62 0 0 0-.1.171l-.651 1.88a.454.454 0 0 0 .09.47.6.6 0 0 0 .47.217h53.19c.171 0 .341-.063.451-.19a.543.543 0 0 0 .1-.433ZM249.94 66.54c-.47 2.17-1.262 4.935-2.614 7.674-.361.723-.641 1.292-.902 1.771-.651.09-1.253.199-1.783.326 1.733-4.537 3.897-7.881 5.3-9.77Zm-6.812 14.56.09.109c-.06.1-.13.208-.19.316.03-.135.06-.28.1-.425Zm15.6-3.551c-.151-.19-.422-.39-.783-.57-1.232-.65-3.636-1.202-6.722-1.202H249.56c-.581 0-1.132.018-1.653.054.18-.352.37-.74.59-1.202 1.504-3.082 2.335-6.154 2.786-8.44.841 2.078 2.615 4.5 6.292 7.275.18.135.36.28.54.424.021.01.03.028.051.036.15.127.3.244.441.371 3.887 3.39 4.83 6.923 5.049 8.487h-6.722v-.94l2.044-2.712c.03-.036.04-.072.06-.108.1-.362.13-.913-.31-1.473Z" fill="rgba(90,88,77,0.14 )" fill-rule="evenodd" data-name="Path 62148"/><path d="M516.762 138.664c-.38-1.473-.761-2.956-1.142-4.429 4.859-18.744 4.448-40.2 4.448-40.408 0-.036-.01-.081-.01-.117v-1.655c0-.217-.2-.397-.44-.397h-1.403c-.25 0-.452.18-.452.397v.787l-27.38-.01v-.786c0-.216-.201-.397-.441-.397h-1.383c-.25 0-.441.18-.441.397v2.386c0 .045.01.091.03.136.02 3.733.301 21.095 3.817 38.926-.01.045-.01.1 0 .154.01.027.08.352.22.94.021.08.03.163.05.244a.239.239 0 0 0-.02.08c-5.64 22.126-3.846 54.635-1.632 67.125.09.488.55.84 1.102.84h.01l24.596-.135c.551 0 1.002-.352 1.092-.84.641-3.66 6.162-36.64-.621-63.238Z" fill="rgba(90,88,77,0.14 )" fill-rule="evenodd" data-name="Path 62149"/><path d="M478.72 56.925a.466.466 0 0 0-.38-.027l-7.975 3.236a.358.358 0 0 0-.23.325v3.037h-2.716V51.837c0-.199-.18-.362-.4-.362h-.101v-3.597c0-.153-.12-.289-.27-.343v-8.288c0-.199-.18-.361-.401-.361h-.45c-.221 0-.402.162-.402.361v8.288a.358.358 0 0 0-.27.343v3.597h-.1c-.22 0-.401.163-.401.362v11.677h-2.445V51.837c0-.199-.18-.362-.4-.362h-.1v-3.597c0-.153-.12-.289-.271-.343v-8.288c0-.199-.18-.361-.4-.361h-.452c-.22 0-.4.162-.4.361v8.288a.358.358 0 0 0-.271.343v3.597h-.1c-.221 0-.4.163-.4.362v11.677h-3.017v-3.037a.354.354 0 0 0-.24-.325l-7.975-3.236a.466.466 0 0 0-.38.027.353.353 0 0 0-.181.299v146.241c0 .2.18.362.4.362h1.784c.07.045.15.081.24.081h26.5a.42.42 0 0 0 .24-.08h1.744c.22 0 .4-.164.4-.363V57.233a.37.37 0 0 0-.18-.308Zm-8.596 25.387h-.892v-2.078c0-.199-.18-.362-.4-.362h-1.192v-7.736h2.484v10.176Zm-6.141-10.167v7.727h-1.563v-7.736h1.563v.009Zm-5.22 0v7.727H457.2c-.22 0-.401.163-.401.362v2.078h-.43V72.145h2.394Z" fill="rgba(90,88,77,0.14 )" fill-rule="evenodd" data-name="Path 62150"/><path d="M311.066 199.226h.03v.019c0-.01-.02-.019-.03-.019Zm142.146.019v-.019h.03c-.01 0-.02.01-.03.019Zm2.525-1.184c0-.236-.22-.425-.48-.425l-15.66.036v-3.705c0-.235-.21-.434-.481-.434h-10.92v-2.946h1.192c.26 0 .48-.19.48-.435v-.966c0-.236-.22-.435-.48-.435h-21.54v-165.7c0-.361-.321-.65-.722-.65h-49.142c-.4 0-.721.289-.721.65v165.71H334.91c-.26 0-.481.19-.481.434v.966c0 .235.21.434.48.434h1.193v2.946h-10.92c-.26 0-.481.19-.481.435v3.705l-15.66-.036c-.26 0-.48.19-.48.425l-.021 1.473c0 .118.05.226.14.307.09.081.21.126.341.126h1.232v2.26c0 .235.21.434.481.434l64.22.072c.031 0 .06-.009.09-.018h14.187c.03.01.06.018.09.018l64.221-.072c.261 0 .471-.199.471-.434v-2.26h1.243c.13 0 .25-.045.34-.126a.427.427 0 0 0 .14-.307v-1.482ZM393.45 61.76c-3.736 13.105-9.587 18.654-11.29 18.654-1.804 0-5.571-2.377-10.49-18.275-4.8-15.49-6.092-27.113-6.392-30.494 3.536-.93 10.569-2.521 17.502-2.521 7.364 0 14.117 1.464 17.032 2.196-.57 3.534-3.146 19.178-6.362 30.44Z" fill="rgba(90,88,77,0.14 )" fill-rule="evenodd" data-name="Path 62151"/><path d="M473.02 184.115h-1.493c-.02-4.474-.911-7.538-1.663-9.318-1.142-2.992-3.797-8.568-8.807-12.355a.372.372 0 0 0-.22-.072h-.61v-4.275c0-.109-.101-.199-.221-.199h-.09v-3.389c0-.109-.1-.199-.23-.199h-.252c-.12 0-.22.09-.22.199v3.39h-.09c-.12 0-.22.09-.22.198v4.275h-.812c-.19 0-.33.136-.33.298v1.175h-.26a21.364 21.364 0 0 0-1.674-1.41.376.376 0 0 0-.22-.072h-.612v-4.275c0-.109-.1-.199-.23-.199h-.09v-3.39c0-.108-.1-.198-.22-.198h-.251c-.12 0-.22.09-.22.199v3.389h-.09c-.121 0-.221.09-.221.199v4.275h-.812c-.19 0-.33.136-.33.307v3.651h-2.154c-.08 0-.15.028-.211.064l-.25.18c-.02.01-.03.028-.05.036a34.906 34.906 0 0 0-3.798 4.79c-.41-1.454-.771-2.412-.931-2.837a.223.223 0 0 0 0-.163c-1.293-4.076-3.537-7.727-5.38-10.285 0-.009-.01-.018-.02-.027a41.517 41.517 0 0 0-2.635-3.299c-.01-.018-.03-.027-.04-.036l-.301-.235a.372.372 0 0 0-.22-.073h-2.685v-1.807c.01-.009.02-.018.02-.036s-.01-.027-.02-.036v-2.992c.01-.081-.03-.163-.09-.225a.34.34 0 0 0-.251-.1h-1.032v-5.703c0-.109-.1-.199-.22-.199h-.15v-4.51c0-.108-.101-.198-.221-.198h-.3c-.12 0-.221.09-.221.199v4.51h-.15c-.12 0-.22.09-.22.198v5.703h-.792c-.08 0-.16.027-.22.081a29.404 29.404 0 0 0-1.974 1.78h-.491v-1.554c0-.172-.15-.307-.331-.307h-1.032v-5.703c0-.109-.1-.199-.22-.199h-.15v-4.51c0-.108-.1-.198-.221-.198h-.3c-.12 0-.221.09-.221.199v4.51h-.15c-.12 0-.22.09-.22.198v5.703h-.792c-.08 0-.16.027-.22.081-1.783 1.455-3.317 3.1-4.64 4.817h-.04c-.03 0-.06.018-.06.046 0 .018.01.027.03.036-3.145 4.103-5.029 8.523-5.99 11.261-.922 2.36-2.015 6.399-2.024 12.3h-1.884c-.19 0-.34.136-.34.308v26.924c0 .162.15.298.34.298h2.034c.05.027.11.045.18.045h36.309a.38.38 0 0 0 .18-.045h3.697a.37.37 0 0 0 .2-.064h19.537c.06 0 .11-.017.16-.036h1.663c.19 0 .34-.135.34-.298v-20.507c-.009-.154-.16-.289-.34-.289Zm-15.239-20.163v.135l-.15-.135h.15Zm-29.855-12.726c-.13.127-.261.263-.391.398v-.398h.39Z" fill="rgba(90,88,77,0.14 )" fill-rule="evenodd" data-name="Path 62152"/><path d="M646.396 195.756h.01c-.052-.037-.01 0-.01 0Z" fill="rgba(90,88,77,0.14 )" fill-rule="evenodd" data-name="Path 62153"/><path d="M646.396 195.702h.01c-.052-.037-.01 0-.01 0Z" fill="rgba(90,88,77,0.14 )" fill-rule="evenodd" data-name="Path 62154"/><path d="M736.012 193.948a.543.543 0 0 0-.481-.262c-.02 0-.027.01-.048.01-.835-.182-5.469-1.438-10.822-7.765l-.231-3.235c-.02-.262-.251-.46-.543-.46h-.007c-.278.017-.522.198-.542.45l-.272 2.992c-.129.1-.346.245-.638.434-.4-.425-.794-.858-1.174-1.31l-.21-3.055c-.02-.262-.25-.46-.543-.46-.285 0-.515.198-.536.451l-.271 2.865c-.326.19-1.011.605-2.253 1.328a17.618 17.618 0 0 1-1.676-2.729l-.23-3.37c-.02-.263-.252-.462-.543-.462h-.007c-.305 0-.523.199-.55.452l-.312 3.353c-.42.623-1.703 2.323-4.098 4.03-1.18-1.49-2.015-3.09-2.463-4.753 0-.01-.014-.018-.014-.027l-.217-3.128c-.02-.261-.251-.46-.543-.46-.278 0-.522.199-.543.452l-.312 3.37c-.651.959-3.182 4.52-5.638 6.445-1.71-2.558-2.714-5.82-3.067-7.113a.467.467 0 0 0 .02-.136c0-.036-.007-.072-.007-.117l-.25-3.552c-.021-.262-.252-.46-.544-.46h-.006c-.285 0-.523.198-.543.451l-.312 3.299c-.611 2.557-2.32 7.248-4.98 9.354-3.163-2.521-4.465-8.46-4.628-9.282l-.231-3.353c-.02-.262-.251-.46-.543-.46h-.007c-.278 0-.522.198-.542.451l-.326 3.633c-.014.055 0 .109.013.163-.346 1.293-1.35 4.564-3.06 7.122-2.565-2.007-5.202-5.793-5.743-6.589l-.21-3.1c-.02-.253-.25-.461-.542-.461h-.01c-.27.01-.52.199-.54.452l-.31 3.335c-.472 1.573-1.274 3.073-2.376 4.474-2.504-1.79-3.797-3.57-4.147-4.103l-.22-3.155c-.02-.261-.251-.46-.542-.46h-.01c-.28 0-.52.199-.54.451l-.311 3.336c-.471.94-1.022 1.834-1.633 2.656-1.183-.686-1.854-1.093-2.194-1.292l-.2-2.892c-.02-.262-.261-.461-.542-.461h-.01c-.28 0-.52.199-.54.452l-.281 2.991c-.401.48-.812.94-1.232 1.384a7.404 7.404 0 0 1-.582-.39l-.21-3.063c-.02-.253-.25-.461-.54-.461h-.011c-.28 0-.521.199-.541.452l-.3 3.226c-5.36 6.38-10.04 7.646-10.871 7.827-.02 0-.03-.009-.05-.009-.2 0-.39.1-.48.262-.061.1-.071.208-.04.317 0 .071.009.144.04.217l4.457 8.947a.564.564 0 0 0 .721.253c.271-.109.401-.407.271-.65l-2.615-5.252c.12.145.23.28.361.434 1.753 2.115 2.825 3.742 3.416 4.745l.07.172v.063c0 .135.06.262.17.353l.221.542c.08.199.29.325.511.325.02 0 .03 0 .05-.009.1.018.2.018.3-.009.281-.09.422-.37.331-.624 0 0-.01-.036-.03-.09h1.113c.09.18.29.28.49.28.08 0 .16-.018.23-.045a.5.5 0 0 0 .251-.235h1.042l.16.407c.07.171.231.28.411.307.05.018.11.027.16.027.302.018.572-.217.572-.488a.485.485 0 0 0-.06-.235c0-.009 0-.009-.01-.018h2.204c.1.172.29.271.48.271.08 0 .16-.018.24-.045a.534.534 0 0 0 .242-.217h3.576l.16.407c.08.199.29.325.511.325h.02c.03.01.06.018.1.018h.01c.301 0 .542-.226.542-.497a.473.473 0 0 0-.03-.172.249.249 0 0 0-.02-.072h5.4c.1.117.26.19.43.19.071 0 .14-.01.21-.036.091-.037.151-.091.211-.154h3.938c.02.045.03.09.04.126 0 .09.03.172.07.244.06.235.31.398.581.371.02 0 .04-.009.06-.009h.05a.543.543 0 0 0 .501-.38c0-.008.04-.135.09-.343h6.44a.576.576 0 0 0 .482.271c.055 0 .088-.009.13-.018a.538.538 0 0 0 .352-.253h5.008v.253c0 .262.23.48.522.488h.02c.02 0 .041-.009.061-.009.007 0 .02.01.041.01h.027c.292-.019.523-.236.516-.507v-.235h5.014c.075.117.19.217.34.253.054.009.095.018.135.018.197 0 .38-.108.482-.271h6.44c.06.208.087.335.087.344.062.216.265.37.503.38h.047c.02 0 .04.008.061.008a.556.556 0 0 0 .584-.352.506.506 0 0 0 .081-.263v-.018c.007-.027.02-.063.027-.1h3.936a.543.543 0 0 0 .427.19c.17.001.32-.072.428-.19h5.4l-.033.146c-.054.262.122.515.4.578a.55.55 0 0 0 .245 0h.006c.231 0 .435-.126.516-.326l.156-.406h3.576c.054.09.136.172.244.217a.558.558 0 0 0 .23.045c.198 0 .387-.1.483-.27h2.205c-.02.053-.034.08-.034.09-.102.252.054.532.332.623.102.036.19.027.292.009a.543.543 0 0 0 .489-.316l.163-.407h1.038a.528.528 0 0 0 .482.28c.203 0 .4-.109.488-.28h1.113a.29.29 0 0 0-.027.09c-.102.253.047.533.332.624a.557.557 0 0 0 .299.009c.02 0 .027.009.047.009a.553.553 0 0 0 .516-.325l.197-.489c.149-.09.264-.234.264-.406v-.235c.59-1.004 1.649-2.63 3.406-4.745.13-.153.245-.307.367-.452l-2.626 5.27a.479.479 0 0 0 .271.65c.075.027.15.045.231.045.21 0 .414-.108.502-.298l4.458-8.948c.04-.072.04-.144.04-.225.048-.136.042-.244-.02-.335Zm-25.587 3.95.197-.136c.203-.126.394-.253.583-.37a2.13 2.13 0 0 1 .13-.082c.203-.117.393-.235.583-.343a.773.773 0 0 0 .108-.064l-.468.994h-1.133Zm2.904-.696.122.135c.156.181.313.38.462.57h-1.167l.414-.868c.06.055.122.1.17.163Zm-18.307.678c.02-.01.034-.028.055-.037.197-.153.407-.298.61-.434.028-.017.062-.035.089-.063.203-.135.4-.252.59-.37.034-.018.054-.028.081-.045.204-.118.4-.235.59-.335.19-.1.38-.199.564-.29.02-.008.04-.017.068-.035.17-.081.339-.154.495-.226.027-.009.054-.027.088-.036.048-.027.102-.036.15-.063l-.543 1.951h-2.864c.014 0 .02-.008.027-.017Zm4.621-1.862c.041.027.082.063.122.09.143.108.272.217.4.326.028.027.062.045.089.072.163.136.312.28.461.434.034.027.061.063.089.09.122.126.244.244.352.37.041.045.082.082.109.127.115.126.21.244.326.37h-2.606l.55-1.96a.75.75 0 0 1 .108.08Zm-29.484.858c.06.027.11.064.17.1.21.118.421.235.631.37.01.01.03.018.04.028.21.126.421.262.642.406.06.036.12.081.18.117 0 0 .01 0 .01.01h-1.813l-.571-1.211a1.8 1.8 0 0 0 .13-.136c.18.09.38.199.581.316Zm-1.814 1.03.301-.379.18.38h-.48Zm15.15-2.096c.026.009.047.018.067.027.13.054.285.109.42.172.035.009.062.027.103.045.162.072.319.144.488.226l.075.036c.176.09.36.18.55.28.006 0 .006.009.02.009.19.1.38.208.583.326.027.017.054.036.089.054l.583.361c.027.028.068.046.109.073.196.135.4.271.59.424.027.018.047.037.081.064h-3.542l-.617-2.224c.007-.009.007-.009.02-.018.122.036.251.09.38.145Zm-2.837 2.097c.014-.01.02-.018.02-.027.089-.109.184-.208.272-.317.047-.063.108-.126.17-.19.088-.099.19-.198.278-.298.054-.045.101-.1.142-.144.143-.136.292-.28.441-.407.04-.036.082-.063.122-.1.02-.018.041-.027.061-.045l.428 1.528h-1.934Z" fill="rgba(90,88,77,0.14 )" fill-rule="evenodd" data-name="Path 62155"/><path d="M646.396 195.259h.01c-.052-.037-.01 0-.01 0Z" fill="rgba(90,88,77,0.14 )" fill-rule="evenodd" data-name="Path 62156"/><path d="M646.396 195.214h.01c-.052-.046-.01 0-.01 0Z" fill="rgba(90,88,77,0.14 )" fill-rule="evenodd" data-name="Path 62157"/><path d="m622.21 177.996.15-.28.652.28h-.802Zm.501-.94.902-1.663h.891c.08.805.16 1.628.24 2.459 0 .036.01.073.01.109l-2.043-.904Zm4.478.019c-.33-3.48-.63-6.661-.921-9.833-1.523-16.44-2.615-28.325-6.813-53.242-5.66-33.658-8.296-42.017-9.207-44.078l-.612-10.963c-.01-.09-.02-.18-.04-.271l-.18-.823c-.21-1.003-1.172-1.726-2.284-1.726-.09 0-.18.01-.23.01-.07 0-.131.008-.201.026-.06-.009-.11-.018-.15-.018a2.54 2.54 0 0 0-.28-.018c-1.113 0-2.065.723-2.285 1.726l-.18.85c-.02.1-.03.19-.03.271l-.611 10.927c-.912 2.06-3.547 10.42-9.208 44.077-4.198 24.918-5.29 36.803-6.823 53.297-.27 2.928-.581 6.245-.912 9.779-.72 7.492-.971 24.339-.841 25.975.08 1.111 1.102 1.979 2.325 1.979h37.98c1.223 0 2.235-.868 2.325-1.97.15-1.654-.1-18.52-.822-25.975Zm-6.692-22.893.08-.208.401.208h-.481Zm-24.787-23.49h-.66l.52-.343.14.343Zm-3.065 23.49h-.34l.28-.127.06.127Zm29.806-.073-1.603-.84.61-1.608h.732c.09.822.17 1.635.26 2.448Zm-4.49-23.417.112-.388.54.388h-.651Zm-12.332-38.42h-4.699l4.7-2.132v2.133Zm0 3.543h-5.1l5.1-2.313v2.313Zm0 3.435h-5.24l5.24-2.378v2.378Zm0 .768v2.955h-6.683l6.513-2.955h.17Zm-3.757-15.139.17.263.2.343.01-.027 2.175 3.326h-3.356c.28-1.4.55-2.693.801-3.905Zm3.757 4.673v.036l-5.19 2.35c.17-.85.331-1.672.491-2.458v.063h4.7v.009Zm-5.37 3.308v.18h5.18l-5.711 2.586c.18-.958.36-1.88.531-2.766Zm-.712 3.723h5.491l-5.821 2.64c-.01 0-.02.009-.02.018h-.14c.16-.913.33-1.799.49-2.658Zm-.64 3.435h5.34l-5.821 2.639c.16-.904.32-1.79.48-2.64Zm-.672 3.715h7.394v.28c-2.154.171-4.108.958-5.65 2.16h-2.175c.14-.832.281-1.645.431-2.44Zm-.58 3.208h1.442a8.881 8.881 0 0 0-1.333 1.672c.04-.018.08-.027.12-.045a8.148 8.148 0 0 0-.79 1.636c.19-1.12.38-2.206.56-3.263Zm-3.368 20.272 1.013 2.476-1.524 1.013h-.04c.17-1.148.351-2.314.542-3.525l.01.036Zm-3.275 24.448h.29l.922 1.744-1.473.66c.09-.796.17-1.6.26-2.404Zm27.271-22.071.671-2.296c.16 1.067.32 2.106.481 3.118l-1.152-.822Zm-10.71-29.572h.48l6.513 2.955h-6.984v-2.955h-.01Zm0-.768v-2.522l5.55 2.522h-5.55Zm0-3.435v-2.458l5.41 2.458h-5.41Zm0-5.811 5.009 2.269h-5.01v-2.27Zm-10.981 23.028v.045c0 3.742 2.525 6.95 6.111 8.316h-7.514c.371-2.278.772-4.664 1.203-7.186.07-.397.14-.786.2-1.175Zm13.896 8.36c3.597-1.364 6.111-4.573 6.111-8.315v-.045c.07.39.13.778.2 1.166.432 2.522.832 4.908 1.203 7.186h-7.514v.009Zm3.527-14.45h1.523c.19 1.056.38 2.141.57 3.252a8.875 8.875 0 0 0-2.093-3.253Zm-.872-.77c-1.523-1.192-3.446-1.97-5.57-2.16v-.28h7.393c.14.796.291 1.61.441 2.44h-2.264Zm-3.877-6.154h5.03c.15.804.3 1.636.45 2.486l-5.48-2.486Zm-.792-3.435h5.18c.16.832.321 1.682.481 2.567l-5.66-2.567Zm-.4-3.543h4.899c.15.787.31 1.6.47 2.432l-5.37-2.432Zm-.271-3.488h4.478c.14.723.29 1.464.441 2.233l-4.919-2.233Zm.812-.768 2.695-3.94c.26 1.21.53 2.52.811 3.94h-3.506Zm-.661-30.666.18.823.63 11.161.06.227c.652 1.41 3.257 8.757 9.158 43.87 1.794 10.637 3.016 18.888 3.947 26.146-.961-7.303-2.214-15.608-4.047-26.291-6.352-37.092-8.947-43.472-9.478-44.457l-.641-11.361c0-.027 0-.045-.01-.072l-.11-.525c.15.127.27.29.31.48Zm-2.516.226-.63 11.253c-.04.072-.09.18-.16.325l.66-10.981.13-.597Zm-14.376 119.652h-.862l.711-.28.15.28Zm-2.605-.144c.08-.831.16-1.654.24-2.459h1.022l.862 1.673-2.124.84c-.01-.018 0-.036 0-.054Z" fill="rgba(90,88,77,0.14 )" fill-rule="evenodd" data-name="Path 62158"/><path d="M265.19 188.01v-.27c.01.171 0 .27 0 .27Zm22.05-17.154c-1.042-.28-2.705-.523-4.568-.677-1.362-.525-3.687-1.672-4.97-3.715-.09-.135-.17-.28-.24-.424-.42-.814-.811-1.546-1.162-2.215-.28-.542-.54-1.03-.782-1.482-.71-1.356-1.201-2.34-1.502-3.082-.05-.127-.1-.28-.15-.443-.24-.732-.571-1.771-1.423-2.132a1.75 1.75 0 0 0-.671-.136h-.04c-1.243.108-1.653 1.202-2.084 2.35-.06.153-.12.307-.18.47-.451 1.13-1.263 3.054-3.157 6.67-1.192 2.277-3.706 3.533-5.149 4.103-2.335.18-4.008.415-4.96.704-.5.154-.911.416-1.202.778-.01.009-.02.018-.02.027-.561.678-.61 1.5-.601 1.798 0 .01 0 .01-.01.01l-.03.08c-.01.028-.05.1-.05.1a.4.4 0 0 0-.04.154v1.69c0 .063 0 .136-.01.208-.05 1.301.32 2.603 5.31 5.25.11.064.23.1.33.136.09.028.17.064.22.09.071.046.14.064.191.073.06.036.12.073.17.1l.15.08.1.064.091.054.11.073c.05.036.11.072.16.108l.02.018c.06.036.111.081.16.118l.031.018.2.153c.06.045.11.09.17.136.07.063.151.117.21.18.051.046.101.091.161.136.07.064.13.127.2.181.051.046.091.09.14.136.061.063.131.126.191.199l.04.036c.03.027.06.054.08.08.07.073.13.146.191.218l.09.1c.08.09.15.189.23.28l.03.036c.161.208.311.424.451.65l.02.027s.01.019.02.028c.05.09.11.171.15.261l.031.064c.04.081.09.163.13.244l.03.063c.04.081.08.172.12.253l.02.045c.01.027.03.055.04.09a.33.33 0 0 0 .01.173c.03.162.15 1.301.15 2.35v14.333c0 .2.181.362.402.362h13.765c.22 0 .401-.163.401-.362v-.054c0-1.003.01-15.012.1-16.368 0-.017.03-.08.04-.108.02-.036.03-.072.04-.099l.02-.063c.03-.081.07-.172.11-.263l.02-.045c.031-.08.071-.153.111-.235l.03-.072c.04-.081.08-.154.13-.235l.04-.073c.04-.08.09-.162.15-.244l.04-.062c.06-.1.131-.2.191-.299l.02-.027c.07-.109.15-.217.23-.325l.05-.064c.07-.081.13-.171.2-.253l.101-.117c.06-.063.12-.136.18-.2.03-.026.06-.062.09-.099l.04-.036c.06-.063.121-.117.181-.18.04-.045.09-.082.15-.145.06-.063.12-.117.191-.172.05-.054.11-.099.17-.144.07-.054.13-.118.2-.172.06-.054.12-.1.181-.145.07-.063.15-.117.22-.171l.02-.018.17-.127.25-.172.061-.036c.05-.027.09-.063.14-.099.09-.063.19-.118.3-.181l.081-.045.11-.072c.15-.09.311-.172.471-.263l.05-.026c3.858-2.052 4.71-3.11 5.03-3.95.04-.073.07-.226.09-.913v-2.413c.01-.605-.3-2.305-1.713-2.685Z" fill="rgba(90,88,77,0.14 )" fill-rule="evenodd" data-name="Path 62159"/><path d="M52.09 203.456c-.11-.054-10.3-4.953-13.285-6.471-.22-.118-.411-.208-.551-.28-1.734-.922-2.355-2.242-2.355-5.035 0-2.485.02-18.645.03-21.446.03-.01.05-.027.08-.037.17-.072.341-.153.511-.244.07-.036.13-.072.2-.108l.482-.27a.912.912 0 0 1 .08-.046 11.059 11.059 0 0 0 .661-.443 10.129 10.129 0 0 0 2.495-2.53h.03v-.046c.02-.027.03-.054.05-.081.711-1.003 1.152-2.133 1.373-3.326.02-.09.03-.172.05-.262 0-.027.01-.045.01-.073a8.812 8.812 0 0 0-.18-3.515c0-.018-.01-.028-.01-.045-.05-.181-.1-.353-.151-.525-.852-2.684-2.946-4.89-5.78-6.064-.131-.054-.261-.109-.392-.154-.02-.009-.03-.009-.05-.018v-4.438h-1.072v-.966h.802v-4.573h-.802v-2.17h-6.412v2.17h-.801v4.573h.801v.966h-.53v4.348c-4.048 1.41-6.924 4.953-6.924 9.092 0 3.832 2.465 7.149 6.042 8.74 0 2.684.03 18.988.03 21.491 0 2.793-.621 4.113-2.355 5.034-1.943 1.031-13.715 6.698-13.836 6.752l-1.412.678h44.583l-1.412-.678Zm-30.778-42.008c0-.072 0-.136.01-.199.16-.65.711-2.594 1.443-3.136.25 1.202-.03 3.39-.03 3.39h-1.413c-.01-.019-.01-.037-.01-.055Zm1.072-4.067c0 .009.01 0 0 0l-.01.009c.01 0 .01 0 .01-.01Zm2.996.795c.36 1.193.29 3.326.29 3.326h-2.184v-.136l.581-.026s.541-2.44 1.313-3.164Zm9.227.47c.31.715.49 1.564.591 2.16.06.416.09.696.09.696h-.681v-2.865c-.01 0-.01.01 0 .01Zm3.877 2.811c0 .027.01.045.01.045H36.03s-.09-2.359.32-3.506c.912.487 1.543 3.344 1.543 3.344l.581.026c0 .028 0 .064.01.091Zm2.555.045h-1.974c.01-.759-.05-1.41-.1-1.852 0-.064.01-.118.01-.182v-.045l.03-.334c0-.018.01-.045.01-.063.01-.109.03-.217.04-.316 0-.019.01-.037.01-.045.04-.236.09-.452.15-.633a.512.512 0 0 1 .21-.046c.792 0 1.444 1.664 1.784 2.694.02.262.04.524.04.786v.054h-.21v-.018Zm-13.656-3.615v3.606h-1.092c0-.172-.01-.325-.01-.48.11-.785.561-2.312 1.092-3.108.01 0 .01-.009.01-.018Zm3.477 13.294h.06c.19.01.21.01.33.01.13 0 .401 0 .401-.01v26.22h-.801v-26.22h.01Z" fill="rgba(90,88,77,0.14 )" fill-rule="evenodd" data-name="Path 62160"/><path d="M35.419 200.067c-.822 0-1.513.497-1.724 1.184a3.644 3.644 0 0 0-2.475.587l-.03-.027c.091-.18.151-.38.151-.587 0-.76-.681-1.374-1.523-1.374-.09 0-.17.009-.25.018v-.018c0-.633-.571-1.148-1.273-1.148-.11 0-.21.018-.31.036.02-.08.04-.172.04-.253 0-.596-.541-1.084-1.202-1.084-.662 0-1.203.488-1.203 1.084 0 .272.11.516.29.705h-.04c-1.071 0-1.943.777-1.943 1.745h-.03c-1.052 0-1.964.542-2.394 1.328a4.958 4.958 0 0 0-2.144-.479c-2.064 0-3.747 1.193-3.878 2.694h21.25c0-.046.01-.09.01-.127 0-.47-.12-.913-.32-1.302.48-.289.801-.786.801-1.346-.01-.913-.811-1.636-1.803-1.636Zm-8.346-.506c-.01 0-.01-.009-.02-.018h.03c-.01 0-.01.009-.01.018Z" fill="rgba(90,88,77,0.14 )" fill-rule="evenodd" data-name="Path 62161"/><path d="M157.388 199.543c-.822 0-1.503.506-1.724 1.184-.14-.01-.28-.019-.42-.019-.772 0-1.483.227-2.054.615l-.03-.027c.09-.18.15-.38.15-.588 0-.758-.681-1.373-1.523-1.373-.09 0-.17.01-.25.018 0-.009.01-.009.01-.018 0-.633-.571-1.148-1.273-1.148-.11 0-.21.018-.31.036.02-.081.04-.163.04-.253 0-.597-.541-1.084-1.202-1.084-.662 0-1.203.487-1.203 1.084 0 .271.11.515.29.705-.019 0-.03-.01-.04-.01-1.071 0-1.943.778-1.943 1.745h-.03c-1.052 0-1.964.542-2.395 1.33a4.955 4.955 0 0 0-2.143-.48c-2.064 0-3.748 1.193-3.878 2.693h21.25c0-.045.01-.09.01-.126 0-.47-.12-.904-.32-1.31.48-.29.8-.787.8-1.348-.009-.894-.82-1.626-1.812-1.626Zm-8.346-.506-.02-.019h.03c0 .01 0 .019-.01.019Zm1.252 1.437c-.18.036-.35.08-.52.144.01-.072.02-.135.02-.208v-.027c.15.055.31.081.48.081.01.01.02.01.02.01Z" fill="rgba(90,88,77,0.14 )" fill-rule="evenodd" data-name="Path 62162"/><path d="M108.346 200.175c-.822 0-1.503.497-1.714 1.175-.14-.009-.28-.018-.421-.018-.77 0-1.472.226-2.053.614a1.328 1.328 0 0 1-.03-.026c.09-.18.15-.371.15-.588 0-.76-.681-1.374-1.523-1.374-.09 0-.17.01-.25.018v-.018c0-.632-.571-1.148-1.273-1.148-.11 0-.21.019-.31.037.02-.082.04-.172.04-.253 0-.597-.542-1.085-1.193-1.085-.66 0-1.202.488-1.202 1.085 0 .27.11.515.29.705-.02 0-.03-.01-.05-.01-1.072 0-1.933.778-1.943 1.745h-.03c-1.052 0-1.964.542-2.395 1.328a4.924 4.924 0 0 0-2.144-.478c-2.063 0-3.747 1.193-3.877 2.684h21.22c0-.045.01-.09.01-.127 0-.47-.12-.903-.32-1.301.48-.29.8-.787.8-1.347.011-.895-.791-1.618-1.782-1.618Zm-8.336-.506-.02-.018h.03c0 .009-.01.009-.01.018Zm1.252 1.437c-.18.037-.35.082-.52.145.009-.072.02-.136.02-.208v-.027c.15.054.31.081.48.081.01.009.01.009.02.009Z" fill="rgba(90,88,77,0.14 )" fill-rule="evenodd" data-name="Path 62163"/><path d="M252.206 198.73c-.972 0-1.784.587-2.034 1.391a4.404 4.404 0 0 0-2.925.696c-.01-.009-.02-.027-.03-.036.11-.208.18-.443.18-.696 0-.895-.812-1.627-1.804-1.627-.1 0-.2.01-.3.027v-.027c0-.75-.671-1.355-1.503-1.355-.13 0-.25.018-.36.045.03-.1.04-.199.04-.298 0-.705-.632-1.275-1.413-1.275-.782 0-1.413.57-1.413 1.275 0 .316.13.605.35.83-.019 0-.04-.008-.06-.008-1.262 0-2.294.922-2.294 2.07h-.04c-1.242 0-2.314.641-2.835 1.572a5.869 5.869 0 0 0-2.535-.56c-2.444 0-4.428 1.401-4.589 3.181h25.107c0-.045.01-.1.01-.153a3.38 3.38 0 0 0-.38-1.546c.571-.343.942-.93.942-1.59.01-1.058-.942-1.917-2.114-1.917Zm-9.859-.597c-.01-.01-.02-.01-.02-.018h.03c-.01 0-.01.009-.01.018Zm1.473 1.699c-.21.036-.42.1-.621.172.01-.082.03-.154.03-.244v-.027c.17.063.36.099.561.099h.03Z" fill="rgba(90,88,77,0.14 )" fill-rule="evenodd" data-name="Path 62164"/><path d="M359.667 202.498c-.45 0-.871.073-1.262.2.01-.064.03-.127.03-.2 0-.74-.912-1.337-2.034-1.337-.871 0-1.613.37-1.893.876-.23.045-.461.109-.672.172-.05-.027-.1-.063-.16-.09.03-.09.05-.19.05-.298 0-.47-.36-.886-.902-1.13v-.018c0-1.048-1.292-1.907-2.885-1.907-1.593 0-2.885.859-2.885 1.907 0 .307.12.597.31.85-1.783.126-3.186 1.057-3.416 2.223h18.455c-.421-.723-1.484-1.248-2.736-1.248Z" fill="rgba(90,88,77,0.14 )" fill-rule="evenodd" data-name="Path 62165"/><path d="M303.822 202.824c.04-.199.06-.407.06-.624 0-2.124-1.913-3.85-4.268-3.85-1.883 0-3.476 1.103-4.047 2.63-.13.036-.26.072-.391.117-.441-1.21-1.703-2.087-3.186-2.087-1.393 0-2.585.768-3.096 1.853a3.142 3.142 0 0 0-1.493.036c0-.036.01-.072.01-.109 0-1.02-.92-1.852-2.053-1.852-1.132 0-2.054.831-2.054 1.852 0 .118.01.226.04.335a2.433 2.433 0 0 0-1.262-.343c-.912 0-1.703.487-2.054 1.202a1.702 1.702 0 0 0-1.232-.525c-.902 0-1.623.66-1.623 1.464 0 .235.07.461.18.66-.421.172-.752.48-.932.859h28.674c-.08-.723-.581-1.32-1.273-1.618Zm-19.486-.226c-.01-.072-.02-.154-.04-.226.08.036.15.081.24.117-.07.037-.14.073-.2.109Z" fill="rgba(90,88,77,0.14 )" fill-rule="evenodd" data-name="Path 62166"/><path d="M662.976 202.824c.04-.199.06-.407.06-.624 0-2.124-1.913-3.85-4.267-3.85-1.884 0-3.477 1.103-4.048 2.63-.13.036-.26.072-.39.117-.442-1.21-1.704-2.087-3.187-2.087-1.392 0-2.585.768-3.095 1.853a3.143 3.143 0 0 0-1.493.036c0-.036.01-.072.01-.109 0-1.02-.922-1.852-2.054-1.852-1.132 0-2.054.831-2.054 1.852 0 .118.01.226.04.335a2.438 2.438 0 0 0-1.263-.343c-.91 0-1.703.487-2.053 1.202a1.701 1.701 0 0 0-1.233-.525c-.901 0-1.623.66-1.623 1.464 0 .235.07.461.18.66-.42.172-.75.48-.93.859h28.673c-.08-.723-.581-1.32-1.273-1.618Zm-19.487-.226c-.009-.072-.02-.154-.04-.226.081.036.151.081.241.117-.07.037-.14.073-.2.109Z" fill="rgba(90,88,77,0.14 )" fill-rule="evenodd" data-name="Path 62167"/><path d="M540.627 202.29c-.1 0-.19.019-.28.028a.914.914 0 0 0-.852-.073c.01-.063.02-.126.02-.19 0-.84-.752-1.518-1.683-1.518-.26 0-.501.054-.722.154-.3-.1-.621-.154-.962-.154-1.392 0-2.554.895-2.825 2.08a1.576 1.576 0 0 0-.962-.327c-.731 0-1.332.48-1.462 1.103h11.922c-.46-.66-1.262-1.103-2.194-1.103Z" fill="rgba(90,88,77,0.14 )" fill-rule="evenodd" data-name="Path 62168"/><path d="M695.769 201.947c-.129 0-.251.027-.373.037a1.226 1.226 0 0 0-.658-.19c-.17 0-.333.036-.475.09.013-.082.034-.163.034-.244 0-1.102-.991-1.997-2.22-1.997-.338 0-.658.072-.936.199a4.159 4.159 0 0 0-1.262-.2c-1.838 0-3.372 1.176-3.732 2.74a2.076 2.076 0 0 0-1.268-.435c-.964 0-1.765.624-1.934 1.446h15.708c-.611-.867-1.676-1.446-2.884-1.446Z" fill="rgba(90,88,77,0.14 )" fill-rule="evenodd" data-name="Path 62169"/><path d="M367.281 202.997c0-.028-.01-.055-.01-.092.03.018.061.028.091.046-.03.018-.06.027-.08.046Z" fill="rgba(90,88,77,0.14 )" fill-rule="evenodd" data-name="Path 62170"/><path d="M348.085 197.581s-.551-1.843-4.589-2.358h-.01c1.864-1.555 1.573-2.775 1.573-2.775s-2.374-.126-4.208 1.329c.12-.407.21-.877.26-1.42.282-3.253-.93-3.93-.93-3.93s-1.243 1.517-1.644 3.642c-1.523-1.546-2.765-1.375-2.765-1.375s-.16 1.23.411 2.577a6.166 6.166 0 0 0-.521-.118c-3.086-.596-4.088.515-4.088.515s1.443 1.726 3.887 2.151c-.54.398-1.071.95-1.573 1.7 0 0 .942 2.195 3.847 1.13.201-.073.372-.155.551-.227-.03 1.925.191 4.167 1.153 5.386l2.354-.08s-1.643-2.486-2.395-5.306c.431.976 1.263 1.98 2.826 2.685 0 0 1.442-1.157-.03-3.489 1.643.488 3.707.696 5.891-.037Z" fill="rgba(90,88,77,0.14 )" fill-rule="evenodd" data-name="Path 62171"/><path d="M513.585 193.144c.982-2.105.17-3.109.17-3.109s-2.224.759-3.246 2.765c-.07-.415-.2-.876-.41-1.391-1.213-3.073-2.635-3.245-2.635-3.245s-.44 1.835.15 3.931c-2.084-.85-3.146-.234-3.146-.234s.411 1.183 1.543 2.205c-.17.018-.34.045-.52.081-3.097.587-3.497 1.98-3.497 1.98s2.103 1.048 4.528.533c-.31.56-.551 1.265-.661 2.133 0 0 1.863 1.663 4.027-.38.14-.136.27-.271.391-.406-.06 2.006.1 4.5 1.142 5.82l2.355-.081s-2.034-3.082-2.605-6.272c.841.786 2.094 1.463 3.937 1.527 0 0 .792-1.59-1.613-3.172 1.723-.182 3.697-.75 5.36-2.224 0 0-1.343-1.482-5.27-.461Z" fill="rgba(90,88,77,0.14 )" fill-rule="evenodd" data-name="Path 62172"/><path d="M562.006 194.147a6.2 6.2 0 0 0-.52-.081c1.141-1.022 1.542-2.205 1.542-2.205s-1.062-.615-3.146.234c.592-2.087.15-3.93.15-3.93s-1.422.171-2.634 3.244c-.201.515-.331.976-.411 1.391-1.022-2.006-3.246-2.765-3.246-2.765s-.812 1.004.18 3.109h-.01c-3.917-1.021-5.26.46-5.26.46 1.663 1.474 3.647 2.043 5.36 2.225-1.573 1.039-1.773 2.069-1.723 2.665a4.438 4.438 0 0 0-2.765-.949c-1.844 0-3.406 1.076-3.957 2.568a4.61 4.61 0 0 0-.382.117c-.43-1.184-1.663-2.043-3.116-2.043-1.362 0-2.524.75-3.025 1.808a2.982 2.982 0 0 0-1.453.036c0-.036.01-.072.01-.109 0-1.002-.901-1.816-2.013-1.816-1.113 0-2.014.814-2.014 1.816 0 .109.01.217.04.326a2.32 2.32 0 0 0-1.233-.334c-.891 0-1.663.478-2.013 1.174a1.667 1.667 0 0 0-1.212-.515c-.882 0-1.594.642-1.594 1.437 0 .235.07.452.181.642-.411.162-.731.47-.912.84h27.061l-.16.263 2.354.08c1.042-1.319 1.202-3.813 1.142-5.82.12.136.25.271.39.407 2.165 2.042 4.028.38 4.028.38-.11-.868-.35-1.573-.66-2.133 2.424.515 4.528-.534 4.528-.534s-.411-1.4-3.507-1.988Zm-27.441 7.547-.03-.226c.08.045.15.081.23.108-.07.045-.14.082-.2.118Zm19.887.822a2.223 2.223 0 0 0-.821-.605c.04-.2.06-.398.06-.606 0-.886-.341-1.699-.912-2.34 1.633-.145 2.765-.769 3.547-1.5-.34 1.96-1.233 3.858-1.874 5.051Z" fill="rgba(90,88,77,0.14 )" fill-rule="evenodd" data-name="Path 62173"/><path d="M712.407 192.864c-.19.018-.36.036-.53.072.733-1.292.713-2.521.713-2.521s-1.222-.29-2.918 1.102c-.15-2.15-1.201-3.777-1.201-3.777s-1.29.56-1.391 3.822c-.02.552.02 1.022.088 1.437-1.655-1.626-4.023-1.726-4.023-1.726s-.435 1.175 1.228 2.91h-.007c-4.078.127-4.852 1.907-4.852 1.907 2.084.932 4.167.932 5.863.615-1.744 2.178-.441 3.47-.441 3.47 1.73-.578 2.687-1.572 3.216-2.557.55 3.2-.332 6.697-.332 6.697l2.266-.588c.53-1.545-.163-3.958-.916-5.856.163.09.332.19.516.28 2.754 1.338 3.955-.76 3.955-.76-.413-.795-.875-1.4-1.364-1.843 2.484-.19 4.126-1.771 4.126-1.771s-.848-1.211-3.996-.913Z" fill="rgba(90,88,77,0.14 )" fill-rule="evenodd" data-name="Path 62174"/><path d="M209.806 194.147a6.152 6.152 0 0 0-.52-.081c1.142-1.022 1.542-2.205 1.542-2.205s-1.062-.615-3.146.234c.591-2.087.15-3.93.15-3.93s-1.422.171-2.634 3.244c-.2.515-.33.976-.411 1.391-1.022-2.006-3.246-2.765-3.246-2.765s-.812 1.004.18 3.109h-.01c-3.918-1.021-5.26.46-5.26.46 1.663 1.474 3.647 2.043 5.36 2.225-2.404 1.581-1.613 3.172-1.613 3.172 1.844-.064 3.096-.741 3.938-1.527-.572 3.198-2.605 6.272-2.605 6.272l2.354.08c1.042-1.318 1.203-3.813 1.142-5.82.12.136.25.271.391.407 2.164 2.043 4.028.38 4.028.38-.11-.868-.35-1.573-.662-2.133 2.425.515 4.529-.533 4.529-.533s-.42-1.393-3.507-1.98Z" fill="rgba(90,88,77,0.14 )" fill-rule="evenodd" data-name="Path 62175"/><path d="M749.576 206.213H1.916c-1.142 0-2.074-.796-2.074-1.781 0-.985.932-1.78 2.074-1.78H749.59c1.14 0 2.07.795 2.07 1.78-.007.985-.937 1.78-2.084 1.78Z" fill="rgba(90,88,77,0.14 )" fill-rule="evenodd" data-name="Path 62176"/></g><defs><clipPath id="a"><path d="M0 0h752v206H0V0z" data-name="Rectangle 7972" transform="translate(-.263 -.076)"/></clipPath></defs></svg>